M48
INCH,TZ
T1C0.0157
T2C0.0354
T3C0.0400
%
G90
G05
T1
X47746Y-36220
X51388Y-36280
X53888Y-35679
X61220Y-35758
X66496Y-36319
T2
X52854Y-36358
X53354Y-36358
X53854Y-36358
X54354Y-36358
X43012Y-36358
X43512Y-36358
X44012Y-36358
X44512Y-36358
X62697Y-36358
X63197Y-36358
X63697Y-36358
X64197Y-36358
T3
X57343Y-34803
X58343Y-34903
X59343Y-34803
X60343Y-34903
T0
M30
