G04 #@! TF.GenerationSoftware,KiCad,Pcbnew,(5.1.2)-2*
G04 #@! TF.CreationDate,2019-12-19T20:04:36-08:00*
G04 #@! TF.ProjectId,led_daughterboard,6c65645f-6461-4756-9768-746572626f61,rev?*
G04 #@! TF.SameCoordinates,Original*
G04 #@! TF.FileFunction,Copper,L2,Bot*
G04 #@! TF.FilePolarity,Positive*
%FSLAX46Y46*%
G04 Gerber Fmt 4.6, Leading zero omitted, Abs format (unit mm)*
G04 Created by KiCad (PCBNEW (5.1.2)-2) date 2019-12-19 20:04:36*
%MOMM*%
%LPD*%
G04 APERTURE LIST*
%ADD10O,1.524000X3.048000*%
%ADD11O,1.070000X1.800000*%
%ADD12R,1.070000X1.800000*%
%ADD13C,0.800000*%
%ADD14C,0.200000*%
G04 APERTURE END LIST*
D10*
X153270000Y-88654000D03*
X150730000Y-88400000D03*
X148190000Y-88654000D03*
X145650000Y-88400000D03*
D11*
X163060000Y-92350000D03*
X161790000Y-92350000D03*
X160520000Y-92350000D03*
D12*
X159250000Y-92350000D03*
D11*
X138060000Y-92350000D03*
X136790000Y-92350000D03*
X135520000Y-92350000D03*
D12*
X134250000Y-92350000D03*
D11*
X113060000Y-92350000D03*
X111790000Y-92350000D03*
X110520000Y-92350000D03*
D12*
X109250000Y-92350000D03*
D13*
X136875000Y-90625000D03*
X130525000Y-92150000D03*
X121275000Y-92000000D03*
X168900000Y-92250000D03*
X155500000Y-90825000D03*
D14*
G36*
X171925001Y-98275000D02*
G01*
X107475000Y-98275000D01*
X107475000Y-91450000D01*
X108413549Y-91450000D01*
X108413549Y-93250000D01*
X108419341Y-93308810D01*
X108436496Y-93365360D01*
X108464353Y-93417477D01*
X108501842Y-93463158D01*
X108547523Y-93500647D01*
X108599640Y-93528504D01*
X108656190Y-93545659D01*
X108715000Y-93551451D01*
X109734021Y-93551451D01*
X109820671Y-93632117D01*
X110013029Y-93750927D01*
X110190722Y-93809543D01*
X110366000Y-93693961D01*
X110366000Y-92504000D01*
X110346000Y-92504000D01*
X110346000Y-92196000D01*
X110366000Y-92196000D01*
X110366000Y-91006039D01*
X110674000Y-91006039D01*
X110674000Y-92196000D01*
X110694000Y-92196000D01*
X110694000Y-92504000D01*
X110674000Y-92504000D01*
X110674000Y-93693961D01*
X110849278Y-93809543D01*
X111026971Y-93750927D01*
X111219329Y-93632117D01*
X111384812Y-93478063D01*
X111401909Y-93454357D01*
X111468914Y-93490172D01*
X111626312Y-93537918D01*
X111790000Y-93554040D01*
X111953689Y-93537918D01*
X112111087Y-93490172D01*
X112256146Y-93412636D01*
X112383291Y-93308291D01*
X112425001Y-93257468D01*
X112466710Y-93308291D01*
X112593855Y-93412636D01*
X112738914Y-93490172D01*
X112896312Y-93537918D01*
X113060000Y-93554040D01*
X113223689Y-93537918D01*
X113381087Y-93490172D01*
X113526146Y-93412636D01*
X113653291Y-93308291D01*
X113757636Y-93181146D01*
X113835172Y-93036087D01*
X113882918Y-92878689D01*
X113895000Y-92756019D01*
X113895000Y-91943981D01*
X113882918Y-91821311D01*
X113835172Y-91663913D01*
X113757636Y-91518854D01*
X113701130Y-91450000D01*
X133413549Y-91450000D01*
X133413549Y-93250000D01*
X133419341Y-93308810D01*
X133436496Y-93365360D01*
X133464353Y-93417477D01*
X133501842Y-93463158D01*
X133547523Y-93500647D01*
X133599640Y-93528504D01*
X133656190Y-93545659D01*
X133715000Y-93551451D01*
X134734021Y-93551451D01*
X134820671Y-93632117D01*
X135013029Y-93750927D01*
X135190722Y-93809543D01*
X135366000Y-93693961D01*
X135366000Y-92504000D01*
X135346000Y-92504000D01*
X135346000Y-92196000D01*
X135366000Y-92196000D01*
X135366000Y-91006039D01*
X135674000Y-91006039D01*
X135674000Y-92196000D01*
X135694000Y-92196000D01*
X135694000Y-92504000D01*
X135674000Y-92504000D01*
X135674000Y-93693961D01*
X135849278Y-93809543D01*
X136026971Y-93750927D01*
X136219329Y-93632117D01*
X136384812Y-93478063D01*
X136401909Y-93454357D01*
X136468914Y-93490172D01*
X136626312Y-93537918D01*
X136790000Y-93554040D01*
X136953689Y-93537918D01*
X137111087Y-93490172D01*
X137256146Y-93412636D01*
X137383291Y-93308291D01*
X137425001Y-93257468D01*
X137466710Y-93308291D01*
X137593855Y-93412636D01*
X137738914Y-93490172D01*
X137896312Y-93537918D01*
X138060000Y-93554040D01*
X138223689Y-93537918D01*
X138381087Y-93490172D01*
X138526146Y-93412636D01*
X138653291Y-93308291D01*
X138757636Y-93181146D01*
X138835172Y-93036087D01*
X138882918Y-92878689D01*
X138895000Y-92756019D01*
X138895000Y-91943981D01*
X138882918Y-91821311D01*
X138835172Y-91663913D01*
X138757636Y-91518854D01*
X138701130Y-91450000D01*
X158413549Y-91450000D01*
X158413549Y-93250000D01*
X158419341Y-93308810D01*
X158436496Y-93365360D01*
X158464353Y-93417477D01*
X158501842Y-93463158D01*
X158547523Y-93500647D01*
X158599640Y-93528504D01*
X158656190Y-93545659D01*
X158715000Y-93551451D01*
X159734021Y-93551451D01*
X159820671Y-93632117D01*
X160013029Y-93750927D01*
X160190722Y-93809543D01*
X160366000Y-93693961D01*
X160366000Y-92504000D01*
X160346000Y-92504000D01*
X160346000Y-92196000D01*
X160366000Y-92196000D01*
X160366000Y-91006039D01*
X160674000Y-91006039D01*
X160674000Y-92196000D01*
X160694000Y-92196000D01*
X160694000Y-92504000D01*
X160674000Y-92504000D01*
X160674000Y-93693961D01*
X160849278Y-93809543D01*
X161026971Y-93750927D01*
X161219329Y-93632117D01*
X161384812Y-93478063D01*
X161401909Y-93454357D01*
X161468914Y-93490172D01*
X161626312Y-93537918D01*
X161790000Y-93554040D01*
X161953689Y-93537918D01*
X162111087Y-93490172D01*
X162256146Y-93412636D01*
X162383291Y-93308291D01*
X162425001Y-93257468D01*
X162466710Y-93308291D01*
X162593855Y-93412636D01*
X162738914Y-93490172D01*
X162896312Y-93537918D01*
X163060000Y-93554040D01*
X163223689Y-93537918D01*
X163381087Y-93490172D01*
X163526146Y-93412636D01*
X163653291Y-93308291D01*
X163757636Y-93181146D01*
X163835172Y-93036087D01*
X163882918Y-92878689D01*
X163895000Y-92756019D01*
X163895000Y-91943981D01*
X163882918Y-91821311D01*
X163835172Y-91663913D01*
X163757636Y-91518854D01*
X163653291Y-91391709D01*
X163526145Y-91287364D01*
X163381086Y-91209828D01*
X163223688Y-91162082D01*
X163060000Y-91145960D01*
X162896311Y-91162082D01*
X162738913Y-91209828D01*
X162593854Y-91287364D01*
X162466709Y-91391709D01*
X162425000Y-91442532D01*
X162383291Y-91391709D01*
X162256145Y-91287364D01*
X162111086Y-91209828D01*
X161953688Y-91162082D01*
X161790000Y-91145960D01*
X161626311Y-91162082D01*
X161468913Y-91209828D01*
X161401908Y-91245643D01*
X161384812Y-91221937D01*
X161219329Y-91067883D01*
X161026971Y-90949073D01*
X160849278Y-90890457D01*
X160674000Y-91006039D01*
X160366000Y-91006039D01*
X160190722Y-90890457D01*
X160013029Y-90949073D01*
X159820671Y-91067883D01*
X159734021Y-91148549D01*
X158715000Y-91148549D01*
X158656190Y-91154341D01*
X158599640Y-91171496D01*
X158547523Y-91199353D01*
X158501842Y-91236842D01*
X158464353Y-91282523D01*
X158436496Y-91334640D01*
X158419341Y-91391190D01*
X158413549Y-91450000D01*
X138701130Y-91450000D01*
X138653291Y-91391709D01*
X138526145Y-91287364D01*
X138381086Y-91209828D01*
X138223688Y-91162082D01*
X138060000Y-91145960D01*
X137896311Y-91162082D01*
X137738913Y-91209828D01*
X137593854Y-91287364D01*
X137466709Y-91391709D01*
X137425000Y-91442532D01*
X137383291Y-91391709D01*
X137256145Y-91287364D01*
X137111086Y-91209828D01*
X136953688Y-91162082D01*
X136790000Y-91145960D01*
X136626311Y-91162082D01*
X136468913Y-91209828D01*
X136401908Y-91245643D01*
X136384812Y-91221937D01*
X136219329Y-91067883D01*
X136026971Y-90949073D01*
X135849278Y-90890457D01*
X135674000Y-91006039D01*
X135366000Y-91006039D01*
X135190722Y-90890457D01*
X135013029Y-90949073D01*
X134820671Y-91067883D01*
X134734021Y-91148549D01*
X133715000Y-91148549D01*
X133656190Y-91154341D01*
X133599640Y-91171496D01*
X133547523Y-91199353D01*
X133501842Y-91236842D01*
X133464353Y-91282523D01*
X133436496Y-91334640D01*
X133419341Y-91391190D01*
X133413549Y-91450000D01*
X113701130Y-91450000D01*
X113653291Y-91391709D01*
X113526145Y-91287364D01*
X113381086Y-91209828D01*
X113223688Y-91162082D01*
X113060000Y-91145960D01*
X112896311Y-91162082D01*
X112738913Y-91209828D01*
X112593854Y-91287364D01*
X112466709Y-91391709D01*
X112425000Y-91442532D01*
X112383291Y-91391709D01*
X112256145Y-91287364D01*
X112111086Y-91209828D01*
X111953688Y-91162082D01*
X111790000Y-91145960D01*
X111626311Y-91162082D01*
X111468913Y-91209828D01*
X111401908Y-91245643D01*
X111384812Y-91221937D01*
X111219329Y-91067883D01*
X111026971Y-90949073D01*
X110849278Y-90890457D01*
X110674000Y-91006039D01*
X110366000Y-91006039D01*
X110190722Y-90890457D01*
X110013029Y-90949073D01*
X109820671Y-91067883D01*
X109734021Y-91148549D01*
X108715000Y-91148549D01*
X108656190Y-91154341D01*
X108599640Y-91171496D01*
X108547523Y-91199353D01*
X108501842Y-91236842D01*
X108464353Y-91282523D01*
X108436496Y-91334640D01*
X108419341Y-91391190D01*
X108413549Y-91450000D01*
X107475000Y-91450000D01*
X107475000Y-88554000D01*
X144280000Y-88554000D01*
X144280000Y-89316000D01*
X144336368Y-89580315D01*
X144443218Y-89828554D01*
X144596444Y-90051178D01*
X144790158Y-90239631D01*
X145016915Y-90386671D01*
X145284939Y-90482466D01*
X145496000Y-90370225D01*
X145496000Y-88554000D01*
X145804000Y-88554000D01*
X145804000Y-90370225D01*
X146015061Y-90482466D01*
X146283085Y-90386671D01*
X146509842Y-90239631D01*
X146703556Y-90051178D01*
X146856782Y-89828554D01*
X146963632Y-89580315D01*
X147020000Y-89316000D01*
X147020000Y-88554000D01*
X145804000Y-88554000D01*
X145496000Y-88554000D01*
X144280000Y-88554000D01*
X107475000Y-88554000D01*
X107475000Y-87484000D01*
X144280000Y-87484000D01*
X144280000Y-88246000D01*
X145496000Y-88246000D01*
X145496000Y-86429775D01*
X145804000Y-86429775D01*
X145804000Y-88246000D01*
X147020000Y-88246000D01*
X147020000Y-87839834D01*
X147128000Y-87839834D01*
X147128000Y-89468165D01*
X147143367Y-89624187D01*
X147204093Y-89824375D01*
X147302707Y-90008870D01*
X147435419Y-90170581D01*
X147597130Y-90303293D01*
X147781624Y-90401907D01*
X147981812Y-90462633D01*
X148190000Y-90483138D01*
X148398187Y-90462633D01*
X148598375Y-90401907D01*
X148782870Y-90303293D01*
X148944581Y-90170581D01*
X149077293Y-90008870D01*
X149175907Y-89824376D01*
X149236633Y-89624188D01*
X149252000Y-89468166D01*
X149252000Y-88554000D01*
X149360000Y-88554000D01*
X149360000Y-89316000D01*
X149416368Y-89580315D01*
X149523218Y-89828554D01*
X149676444Y-90051178D01*
X149870158Y-90239631D01*
X150096915Y-90386671D01*
X150364939Y-90482466D01*
X150576000Y-90370225D01*
X150576000Y-88554000D01*
X150884000Y-88554000D01*
X150884000Y-90370225D01*
X151095061Y-90482466D01*
X151363085Y-90386671D01*
X151589842Y-90239631D01*
X151783556Y-90051178D01*
X151936782Y-89828554D01*
X152043632Y-89580315D01*
X152100000Y-89316000D01*
X152100000Y-88554000D01*
X150884000Y-88554000D01*
X150576000Y-88554000D01*
X149360000Y-88554000D01*
X149252000Y-88554000D01*
X149252000Y-87839834D01*
X149236633Y-87683812D01*
X149176022Y-87484000D01*
X149360000Y-87484000D01*
X149360000Y-88246000D01*
X150576000Y-88246000D01*
X150576000Y-86429775D01*
X150884000Y-86429775D01*
X150884000Y-88246000D01*
X152100000Y-88246000D01*
X152100000Y-87839834D01*
X152208000Y-87839834D01*
X152208000Y-89468165D01*
X152223367Y-89624187D01*
X152284093Y-89824375D01*
X152382707Y-90008870D01*
X152515419Y-90170581D01*
X152677130Y-90303293D01*
X152861624Y-90401907D01*
X153061812Y-90462633D01*
X153270000Y-90483138D01*
X153478187Y-90462633D01*
X153678375Y-90401907D01*
X153862870Y-90303293D01*
X154024581Y-90170581D01*
X154157293Y-90008870D01*
X154255907Y-89824376D01*
X154316633Y-89624188D01*
X154332000Y-89468166D01*
X154332000Y-87839834D01*
X154316633Y-87683812D01*
X154255907Y-87483624D01*
X154157293Y-87299130D01*
X154024581Y-87137419D01*
X153862870Y-87004707D01*
X153678376Y-86906093D01*
X153478188Y-86845367D01*
X153270000Y-86824862D01*
X153061813Y-86845367D01*
X152861625Y-86906093D01*
X152677131Y-87004707D01*
X152515420Y-87137419D01*
X152382708Y-87299130D01*
X152284094Y-87483624D01*
X152223368Y-87683812D01*
X152208000Y-87839834D01*
X152100000Y-87839834D01*
X152100000Y-87484000D01*
X152043632Y-87219685D01*
X151936782Y-86971446D01*
X151783556Y-86748822D01*
X151589842Y-86560369D01*
X151363085Y-86413329D01*
X151095061Y-86317534D01*
X150884000Y-86429775D01*
X150576000Y-86429775D01*
X150364939Y-86317534D01*
X150096915Y-86413329D01*
X149870158Y-86560369D01*
X149676444Y-86748822D01*
X149523218Y-86971446D01*
X149416368Y-87219685D01*
X149360000Y-87484000D01*
X149176022Y-87484000D01*
X149175907Y-87483624D01*
X149077293Y-87299130D01*
X148944581Y-87137419D01*
X148782870Y-87004707D01*
X148598376Y-86906093D01*
X148398188Y-86845367D01*
X148190000Y-86824862D01*
X147981813Y-86845367D01*
X147781625Y-86906093D01*
X147597131Y-87004707D01*
X147435420Y-87137419D01*
X147302708Y-87299130D01*
X147204094Y-87483624D01*
X147143368Y-87683812D01*
X147128000Y-87839834D01*
X147020000Y-87839834D01*
X147020000Y-87484000D01*
X146963632Y-87219685D01*
X146856782Y-86971446D01*
X146703556Y-86748822D01*
X146509842Y-86560369D01*
X146283085Y-86413329D01*
X146015061Y-86317534D01*
X145804000Y-86429775D01*
X145496000Y-86429775D01*
X145284939Y-86317534D01*
X145016915Y-86413329D01*
X144790158Y-86560369D01*
X144596444Y-86748822D01*
X144443218Y-86971446D01*
X144336368Y-87219685D01*
X144280000Y-87484000D01*
X107475000Y-87484000D01*
X107475000Y-85900000D01*
X171925000Y-85900000D01*
X171925001Y-98275000D01*
X171925001Y-98275000D01*
G37*
X171925001Y-98275000D02*
X107475000Y-98275000D01*
X107475000Y-91450000D01*
X108413549Y-91450000D01*
X108413549Y-93250000D01*
X108419341Y-93308810D01*
X108436496Y-93365360D01*
X108464353Y-93417477D01*
X108501842Y-93463158D01*
X108547523Y-93500647D01*
X108599640Y-93528504D01*
X108656190Y-93545659D01*
X108715000Y-93551451D01*
X109734021Y-93551451D01*
X109820671Y-93632117D01*
X110013029Y-93750927D01*
X110190722Y-93809543D01*
X110366000Y-93693961D01*
X110366000Y-92504000D01*
X110346000Y-92504000D01*
X110346000Y-92196000D01*
X110366000Y-92196000D01*
X110366000Y-91006039D01*
X110674000Y-91006039D01*
X110674000Y-92196000D01*
X110694000Y-92196000D01*
X110694000Y-92504000D01*
X110674000Y-92504000D01*
X110674000Y-93693961D01*
X110849278Y-93809543D01*
X111026971Y-93750927D01*
X111219329Y-93632117D01*
X111384812Y-93478063D01*
X111401909Y-93454357D01*
X111468914Y-93490172D01*
X111626312Y-93537918D01*
X111790000Y-93554040D01*
X111953689Y-93537918D01*
X112111087Y-93490172D01*
X112256146Y-93412636D01*
X112383291Y-93308291D01*
X112425001Y-93257468D01*
X112466710Y-93308291D01*
X112593855Y-93412636D01*
X112738914Y-93490172D01*
X112896312Y-93537918D01*
X113060000Y-93554040D01*
X113223689Y-93537918D01*
X113381087Y-93490172D01*
X113526146Y-93412636D01*
X113653291Y-93308291D01*
X113757636Y-93181146D01*
X113835172Y-93036087D01*
X113882918Y-92878689D01*
X113895000Y-92756019D01*
X113895000Y-91943981D01*
X113882918Y-91821311D01*
X113835172Y-91663913D01*
X113757636Y-91518854D01*
X113701130Y-91450000D01*
X133413549Y-91450000D01*
X133413549Y-93250000D01*
X133419341Y-93308810D01*
X133436496Y-93365360D01*
X133464353Y-93417477D01*
X133501842Y-93463158D01*
X133547523Y-93500647D01*
X133599640Y-93528504D01*
X133656190Y-93545659D01*
X133715000Y-93551451D01*
X134734021Y-93551451D01*
X134820671Y-93632117D01*
X135013029Y-93750927D01*
X135190722Y-93809543D01*
X135366000Y-93693961D01*
X135366000Y-92504000D01*
X135346000Y-92504000D01*
X135346000Y-92196000D01*
X135366000Y-92196000D01*
X135366000Y-91006039D01*
X135674000Y-91006039D01*
X135674000Y-92196000D01*
X135694000Y-92196000D01*
X135694000Y-92504000D01*
X135674000Y-92504000D01*
X135674000Y-93693961D01*
X135849278Y-93809543D01*
X136026971Y-93750927D01*
X136219329Y-93632117D01*
X136384812Y-93478063D01*
X136401909Y-93454357D01*
X136468914Y-93490172D01*
X136626312Y-93537918D01*
X136790000Y-93554040D01*
X136953689Y-93537918D01*
X137111087Y-93490172D01*
X137256146Y-93412636D01*
X137383291Y-93308291D01*
X137425001Y-93257468D01*
X137466710Y-93308291D01*
X137593855Y-93412636D01*
X137738914Y-93490172D01*
X137896312Y-93537918D01*
X138060000Y-93554040D01*
X138223689Y-93537918D01*
X138381087Y-93490172D01*
X138526146Y-93412636D01*
X138653291Y-93308291D01*
X138757636Y-93181146D01*
X138835172Y-93036087D01*
X138882918Y-92878689D01*
X138895000Y-92756019D01*
X138895000Y-91943981D01*
X138882918Y-91821311D01*
X138835172Y-91663913D01*
X138757636Y-91518854D01*
X138701130Y-91450000D01*
X158413549Y-91450000D01*
X158413549Y-93250000D01*
X158419341Y-93308810D01*
X158436496Y-93365360D01*
X158464353Y-93417477D01*
X158501842Y-93463158D01*
X158547523Y-93500647D01*
X158599640Y-93528504D01*
X158656190Y-93545659D01*
X158715000Y-93551451D01*
X159734021Y-93551451D01*
X159820671Y-93632117D01*
X160013029Y-93750927D01*
X160190722Y-93809543D01*
X160366000Y-93693961D01*
X160366000Y-92504000D01*
X160346000Y-92504000D01*
X160346000Y-92196000D01*
X160366000Y-92196000D01*
X160366000Y-91006039D01*
X160674000Y-91006039D01*
X160674000Y-92196000D01*
X160694000Y-92196000D01*
X160694000Y-92504000D01*
X160674000Y-92504000D01*
X160674000Y-93693961D01*
X160849278Y-93809543D01*
X161026971Y-93750927D01*
X161219329Y-93632117D01*
X161384812Y-93478063D01*
X161401909Y-93454357D01*
X161468914Y-93490172D01*
X161626312Y-93537918D01*
X161790000Y-93554040D01*
X161953689Y-93537918D01*
X162111087Y-93490172D01*
X162256146Y-93412636D01*
X162383291Y-93308291D01*
X162425001Y-93257468D01*
X162466710Y-93308291D01*
X162593855Y-93412636D01*
X162738914Y-93490172D01*
X162896312Y-93537918D01*
X163060000Y-93554040D01*
X163223689Y-93537918D01*
X163381087Y-93490172D01*
X163526146Y-93412636D01*
X163653291Y-93308291D01*
X163757636Y-93181146D01*
X163835172Y-93036087D01*
X163882918Y-92878689D01*
X163895000Y-92756019D01*
X163895000Y-91943981D01*
X163882918Y-91821311D01*
X163835172Y-91663913D01*
X163757636Y-91518854D01*
X163653291Y-91391709D01*
X163526145Y-91287364D01*
X163381086Y-91209828D01*
X163223688Y-91162082D01*
X163060000Y-91145960D01*
X162896311Y-91162082D01*
X162738913Y-91209828D01*
X162593854Y-91287364D01*
X162466709Y-91391709D01*
X162425000Y-91442532D01*
X162383291Y-91391709D01*
X162256145Y-91287364D01*
X162111086Y-91209828D01*
X161953688Y-91162082D01*
X161790000Y-91145960D01*
X161626311Y-91162082D01*
X161468913Y-91209828D01*
X161401908Y-91245643D01*
X161384812Y-91221937D01*
X161219329Y-91067883D01*
X161026971Y-90949073D01*
X160849278Y-90890457D01*
X160674000Y-91006039D01*
X160366000Y-91006039D01*
X160190722Y-90890457D01*
X160013029Y-90949073D01*
X159820671Y-91067883D01*
X159734021Y-91148549D01*
X158715000Y-91148549D01*
X158656190Y-91154341D01*
X158599640Y-91171496D01*
X158547523Y-91199353D01*
X158501842Y-91236842D01*
X158464353Y-91282523D01*
X158436496Y-91334640D01*
X158419341Y-91391190D01*
X158413549Y-91450000D01*
X138701130Y-91450000D01*
X138653291Y-91391709D01*
X138526145Y-91287364D01*
X138381086Y-91209828D01*
X138223688Y-91162082D01*
X138060000Y-91145960D01*
X137896311Y-91162082D01*
X137738913Y-91209828D01*
X137593854Y-91287364D01*
X137466709Y-91391709D01*
X137425000Y-91442532D01*
X137383291Y-91391709D01*
X137256145Y-91287364D01*
X137111086Y-91209828D01*
X136953688Y-91162082D01*
X136790000Y-91145960D01*
X136626311Y-91162082D01*
X136468913Y-91209828D01*
X136401908Y-91245643D01*
X136384812Y-91221937D01*
X136219329Y-91067883D01*
X136026971Y-90949073D01*
X135849278Y-90890457D01*
X135674000Y-91006039D01*
X135366000Y-91006039D01*
X135190722Y-90890457D01*
X135013029Y-90949073D01*
X134820671Y-91067883D01*
X134734021Y-91148549D01*
X133715000Y-91148549D01*
X133656190Y-91154341D01*
X133599640Y-91171496D01*
X133547523Y-91199353D01*
X133501842Y-91236842D01*
X133464353Y-91282523D01*
X133436496Y-91334640D01*
X133419341Y-91391190D01*
X133413549Y-91450000D01*
X113701130Y-91450000D01*
X113653291Y-91391709D01*
X113526145Y-91287364D01*
X113381086Y-91209828D01*
X113223688Y-91162082D01*
X113060000Y-91145960D01*
X112896311Y-91162082D01*
X112738913Y-91209828D01*
X112593854Y-91287364D01*
X112466709Y-91391709D01*
X112425000Y-91442532D01*
X112383291Y-91391709D01*
X112256145Y-91287364D01*
X112111086Y-91209828D01*
X111953688Y-91162082D01*
X111790000Y-91145960D01*
X111626311Y-91162082D01*
X111468913Y-91209828D01*
X111401908Y-91245643D01*
X111384812Y-91221937D01*
X111219329Y-91067883D01*
X111026971Y-90949073D01*
X110849278Y-90890457D01*
X110674000Y-91006039D01*
X110366000Y-91006039D01*
X110190722Y-90890457D01*
X110013029Y-90949073D01*
X109820671Y-91067883D01*
X109734021Y-91148549D01*
X108715000Y-91148549D01*
X108656190Y-91154341D01*
X108599640Y-91171496D01*
X108547523Y-91199353D01*
X108501842Y-91236842D01*
X108464353Y-91282523D01*
X108436496Y-91334640D01*
X108419341Y-91391190D01*
X108413549Y-91450000D01*
X107475000Y-91450000D01*
X107475000Y-88554000D01*
X144280000Y-88554000D01*
X144280000Y-89316000D01*
X144336368Y-89580315D01*
X144443218Y-89828554D01*
X144596444Y-90051178D01*
X144790158Y-90239631D01*
X145016915Y-90386671D01*
X145284939Y-90482466D01*
X145496000Y-90370225D01*
X145496000Y-88554000D01*
X145804000Y-88554000D01*
X145804000Y-90370225D01*
X146015061Y-90482466D01*
X146283085Y-90386671D01*
X146509842Y-90239631D01*
X146703556Y-90051178D01*
X146856782Y-89828554D01*
X146963632Y-89580315D01*
X147020000Y-89316000D01*
X147020000Y-88554000D01*
X145804000Y-88554000D01*
X145496000Y-88554000D01*
X144280000Y-88554000D01*
X107475000Y-88554000D01*
X107475000Y-87484000D01*
X144280000Y-87484000D01*
X144280000Y-88246000D01*
X145496000Y-88246000D01*
X145496000Y-86429775D01*
X145804000Y-86429775D01*
X145804000Y-88246000D01*
X147020000Y-88246000D01*
X147020000Y-87839834D01*
X147128000Y-87839834D01*
X147128000Y-89468165D01*
X147143367Y-89624187D01*
X147204093Y-89824375D01*
X147302707Y-90008870D01*
X147435419Y-90170581D01*
X147597130Y-90303293D01*
X147781624Y-90401907D01*
X147981812Y-90462633D01*
X148190000Y-90483138D01*
X148398187Y-90462633D01*
X148598375Y-90401907D01*
X148782870Y-90303293D01*
X148944581Y-90170581D01*
X149077293Y-90008870D01*
X149175907Y-89824376D01*
X149236633Y-89624188D01*
X149252000Y-89468166D01*
X149252000Y-88554000D01*
X149360000Y-88554000D01*
X149360000Y-89316000D01*
X149416368Y-89580315D01*
X149523218Y-89828554D01*
X149676444Y-90051178D01*
X149870158Y-90239631D01*
X150096915Y-90386671D01*
X150364939Y-90482466D01*
X150576000Y-90370225D01*
X150576000Y-88554000D01*
X150884000Y-88554000D01*
X150884000Y-90370225D01*
X151095061Y-90482466D01*
X151363085Y-90386671D01*
X151589842Y-90239631D01*
X151783556Y-90051178D01*
X151936782Y-89828554D01*
X152043632Y-89580315D01*
X152100000Y-89316000D01*
X152100000Y-88554000D01*
X150884000Y-88554000D01*
X150576000Y-88554000D01*
X149360000Y-88554000D01*
X149252000Y-88554000D01*
X149252000Y-87839834D01*
X149236633Y-87683812D01*
X149176022Y-87484000D01*
X149360000Y-87484000D01*
X149360000Y-88246000D01*
X150576000Y-88246000D01*
X150576000Y-86429775D01*
X150884000Y-86429775D01*
X150884000Y-88246000D01*
X152100000Y-88246000D01*
X152100000Y-87839834D01*
X152208000Y-87839834D01*
X152208000Y-89468165D01*
X152223367Y-89624187D01*
X152284093Y-89824375D01*
X152382707Y-90008870D01*
X152515419Y-90170581D01*
X152677130Y-90303293D01*
X152861624Y-90401907D01*
X153061812Y-90462633D01*
X153270000Y-90483138D01*
X153478187Y-90462633D01*
X153678375Y-90401907D01*
X153862870Y-90303293D01*
X154024581Y-90170581D01*
X154157293Y-90008870D01*
X154255907Y-89824376D01*
X154316633Y-89624188D01*
X154332000Y-89468166D01*
X154332000Y-87839834D01*
X154316633Y-87683812D01*
X154255907Y-87483624D01*
X154157293Y-87299130D01*
X154024581Y-87137419D01*
X153862870Y-87004707D01*
X153678376Y-86906093D01*
X153478188Y-86845367D01*
X153270000Y-86824862D01*
X153061813Y-86845367D01*
X152861625Y-86906093D01*
X152677131Y-87004707D01*
X152515420Y-87137419D01*
X152382708Y-87299130D01*
X152284094Y-87483624D01*
X152223368Y-87683812D01*
X152208000Y-87839834D01*
X152100000Y-87839834D01*
X152100000Y-87484000D01*
X152043632Y-87219685D01*
X151936782Y-86971446D01*
X151783556Y-86748822D01*
X151589842Y-86560369D01*
X151363085Y-86413329D01*
X151095061Y-86317534D01*
X150884000Y-86429775D01*
X150576000Y-86429775D01*
X150364939Y-86317534D01*
X150096915Y-86413329D01*
X149870158Y-86560369D01*
X149676444Y-86748822D01*
X149523218Y-86971446D01*
X149416368Y-87219685D01*
X149360000Y-87484000D01*
X149176022Y-87484000D01*
X149175907Y-87483624D01*
X149077293Y-87299130D01*
X148944581Y-87137419D01*
X148782870Y-87004707D01*
X148598376Y-86906093D01*
X148398188Y-86845367D01*
X148190000Y-86824862D01*
X147981813Y-86845367D01*
X147781625Y-86906093D01*
X147597131Y-87004707D01*
X147435420Y-87137419D01*
X147302708Y-87299130D01*
X147204094Y-87483624D01*
X147143368Y-87683812D01*
X147128000Y-87839834D01*
X147020000Y-87839834D01*
X147020000Y-87484000D01*
X146963632Y-87219685D01*
X146856782Y-86971446D01*
X146703556Y-86748822D01*
X146509842Y-86560369D01*
X146283085Y-86413329D01*
X146015061Y-86317534D01*
X145804000Y-86429775D01*
X145496000Y-86429775D01*
X145284939Y-86317534D01*
X145016915Y-86413329D01*
X144790158Y-86560369D01*
X144596444Y-86748822D01*
X144443218Y-86971446D01*
X144336368Y-87219685D01*
X144280000Y-87484000D01*
X107475000Y-87484000D01*
X107475000Y-85900000D01*
X171925000Y-85900000D01*
X171925001Y-98275000D01*
M02*
