G04 #@! TF.GenerationSoftware,KiCad,Pcbnew,(5.1.2)-2*
G04 #@! TF.CreationDate,2019-12-19T20:04:36-08:00*
G04 #@! TF.ProjectId,led_daughterboard,6c65645f-6461-4756-9768-746572626f61,rev?*
G04 #@! TF.SameCoordinates,Original*
G04 #@! TF.FileFunction,Legend,Top*
G04 #@! TF.FilePolarity,Positive*
%FSLAX46Y46*%
G04 Gerber Fmt 4.6, Leading zero omitted, Abs format (unit mm)*
G04 Created by KiCad (PCBNEW (5.1.2)-2) date 2019-12-19 20:04:36*
%MOMM*%
%LPD*%
G04 APERTURE LIST*
%ADD10C,0.300000*%
%ADD11C,0.203200*%
%ADD12C,0.120000*%
%ADD13C,0.127000*%
%ADD14C,0.150000*%
G04 APERTURE END LIST*
D10*
X152603571Y-94771428D02*
X152603571Y-93842857D01*
X153175000Y-94342857D01*
X153175000Y-94128571D01*
X153246428Y-93985714D01*
X153317857Y-93914286D01*
X153460714Y-93842857D01*
X153817857Y-93842857D01*
X153960714Y-93914286D01*
X154032142Y-93985714D01*
X154103571Y-94128571D01*
X154103571Y-94557143D01*
X154032142Y-94700000D01*
X153960714Y-94771428D01*
X152603571Y-93414286D02*
X154103571Y-92914286D01*
X152603571Y-92414286D01*
X152603571Y-92057143D02*
X152603571Y-91128571D01*
X153175000Y-91628571D01*
X153175000Y-91414286D01*
X153246428Y-91271428D01*
X153317857Y-91200000D01*
X153460714Y-91128571D01*
X153817857Y-91128571D01*
X153960714Y-91200000D01*
X154032142Y-91271428D01*
X154103571Y-91414286D01*
X154103571Y-91842857D01*
X154032142Y-91985714D01*
X153960714Y-92057143D01*
X150083332Y-93842857D02*
X150011903Y-93985714D01*
X150011903Y-94200000D01*
X150083332Y-94414285D01*
X150226189Y-94557142D01*
X150369046Y-94628571D01*
X150654760Y-94700000D01*
X150869046Y-94700000D01*
X151154760Y-94628571D01*
X151297617Y-94557142D01*
X151440474Y-94414285D01*
X151511903Y-94200000D01*
X151511903Y-94057142D01*
X151440474Y-93842857D01*
X151369046Y-93771428D01*
X150869046Y-93771428D01*
X150869046Y-94057142D01*
X151511903Y-93128571D02*
X150011903Y-93128571D01*
X151511903Y-92271428D01*
X150011903Y-92271428D01*
X151511903Y-91557142D02*
X150011903Y-91557142D01*
X150011903Y-91200000D01*
X150083332Y-90985714D01*
X150226189Y-90842857D01*
X150369046Y-90771428D01*
X150654760Y-90700000D01*
X150869046Y-90700000D01*
X151154760Y-90771428D01*
X151297617Y-90842857D01*
X151440474Y-90985714D01*
X151511903Y-91200000D01*
X151511903Y-91557142D01*
X148920237Y-94628571D02*
X147420237Y-94628571D01*
X147420237Y-94271428D01*
X147491666Y-94057142D01*
X147634523Y-93914285D01*
X147777380Y-93842857D01*
X148063094Y-93771428D01*
X148277380Y-93771428D01*
X148563094Y-93842857D01*
X148705951Y-93914285D01*
X148848808Y-94057142D01*
X148920237Y-94271428D01*
X148920237Y-94628571D01*
X148920237Y-93128571D02*
X147420237Y-93128571D01*
X148920237Y-92414285D02*
X147420237Y-92414285D01*
X148920237Y-91557142D01*
X147420237Y-91557142D01*
X144900000Y-93842857D02*
X144828571Y-93985714D01*
X144828571Y-94200000D01*
X144900000Y-94414285D01*
X145042857Y-94557142D01*
X145185714Y-94628571D01*
X145471428Y-94700000D01*
X145685714Y-94700000D01*
X145971428Y-94628571D01*
X146114285Y-94557142D01*
X146257142Y-94414285D01*
X146328571Y-94200000D01*
X146328571Y-94057142D01*
X146257142Y-93842857D01*
X146185714Y-93771428D01*
X145685714Y-93771428D01*
X145685714Y-94057142D01*
X146328571Y-93128571D02*
X144828571Y-93128571D01*
X146328571Y-92271428D01*
X144828571Y-92271428D01*
X146328571Y-91557142D02*
X144828571Y-91557142D01*
X144828571Y-91200000D01*
X144900000Y-90985714D01*
X145042857Y-90842857D01*
X145185714Y-90771428D01*
X145471428Y-90700000D01*
X145685714Y-90700000D01*
X145971428Y-90771428D01*
X146114285Y-90842857D01*
X146257142Y-90985714D01*
X146328571Y-91200000D01*
X146328571Y-91557142D01*
D11*
X154540000Y-87536400D02*
X154260600Y-87257000D01*
X154540000Y-88527000D02*
X154540000Y-87536400D01*
X154540000Y-89517600D02*
X154260600Y-89797000D01*
X154540000Y-88527000D02*
X154540000Y-89517600D01*
X154540000Y-88527000D02*
X154286000Y-88527000D01*
X144380000Y-89517600D02*
X144659400Y-89797000D01*
X144380000Y-88527000D02*
X144380000Y-89517600D01*
X144380000Y-87536400D02*
X144659400Y-87257000D01*
X144380000Y-88527000D02*
X144380000Y-87536400D01*
X144380000Y-88527000D02*
X144634000Y-88527000D01*
X152254000Y-88527000D02*
X151746000Y-88527000D01*
X149714000Y-88527000D02*
X149206000Y-88527000D01*
X147174000Y-88527000D02*
X146666000Y-88527000D01*
D12*
X158595000Y-93430000D02*
X158595000Y-93895000D01*
X158595000Y-90805000D02*
X158595000Y-91270000D01*
X163409479Y-93430429D02*
G75*
G02X158900316Y-93430000I-2254479J1080429D01*
G01*
X163409479Y-91269571D02*
G75*
G03X158900316Y-91270000I-2254479J-1080429D01*
G01*
X163942815Y-93430827D02*
G75*
G02X158595000Y-93894830I-2787815J1080827D01*
G01*
X163942815Y-91269173D02*
G75*
G03X158595000Y-90805170I-2787815J-1080827D01*
G01*
X133595000Y-93430000D02*
X133595000Y-93895000D01*
X133595000Y-90805000D02*
X133595000Y-91270000D01*
X138409479Y-93430429D02*
G75*
G02X133900316Y-93430000I-2254479J1080429D01*
G01*
X138409479Y-91269571D02*
G75*
G03X133900316Y-91270000I-2254479J-1080429D01*
G01*
X138942815Y-93430827D02*
G75*
G02X133595000Y-93894830I-2787815J1080827D01*
G01*
X138942815Y-91269173D02*
G75*
G03X133595000Y-90805170I-2787815J-1080827D01*
G01*
X108595000Y-93430000D02*
X108595000Y-93895000D01*
X108595000Y-90805000D02*
X108595000Y-91270000D01*
X113409479Y-93430429D02*
G75*
G02X108900316Y-93430000I-2254479J1080429D01*
G01*
X113409479Y-91269571D02*
G75*
G03X108900316Y-91270000I-2254479J-1080429D01*
G01*
X113942815Y-93430827D02*
G75*
G02X108595000Y-93894830I-2787815J1080827D01*
G01*
X113942815Y-91269173D02*
G75*
G03X108595000Y-90805170I-2787815J-1080827D01*
G01*
D13*
X145446800Y-85907171D02*
X145446800Y-86342600D01*
X145417771Y-86429685D01*
X145359714Y-86487742D01*
X145272628Y-86516771D01*
X145214571Y-86516771D01*
X146056400Y-86516771D02*
X145708057Y-86516771D01*
X145882228Y-86516771D02*
X145882228Y-85907171D01*
X145824171Y-85994257D01*
X145766114Y-86052314D01*
X145708057Y-86081342D01*
D14*
X160416904Y-88842380D02*
X160416904Y-87842380D01*
X160655000Y-87842380D01*
X160797857Y-87890000D01*
X160893095Y-87985238D01*
X160940714Y-88080476D01*
X160988333Y-88270952D01*
X160988333Y-88413809D01*
X160940714Y-88604285D01*
X160893095Y-88699523D01*
X160797857Y-88794761D01*
X160655000Y-88842380D01*
X160416904Y-88842380D01*
X161321666Y-87842380D02*
X161940714Y-87842380D01*
X161607380Y-88223333D01*
X161750238Y-88223333D01*
X161845476Y-88270952D01*
X161893095Y-88318571D01*
X161940714Y-88413809D01*
X161940714Y-88651904D01*
X161893095Y-88747142D01*
X161845476Y-88794761D01*
X161750238Y-88842380D01*
X161464523Y-88842380D01*
X161369285Y-88794761D01*
X161321666Y-88747142D01*
X135416904Y-88842380D02*
X135416904Y-87842380D01*
X135655000Y-87842380D01*
X135797857Y-87890000D01*
X135893095Y-87985238D01*
X135940714Y-88080476D01*
X135988333Y-88270952D01*
X135988333Y-88413809D01*
X135940714Y-88604285D01*
X135893095Y-88699523D01*
X135797857Y-88794761D01*
X135655000Y-88842380D01*
X135416904Y-88842380D01*
X136369285Y-87937619D02*
X136416904Y-87890000D01*
X136512142Y-87842380D01*
X136750238Y-87842380D01*
X136845476Y-87890000D01*
X136893095Y-87937619D01*
X136940714Y-88032857D01*
X136940714Y-88128095D01*
X136893095Y-88270952D01*
X136321666Y-88842380D01*
X136940714Y-88842380D01*
X110416904Y-88842380D02*
X110416904Y-87842380D01*
X110655000Y-87842380D01*
X110797857Y-87890000D01*
X110893095Y-87985238D01*
X110940714Y-88080476D01*
X110988333Y-88270952D01*
X110988333Y-88413809D01*
X110940714Y-88604285D01*
X110893095Y-88699523D01*
X110797857Y-88794761D01*
X110655000Y-88842380D01*
X110416904Y-88842380D01*
X111940714Y-88842380D02*
X111369285Y-88842380D01*
X111655000Y-88842380D02*
X111655000Y-87842380D01*
X111559761Y-87985238D01*
X111464523Y-88080476D01*
X111369285Y-88128095D01*
M02*
