G04 #@! TF.GenerationSoftware,KiCad,Pcbnew,(5.1.2)-2*
G04 #@! TF.CreationDate,2019-12-19T20:04:36-08:00*
G04 #@! TF.ProjectId,led_daughterboard,6c65645f-6461-4756-9768-746572626f61,rev?*
G04 #@! TF.SameCoordinates,Original*
G04 #@! TF.FileFunction,Legend,Bot*
G04 #@! TF.FilePolarity,Positive*
%FSLAX46Y46*%
G04 Gerber Fmt 4.6, Leading zero omitted, Abs format (unit mm)*
G04 Created by KiCad (PCBNEW (5.1.2)-2) date 2019-12-19 20:04:36*
%MOMM*%
%LPD*%
G04 APERTURE LIST*
%ADD10C,0.250000*%
G04 APERTURE END LIST*
D10*
X126708333Y-89757142D02*
X126755952Y-89804761D01*
X126898809Y-89852380D01*
X126994047Y-89852380D01*
X127136904Y-89804761D01*
X127232142Y-89709523D01*
X127279761Y-89614285D01*
X127327380Y-89423809D01*
X127327380Y-89280952D01*
X127279761Y-89090476D01*
X127232142Y-88995238D01*
X127136904Y-88900000D01*
X126994047Y-88852380D01*
X126898809Y-88852380D01*
X126755952Y-88900000D01*
X126708333Y-88947619D01*
X125708333Y-89757142D02*
X125755952Y-89804761D01*
X125898809Y-89852380D01*
X125994047Y-89852380D01*
X126136904Y-89804761D01*
X126232142Y-89709523D01*
X126279761Y-89614285D01*
X126327380Y-89423809D01*
X126327380Y-89280952D01*
X126279761Y-89090476D01*
X126232142Y-88995238D01*
X126136904Y-88900000D01*
X125994047Y-88852380D01*
X125898809Y-88852380D01*
X125755952Y-88900000D01*
X125708333Y-88947619D01*
X125279761Y-89471428D02*
X124517857Y-89471428D01*
X123708333Y-89328571D02*
X123565476Y-89376190D01*
X123517857Y-89423809D01*
X123470238Y-89519047D01*
X123470238Y-89661904D01*
X123517857Y-89757142D01*
X123565476Y-89804761D01*
X123660714Y-89852380D01*
X124041666Y-89852380D01*
X124041666Y-88852380D01*
X123708333Y-88852380D01*
X123613095Y-88900000D01*
X123565476Y-88947619D01*
X123517857Y-89042857D01*
X123517857Y-89138095D01*
X123565476Y-89233333D01*
X123613095Y-89280952D01*
X123708333Y-89328571D01*
X124041666Y-89328571D01*
X122851190Y-89376190D02*
X122851190Y-89852380D01*
X123184523Y-88852380D02*
X122851190Y-89376190D01*
X122517857Y-88852380D01*
X122184523Y-89471428D02*
X121422619Y-89471428D01*
X120994047Y-89804761D02*
X120851190Y-89852380D01*
X120613095Y-89852380D01*
X120517857Y-89804761D01*
X120470238Y-89757142D01*
X120422619Y-89661904D01*
X120422619Y-89566666D01*
X120470238Y-89471428D01*
X120517857Y-89423809D01*
X120613095Y-89376190D01*
X120803571Y-89328571D01*
X120898809Y-89280952D01*
X120946428Y-89233333D01*
X120994047Y-89138095D01*
X120994047Y-89042857D01*
X120946428Y-88947619D01*
X120898809Y-88900000D01*
X120803571Y-88852380D01*
X120565476Y-88852380D01*
X120422619Y-88900000D01*
X120041666Y-89566666D02*
X119565476Y-89566666D01*
X120136904Y-89852380D02*
X119803571Y-88852380D01*
X119470238Y-89852380D01*
X117946428Y-89185714D02*
X117946428Y-89852380D01*
X118184523Y-88804761D02*
X118422619Y-89519047D01*
X117803571Y-89519047D01*
X117422619Y-89757142D02*
X117375000Y-89804761D01*
X117422619Y-89852380D01*
X117470238Y-89804761D01*
X117422619Y-89757142D01*
X117422619Y-89852380D01*
X116755952Y-88852380D02*
X116660714Y-88852380D01*
X116565476Y-88900000D01*
X116517857Y-88947619D01*
X116470238Y-89042857D01*
X116422619Y-89233333D01*
X116422619Y-89471428D01*
X116470238Y-89661904D01*
X116517857Y-89757142D01*
X116565476Y-89804761D01*
X116660714Y-89852380D01*
X116755952Y-89852380D01*
X116851190Y-89804761D01*
X116898809Y-89757142D01*
X116946428Y-89661904D01*
X116994047Y-89471428D01*
X116994047Y-89233333D01*
X116946428Y-89042857D01*
X116898809Y-88947619D01*
X116851190Y-88900000D01*
X116755952Y-88852380D01*
X127613095Y-91316666D02*
X127136904Y-91316666D01*
X127708333Y-91602380D02*
X127375000Y-90602380D01*
X127041666Y-91602380D01*
X126565476Y-91602380D02*
X126660714Y-91554761D01*
X126708333Y-91459523D01*
X126708333Y-90602380D01*
X125803571Y-91554761D02*
X125898809Y-91602380D01*
X126089285Y-91602380D01*
X126184523Y-91554761D01*
X126232142Y-91459523D01*
X126232142Y-91078571D01*
X126184523Y-90983333D01*
X126089285Y-90935714D01*
X125898809Y-90935714D01*
X125803571Y-90983333D01*
X125755952Y-91078571D01*
X125755952Y-91173809D01*
X126232142Y-91269047D01*
X125470238Y-90935714D02*
X125089285Y-90935714D01*
X125327380Y-90602380D02*
X125327380Y-91459523D01*
X125279761Y-91554761D01*
X125184523Y-91602380D01*
X125089285Y-91602380D01*
X124755952Y-91602380D02*
X124755952Y-90602380D01*
X124327380Y-91602380D02*
X124327380Y-91078571D01*
X124375000Y-90983333D01*
X124470238Y-90935714D01*
X124613095Y-90935714D01*
X124708333Y-90983333D01*
X124755952Y-91030952D01*
X123470238Y-91554761D02*
X123565476Y-91602380D01*
X123755952Y-91602380D01*
X123851190Y-91554761D01*
X123898809Y-91459523D01*
X123898809Y-91078571D01*
X123851190Y-90983333D01*
X123755952Y-90935714D01*
X123565476Y-90935714D01*
X123470238Y-90983333D01*
X123422619Y-91078571D01*
X123422619Y-91173809D01*
X123898809Y-91269047D01*
X122565476Y-91602380D02*
X122565476Y-91078571D01*
X122613095Y-90983333D01*
X122708333Y-90935714D01*
X122898809Y-90935714D01*
X122994047Y-90983333D01*
X122565476Y-91554761D02*
X122660714Y-91602380D01*
X122898809Y-91602380D01*
X122994047Y-91554761D01*
X123041666Y-91459523D01*
X123041666Y-91364285D01*
X122994047Y-91269047D01*
X122898809Y-91221428D01*
X122660714Y-91221428D01*
X122565476Y-91173809D01*
X120994047Y-91078571D02*
X121327380Y-91078571D01*
X121327380Y-91602380D02*
X121327380Y-90602380D01*
X120851190Y-90602380D01*
X120327380Y-91602380D02*
X120422619Y-91554761D01*
X120470238Y-91459523D01*
X120470238Y-90602380D01*
X119803571Y-91602380D02*
X119898809Y-91554761D01*
X119946428Y-91507142D01*
X119994047Y-91411904D01*
X119994047Y-91126190D01*
X119946428Y-91030952D01*
X119898809Y-90983333D01*
X119803571Y-90935714D01*
X119660714Y-90935714D01*
X119565476Y-90983333D01*
X119517857Y-91030952D01*
X119470238Y-91126190D01*
X119470238Y-91411904D01*
X119517857Y-91507142D01*
X119565476Y-91554761D01*
X119660714Y-91602380D01*
X119803571Y-91602380D01*
X119136904Y-90935714D02*
X118946428Y-91602380D01*
X118755952Y-91126190D01*
X118565476Y-91602380D01*
X118375000Y-90935714D01*
X117613095Y-91554761D02*
X117708333Y-91602380D01*
X117898809Y-91602380D01*
X117994047Y-91554761D01*
X118041666Y-91459523D01*
X118041666Y-91078571D01*
X117994047Y-90983333D01*
X117898809Y-90935714D01*
X117708333Y-90935714D01*
X117613095Y-90983333D01*
X117565476Y-91078571D01*
X117565476Y-91173809D01*
X118041666Y-91269047D01*
X117136904Y-91602380D02*
X117136904Y-90935714D01*
X117136904Y-91126190D02*
X117089285Y-91030952D01*
X117041666Y-90983333D01*
X116946428Y-90935714D01*
X116851190Y-90935714D01*
X116565476Y-91554761D02*
X116470238Y-91602380D01*
X116279761Y-91602380D01*
X116184523Y-91554761D01*
X116136904Y-91459523D01*
X116136904Y-91411904D01*
X116184523Y-91316666D01*
X116279761Y-91269047D01*
X116422619Y-91269047D01*
X116517857Y-91221428D01*
X116565476Y-91126190D01*
X116565476Y-91078571D01*
X116517857Y-90983333D01*
X116422619Y-90935714D01*
X116279761Y-90935714D01*
X116184523Y-90983333D01*
X127827380Y-92685714D02*
X127589285Y-93352380D01*
X127351190Y-92685714D01*
X126779761Y-92352380D02*
X126684523Y-92352380D01*
X126589285Y-92400000D01*
X126541666Y-92447619D01*
X126494047Y-92542857D01*
X126446428Y-92733333D01*
X126446428Y-92971428D01*
X126494047Y-93161904D01*
X126541666Y-93257142D01*
X126589285Y-93304761D01*
X126684523Y-93352380D01*
X126779761Y-93352380D01*
X126875000Y-93304761D01*
X126922619Y-93257142D01*
X126970238Y-93161904D01*
X127017857Y-92971428D01*
X127017857Y-92733333D01*
X126970238Y-92542857D01*
X126922619Y-92447619D01*
X126875000Y-92400000D01*
X126779761Y-92352380D01*
X124732142Y-93352380D02*
X125303571Y-93352380D01*
X125017857Y-93352380D02*
X125017857Y-92352380D01*
X125113095Y-92495238D01*
X125208333Y-92590476D01*
X125303571Y-92638095D01*
X123779761Y-93352380D02*
X124351190Y-93352380D01*
X124065476Y-93352380D02*
X124065476Y-92352380D01*
X124160714Y-92495238D01*
X124255952Y-92590476D01*
X124351190Y-92638095D01*
X122636904Y-92304761D02*
X123494047Y-93590476D01*
X122351190Y-92447619D02*
X122303571Y-92400000D01*
X122208333Y-92352380D01*
X121970238Y-92352380D01*
X121875000Y-92400000D01*
X121827380Y-92447619D01*
X121779761Y-92542857D01*
X121779761Y-92638095D01*
X121827380Y-92780952D01*
X122398809Y-93352380D01*
X121779761Y-93352380D01*
X121446428Y-92352380D02*
X120827380Y-92352380D01*
X121160714Y-92733333D01*
X121017857Y-92733333D01*
X120922619Y-92780952D01*
X120875000Y-92828571D01*
X120827380Y-92923809D01*
X120827380Y-93161904D01*
X120875000Y-93257142D01*
X120922619Y-93304761D01*
X121017857Y-93352380D01*
X121303571Y-93352380D01*
X121398809Y-93304761D01*
X121446428Y-93257142D01*
X119684523Y-92304761D02*
X120541666Y-93590476D01*
X119398809Y-92447619D02*
X119351190Y-92400000D01*
X119255952Y-92352380D01*
X119017857Y-92352380D01*
X118922619Y-92400000D01*
X118875000Y-92447619D01*
X118827380Y-92542857D01*
X118827380Y-92638095D01*
X118875000Y-92780952D01*
X119446428Y-93352380D01*
X118827380Y-93352380D01*
X118208333Y-92352380D02*
X118113095Y-92352380D01*
X118017857Y-92400000D01*
X117970238Y-92447619D01*
X117922619Y-92542857D01*
X117875000Y-92733333D01*
X117875000Y-92971428D01*
X117922619Y-93161904D01*
X117970238Y-93257142D01*
X118017857Y-93304761D01*
X118113095Y-93352380D01*
X118208333Y-93352380D01*
X118303571Y-93304761D01*
X118351190Y-93257142D01*
X118398809Y-93161904D01*
X118446428Y-92971428D01*
X118446428Y-92733333D01*
X118398809Y-92542857D01*
X118351190Y-92447619D01*
X118303571Y-92400000D01*
X118208333Y-92352380D01*
X116922619Y-93352380D02*
X117494047Y-93352380D01*
X117208333Y-93352380D02*
X117208333Y-92352380D01*
X117303571Y-92495238D01*
X117398809Y-92590476D01*
X117494047Y-92638095D01*
X116446428Y-93352380D02*
X116255952Y-93352380D01*
X116160714Y-93304761D01*
X116113095Y-93257142D01*
X116017857Y-93114285D01*
X115970238Y-92923809D01*
X115970238Y-92542857D01*
X116017857Y-92447619D01*
X116065476Y-92400000D01*
X116160714Y-92352380D01*
X116351190Y-92352380D01*
X116446428Y-92400000D01*
X116494047Y-92447619D01*
X116541666Y-92542857D01*
X116541666Y-92780952D01*
X116494047Y-92876190D01*
X116446428Y-92923809D01*
X116351190Y-92971428D01*
X116160714Y-92971428D01*
X116065476Y-92923809D01*
X116017857Y-92876190D01*
X115970238Y-92780952D01*
X133660714Y-87752380D02*
X133660714Y-86752380D01*
X133327380Y-87466666D01*
X132994047Y-86752380D01*
X132994047Y-87752380D01*
X132375000Y-87752380D02*
X132470238Y-87704761D01*
X132517857Y-87657142D01*
X132565476Y-87561904D01*
X132565476Y-87276190D01*
X132517857Y-87180952D01*
X132470238Y-87133333D01*
X132375000Y-87085714D01*
X132232142Y-87085714D01*
X132136904Y-87133333D01*
X132089285Y-87180952D01*
X132041666Y-87276190D01*
X132041666Y-87561904D01*
X132089285Y-87657142D01*
X132136904Y-87704761D01*
X132232142Y-87752380D01*
X132375000Y-87752380D01*
X131184523Y-87752380D02*
X131184523Y-86752380D01*
X131184523Y-87704761D02*
X131279761Y-87752380D01*
X131470238Y-87752380D01*
X131565476Y-87704761D01*
X131613095Y-87657142D01*
X131660714Y-87561904D01*
X131660714Y-87276190D01*
X131613095Y-87180952D01*
X131565476Y-87133333D01*
X131470238Y-87085714D01*
X131279761Y-87085714D01*
X131184523Y-87133333D01*
X130327380Y-87704761D02*
X130422619Y-87752380D01*
X130613095Y-87752380D01*
X130708333Y-87704761D01*
X130755952Y-87609523D01*
X130755952Y-87228571D01*
X130708333Y-87133333D01*
X130613095Y-87085714D01*
X130422619Y-87085714D01*
X130327380Y-87133333D01*
X130279761Y-87228571D01*
X130279761Y-87323809D01*
X130755952Y-87419047D01*
X129708333Y-87752380D02*
X129803571Y-87704761D01*
X129851190Y-87609523D01*
X129851190Y-86752380D01*
X128565476Y-87752380D02*
X128565476Y-86752380D01*
X128232142Y-87466666D01*
X127898809Y-86752380D01*
X127898809Y-87752380D01*
X126660714Y-87752380D02*
X126660714Y-86752380D01*
X126089285Y-87752380D01*
X126089285Y-86752380D01*
X125232142Y-87704761D02*
X125327380Y-87752380D01*
X125517857Y-87752380D01*
X125613095Y-87704761D01*
X125660714Y-87609523D01*
X125660714Y-87228571D01*
X125613095Y-87133333D01*
X125517857Y-87085714D01*
X125327380Y-87085714D01*
X125232142Y-87133333D01*
X125184523Y-87228571D01*
X125184523Y-87323809D01*
X125660714Y-87419047D01*
X124613095Y-87752380D02*
X124708333Y-87704761D01*
X124755952Y-87657142D01*
X124803571Y-87561904D01*
X124803571Y-87276190D01*
X124755952Y-87180952D01*
X124708333Y-87133333D01*
X124613095Y-87085714D01*
X124470238Y-87085714D01*
X124375000Y-87133333D01*
X124327380Y-87180952D01*
X124279761Y-87276190D01*
X124279761Y-87561904D01*
X124327380Y-87657142D01*
X124375000Y-87704761D01*
X124470238Y-87752380D01*
X124613095Y-87752380D01*
X123851190Y-87085714D02*
X123851190Y-88085714D01*
X123851190Y-87133333D02*
X123755952Y-87085714D01*
X123565476Y-87085714D01*
X123470238Y-87133333D01*
X123422619Y-87180952D01*
X123375000Y-87276190D01*
X123375000Y-87561904D01*
X123422619Y-87657142D01*
X123470238Y-87704761D01*
X123565476Y-87752380D01*
X123755952Y-87752380D01*
X123851190Y-87704761D01*
X122946428Y-87752380D02*
X122946428Y-87085714D01*
X122946428Y-86752380D02*
X122994047Y-86800000D01*
X122946428Y-86847619D01*
X122898809Y-86800000D01*
X122946428Y-86752380D01*
X122946428Y-86847619D01*
X122565476Y-87752380D02*
X122041666Y-87085714D01*
X122565476Y-87085714D02*
X122041666Y-87752380D01*
X121279761Y-87704761D02*
X121375000Y-87752380D01*
X121565476Y-87752380D01*
X121660714Y-87704761D01*
X121708333Y-87609523D01*
X121708333Y-87228571D01*
X121660714Y-87133333D01*
X121565476Y-87085714D01*
X121375000Y-87085714D01*
X121279761Y-87133333D01*
X121232142Y-87228571D01*
X121232142Y-87323809D01*
X121708333Y-87419047D01*
X120660714Y-87752380D02*
X120755952Y-87704761D01*
X120803571Y-87609523D01*
X120803571Y-86752380D01*
X119517857Y-87752380D02*
X119517857Y-86752380D01*
X119279761Y-86752380D01*
X119136904Y-86800000D01*
X119041666Y-86895238D01*
X118994047Y-86990476D01*
X118946428Y-87180952D01*
X118946428Y-87323809D01*
X118994047Y-87514285D01*
X119041666Y-87609523D01*
X119136904Y-87704761D01*
X119279761Y-87752380D01*
X119517857Y-87752380D01*
X118089285Y-87752380D02*
X118089285Y-87228571D01*
X118136904Y-87133333D01*
X118232142Y-87085714D01*
X118422619Y-87085714D01*
X118517857Y-87133333D01*
X118089285Y-87704761D02*
X118184523Y-87752380D01*
X118422619Y-87752380D01*
X118517857Y-87704761D01*
X118565476Y-87609523D01*
X118565476Y-87514285D01*
X118517857Y-87419047D01*
X118422619Y-87371428D01*
X118184523Y-87371428D01*
X118089285Y-87323809D01*
X117184523Y-87085714D02*
X117184523Y-87752380D01*
X117613095Y-87085714D02*
X117613095Y-87609523D01*
X117565476Y-87704761D01*
X117470238Y-87752380D01*
X117327380Y-87752380D01*
X117232142Y-87704761D01*
X117184523Y-87657142D01*
X116279761Y-87085714D02*
X116279761Y-87895238D01*
X116327380Y-87990476D01*
X116375000Y-88038095D01*
X116470238Y-88085714D01*
X116613095Y-88085714D01*
X116708333Y-88038095D01*
X116279761Y-87704761D02*
X116375000Y-87752380D01*
X116565476Y-87752380D01*
X116660714Y-87704761D01*
X116708333Y-87657142D01*
X116755952Y-87561904D01*
X116755952Y-87276190D01*
X116708333Y-87180952D01*
X116660714Y-87133333D01*
X116565476Y-87085714D01*
X116375000Y-87085714D01*
X116279761Y-87133333D01*
X115803571Y-87752380D02*
X115803571Y-86752380D01*
X115375000Y-87752380D02*
X115375000Y-87228571D01*
X115422619Y-87133333D01*
X115517857Y-87085714D01*
X115660714Y-87085714D01*
X115755952Y-87133333D01*
X115803571Y-87180952D01*
X115041666Y-87085714D02*
X114660714Y-87085714D01*
X114898809Y-86752380D02*
X114898809Y-87609523D01*
X114851190Y-87704761D01*
X114755952Y-87752380D01*
X114660714Y-87752380D01*
X113946428Y-87704761D02*
X114041666Y-87752380D01*
X114232142Y-87752380D01*
X114327380Y-87704761D01*
X114375000Y-87609523D01*
X114375000Y-87228571D01*
X114327380Y-87133333D01*
X114232142Y-87085714D01*
X114041666Y-87085714D01*
X113946428Y-87133333D01*
X113898809Y-87228571D01*
X113898809Y-87323809D01*
X114375000Y-87419047D01*
X113470238Y-87752380D02*
X113470238Y-87085714D01*
X113470238Y-87276190D02*
X113422619Y-87180952D01*
X113375000Y-87133333D01*
X113279761Y-87085714D01*
X113184523Y-87085714D01*
X112851190Y-87752380D02*
X112851190Y-86752380D01*
X112851190Y-87133333D02*
X112755952Y-87085714D01*
X112565476Y-87085714D01*
X112470238Y-87133333D01*
X112422619Y-87180952D01*
X112375000Y-87276190D01*
X112375000Y-87561904D01*
X112422619Y-87657142D01*
X112470238Y-87704761D01*
X112565476Y-87752380D01*
X112755952Y-87752380D01*
X112851190Y-87704761D01*
X111803571Y-87752380D02*
X111898809Y-87704761D01*
X111946428Y-87657142D01*
X111994047Y-87561904D01*
X111994047Y-87276190D01*
X111946428Y-87180952D01*
X111898809Y-87133333D01*
X111803571Y-87085714D01*
X111660714Y-87085714D01*
X111565476Y-87133333D01*
X111517857Y-87180952D01*
X111470238Y-87276190D01*
X111470238Y-87561904D01*
X111517857Y-87657142D01*
X111565476Y-87704761D01*
X111660714Y-87752380D01*
X111803571Y-87752380D01*
X110613095Y-87752380D02*
X110613095Y-87228571D01*
X110660714Y-87133333D01*
X110755952Y-87085714D01*
X110946428Y-87085714D01*
X111041666Y-87133333D01*
X110613095Y-87704761D02*
X110708333Y-87752380D01*
X110946428Y-87752380D01*
X111041666Y-87704761D01*
X111089285Y-87609523D01*
X111089285Y-87514285D01*
X111041666Y-87419047D01*
X110946428Y-87371428D01*
X110708333Y-87371428D01*
X110613095Y-87323809D01*
X110136904Y-87752380D02*
X110136904Y-87085714D01*
X110136904Y-87276190D02*
X110089285Y-87180952D01*
X110041666Y-87133333D01*
X109946428Y-87085714D01*
X109851190Y-87085714D01*
X109089285Y-87752380D02*
X109089285Y-86752380D01*
X109089285Y-87704761D02*
X109184523Y-87752380D01*
X109375000Y-87752380D01*
X109470238Y-87704761D01*
X109517857Y-87657142D01*
X109565476Y-87561904D01*
X109565476Y-87276190D01*
X109517857Y-87180952D01*
X109470238Y-87133333D01*
X109375000Y-87085714D01*
X109184523Y-87085714D01*
X109089285Y-87133333D01*
M02*
