G04 #@! TF.GenerationSoftware,KiCad,Pcbnew,(5.1.2)-2*
G04 #@! TF.CreationDate,2019-12-19T20:04:36-08:00*
G04 #@! TF.ProjectId,led_daughterboard,6c65645f-6461-4756-9768-746572626f61,rev?*
G04 #@! TF.SameCoordinates,Original*
G04 #@! TF.FileFunction,Soldermask,Bot*
G04 #@! TF.FilePolarity,Negative*
%FSLAX46Y46*%
G04 Gerber Fmt 4.6, Leading zero omitted, Abs format (unit mm)*
G04 Created by KiCad (PCBNEW (5.1.2)-2) date 2019-12-19 20:04:36*
%MOMM*%
%LPD*%
G04 APERTURE LIST*
%ADD10C,0.100000*%
G04 APERTURE END LIST*
D10*
G36*
X113174875Y-91407479D02*
G01*
X113248516Y-91429818D01*
X113285337Y-91440987D01*
X113387139Y-91495402D01*
X113444227Y-91542253D01*
X113476369Y-91568631D01*
X113549598Y-91657861D01*
X113549599Y-91657863D01*
X113604013Y-91759662D01*
X113604524Y-91761347D01*
X113637521Y-91870124D01*
X113646000Y-91956215D01*
X113646000Y-92743785D01*
X113637521Y-92829876D01*
X113615182Y-92903517D01*
X113604013Y-92940338D01*
X113549598Y-93042140D01*
X113476370Y-93131370D01*
X113387140Y-93204598D01*
X113285338Y-93259013D01*
X113248517Y-93270182D01*
X113174876Y-93292521D01*
X113060000Y-93303835D01*
X112945125Y-93292521D01*
X112871484Y-93270182D01*
X112834663Y-93259013D01*
X112732861Y-93204598D01*
X112643631Y-93131370D01*
X112570402Y-93042138D01*
X112535240Y-92976355D01*
X112521627Y-92955980D01*
X112504300Y-92938653D01*
X112483925Y-92925040D01*
X112461286Y-92915662D01*
X112437253Y-92910882D01*
X112412749Y-92910882D01*
X112388716Y-92915662D01*
X112366077Y-92925040D01*
X112345702Y-92938653D01*
X112328375Y-92955980D01*
X112314762Y-92976354D01*
X112279598Y-93042140D01*
X112206370Y-93131370D01*
X112117140Y-93204598D01*
X112015338Y-93259013D01*
X111978517Y-93270182D01*
X111904876Y-93292521D01*
X111790000Y-93303835D01*
X111675125Y-93292521D01*
X111601484Y-93270182D01*
X111564663Y-93259013D01*
X111462861Y-93204598D01*
X111373631Y-93131370D01*
X111300402Y-93042138D01*
X111265240Y-92976355D01*
X111251627Y-92955980D01*
X111234300Y-92938653D01*
X111213925Y-92925040D01*
X111191286Y-92915662D01*
X111167253Y-92910882D01*
X111142749Y-92910882D01*
X111118716Y-92915662D01*
X111096077Y-92925040D01*
X111075702Y-92938653D01*
X111058375Y-92955980D01*
X111044762Y-92976354D01*
X111009598Y-93042140D01*
X110936370Y-93131370D01*
X110847140Y-93204598D01*
X110745338Y-93259013D01*
X110708517Y-93270182D01*
X110634876Y-93292521D01*
X110520000Y-93303835D01*
X110405125Y-93292521D01*
X110331484Y-93270182D01*
X110294663Y-93259013D01*
X110192861Y-93204598D01*
X110103631Y-93131370D01*
X110057625Y-93075310D01*
X110040298Y-93057983D01*
X110019924Y-93044369D01*
X109997285Y-93034992D01*
X109973252Y-93030211D01*
X109948748Y-93030211D01*
X109924714Y-93034991D01*
X109902076Y-93044368D01*
X109881701Y-93057982D01*
X109864374Y-93075309D01*
X109850760Y-93095683D01*
X109841383Y-93118322D01*
X109836602Y-93142355D01*
X109836000Y-93154608D01*
X109836000Y-93301000D01*
X108664000Y-93301000D01*
X108664000Y-91399000D01*
X109836000Y-91399000D01*
X109836000Y-91545392D01*
X109838402Y-91569778D01*
X109845515Y-91593227D01*
X109857066Y-91614838D01*
X109872611Y-91633780D01*
X109891553Y-91649325D01*
X109913164Y-91660876D01*
X109936613Y-91667989D01*
X109960999Y-91670391D01*
X109985385Y-91667989D01*
X110008834Y-91660876D01*
X110030445Y-91649325D01*
X110049387Y-91633780D01*
X110057625Y-91624690D01*
X110103629Y-91568634D01*
X110103631Y-91568631D01*
X110192861Y-91495402D01*
X110204507Y-91489177D01*
X110294662Y-91440987D01*
X110331483Y-91429818D01*
X110405124Y-91407479D01*
X110520000Y-91396165D01*
X110634875Y-91407479D01*
X110708516Y-91429818D01*
X110745337Y-91440987D01*
X110847139Y-91495402D01*
X110904227Y-91542253D01*
X110936369Y-91568631D01*
X111009598Y-91657861D01*
X111009601Y-91657865D01*
X111044761Y-91723645D01*
X111058374Y-91744020D01*
X111075701Y-91761347D01*
X111096076Y-91774960D01*
X111118715Y-91784338D01*
X111142748Y-91789118D01*
X111167252Y-91789118D01*
X111191285Y-91784338D01*
X111213924Y-91774960D01*
X111234299Y-91761347D01*
X111251626Y-91744020D01*
X111265239Y-91723646D01*
X111300402Y-91657861D01*
X111373629Y-91568634D01*
X111373631Y-91568631D01*
X111462861Y-91495402D01*
X111474507Y-91489177D01*
X111564662Y-91440987D01*
X111601483Y-91429818D01*
X111675124Y-91407479D01*
X111790000Y-91396165D01*
X111904875Y-91407479D01*
X111978516Y-91429818D01*
X112015337Y-91440987D01*
X112117139Y-91495402D01*
X112174227Y-91542253D01*
X112206369Y-91568631D01*
X112279598Y-91657861D01*
X112279601Y-91657865D01*
X112314761Y-91723645D01*
X112328374Y-91744020D01*
X112345701Y-91761347D01*
X112366076Y-91774960D01*
X112388715Y-91784338D01*
X112412748Y-91789118D01*
X112437252Y-91789118D01*
X112461285Y-91784338D01*
X112483924Y-91774960D01*
X112504299Y-91761347D01*
X112521626Y-91744020D01*
X112535239Y-91723646D01*
X112570402Y-91657861D01*
X112643629Y-91568634D01*
X112643631Y-91568631D01*
X112732861Y-91495402D01*
X112744507Y-91489177D01*
X112834662Y-91440987D01*
X112871483Y-91429818D01*
X112945124Y-91407479D01*
X113060000Y-91396165D01*
X113174875Y-91407479D01*
X113174875Y-91407479D01*
G37*
G36*
X138174875Y-91407479D02*
G01*
X138248516Y-91429818D01*
X138285337Y-91440987D01*
X138387139Y-91495402D01*
X138444227Y-91542253D01*
X138476369Y-91568631D01*
X138549598Y-91657861D01*
X138549599Y-91657863D01*
X138604013Y-91759662D01*
X138604524Y-91761347D01*
X138637521Y-91870124D01*
X138646000Y-91956215D01*
X138646000Y-92743785D01*
X138637521Y-92829876D01*
X138615182Y-92903517D01*
X138604013Y-92940338D01*
X138549598Y-93042140D01*
X138476370Y-93131370D01*
X138387140Y-93204598D01*
X138285338Y-93259013D01*
X138248517Y-93270182D01*
X138174876Y-93292521D01*
X138060000Y-93303835D01*
X137945125Y-93292521D01*
X137871484Y-93270182D01*
X137834663Y-93259013D01*
X137732861Y-93204598D01*
X137643631Y-93131370D01*
X137570402Y-93042138D01*
X137535240Y-92976355D01*
X137521627Y-92955980D01*
X137504300Y-92938653D01*
X137483925Y-92925040D01*
X137461286Y-92915662D01*
X137437253Y-92910882D01*
X137412749Y-92910882D01*
X137388716Y-92915662D01*
X137366077Y-92925040D01*
X137345702Y-92938653D01*
X137328375Y-92955980D01*
X137314762Y-92976354D01*
X137279598Y-93042140D01*
X137206370Y-93131370D01*
X137117140Y-93204598D01*
X137015338Y-93259013D01*
X136978517Y-93270182D01*
X136904876Y-93292521D01*
X136790000Y-93303835D01*
X136675125Y-93292521D01*
X136601484Y-93270182D01*
X136564663Y-93259013D01*
X136462861Y-93204598D01*
X136373631Y-93131370D01*
X136300402Y-93042138D01*
X136265240Y-92976355D01*
X136251627Y-92955980D01*
X136234300Y-92938653D01*
X136213925Y-92925040D01*
X136191286Y-92915662D01*
X136167253Y-92910882D01*
X136142749Y-92910882D01*
X136118716Y-92915662D01*
X136096077Y-92925040D01*
X136075702Y-92938653D01*
X136058375Y-92955980D01*
X136044762Y-92976354D01*
X136009598Y-93042140D01*
X135936370Y-93131370D01*
X135847140Y-93204598D01*
X135745338Y-93259013D01*
X135708517Y-93270182D01*
X135634876Y-93292521D01*
X135520000Y-93303835D01*
X135405125Y-93292521D01*
X135331484Y-93270182D01*
X135294663Y-93259013D01*
X135192861Y-93204598D01*
X135103631Y-93131370D01*
X135057625Y-93075310D01*
X135040298Y-93057983D01*
X135019924Y-93044369D01*
X134997285Y-93034992D01*
X134973252Y-93030211D01*
X134948748Y-93030211D01*
X134924714Y-93034991D01*
X134902076Y-93044368D01*
X134881701Y-93057982D01*
X134864374Y-93075309D01*
X134850760Y-93095683D01*
X134841383Y-93118322D01*
X134836602Y-93142355D01*
X134836000Y-93154608D01*
X134836000Y-93301000D01*
X133664000Y-93301000D01*
X133664000Y-91399000D01*
X134836000Y-91399000D01*
X134836000Y-91545392D01*
X134838402Y-91569778D01*
X134845515Y-91593227D01*
X134857066Y-91614838D01*
X134872611Y-91633780D01*
X134891553Y-91649325D01*
X134913164Y-91660876D01*
X134936613Y-91667989D01*
X134960999Y-91670391D01*
X134985385Y-91667989D01*
X135008834Y-91660876D01*
X135030445Y-91649325D01*
X135049387Y-91633780D01*
X135057625Y-91624690D01*
X135103629Y-91568634D01*
X135103631Y-91568631D01*
X135192861Y-91495402D01*
X135204507Y-91489177D01*
X135294662Y-91440987D01*
X135331483Y-91429818D01*
X135405124Y-91407479D01*
X135520000Y-91396165D01*
X135634875Y-91407479D01*
X135708516Y-91429818D01*
X135745337Y-91440987D01*
X135847139Y-91495402D01*
X135904227Y-91542253D01*
X135936369Y-91568631D01*
X136009598Y-91657861D01*
X136009601Y-91657865D01*
X136044761Y-91723645D01*
X136058374Y-91744020D01*
X136075701Y-91761347D01*
X136096076Y-91774960D01*
X136118715Y-91784338D01*
X136142748Y-91789118D01*
X136167252Y-91789118D01*
X136191285Y-91784338D01*
X136213924Y-91774960D01*
X136234299Y-91761347D01*
X136251626Y-91744020D01*
X136265239Y-91723646D01*
X136300402Y-91657861D01*
X136373629Y-91568634D01*
X136373631Y-91568631D01*
X136462861Y-91495402D01*
X136474507Y-91489177D01*
X136564662Y-91440987D01*
X136601483Y-91429818D01*
X136675124Y-91407479D01*
X136790000Y-91396165D01*
X136904875Y-91407479D01*
X136978516Y-91429818D01*
X137015337Y-91440987D01*
X137117139Y-91495402D01*
X137174227Y-91542253D01*
X137206369Y-91568631D01*
X137279598Y-91657861D01*
X137279601Y-91657865D01*
X137314761Y-91723645D01*
X137328374Y-91744020D01*
X137345701Y-91761347D01*
X137366076Y-91774960D01*
X137388715Y-91784338D01*
X137412748Y-91789118D01*
X137437252Y-91789118D01*
X137461285Y-91784338D01*
X137483924Y-91774960D01*
X137504299Y-91761347D01*
X137521626Y-91744020D01*
X137535239Y-91723646D01*
X137570402Y-91657861D01*
X137643629Y-91568634D01*
X137643631Y-91568631D01*
X137732861Y-91495402D01*
X137744507Y-91489177D01*
X137834662Y-91440987D01*
X137871483Y-91429818D01*
X137945124Y-91407479D01*
X138060000Y-91396165D01*
X138174875Y-91407479D01*
X138174875Y-91407479D01*
G37*
G36*
X163174875Y-91407479D02*
G01*
X163248516Y-91429818D01*
X163285337Y-91440987D01*
X163387139Y-91495402D01*
X163444227Y-91542253D01*
X163476369Y-91568631D01*
X163549598Y-91657861D01*
X163549599Y-91657863D01*
X163604013Y-91759662D01*
X163604524Y-91761347D01*
X163637521Y-91870124D01*
X163646000Y-91956215D01*
X163646000Y-92743785D01*
X163637521Y-92829876D01*
X163615182Y-92903517D01*
X163604013Y-92940338D01*
X163549598Y-93042140D01*
X163476370Y-93131370D01*
X163387140Y-93204598D01*
X163285338Y-93259013D01*
X163248517Y-93270182D01*
X163174876Y-93292521D01*
X163060000Y-93303835D01*
X162945125Y-93292521D01*
X162871484Y-93270182D01*
X162834663Y-93259013D01*
X162732861Y-93204598D01*
X162643631Y-93131370D01*
X162570402Y-93042138D01*
X162535240Y-92976355D01*
X162521627Y-92955980D01*
X162504300Y-92938653D01*
X162483925Y-92925040D01*
X162461286Y-92915662D01*
X162437253Y-92910882D01*
X162412749Y-92910882D01*
X162388716Y-92915662D01*
X162366077Y-92925040D01*
X162345702Y-92938653D01*
X162328375Y-92955980D01*
X162314762Y-92976354D01*
X162279598Y-93042140D01*
X162206370Y-93131370D01*
X162117140Y-93204598D01*
X162015338Y-93259013D01*
X161978517Y-93270182D01*
X161904876Y-93292521D01*
X161790000Y-93303835D01*
X161675125Y-93292521D01*
X161601484Y-93270182D01*
X161564663Y-93259013D01*
X161462861Y-93204598D01*
X161373631Y-93131370D01*
X161300402Y-93042138D01*
X161265240Y-92976355D01*
X161251627Y-92955980D01*
X161234300Y-92938653D01*
X161213925Y-92925040D01*
X161191286Y-92915662D01*
X161167253Y-92910882D01*
X161142749Y-92910882D01*
X161118716Y-92915662D01*
X161096077Y-92925040D01*
X161075702Y-92938653D01*
X161058375Y-92955980D01*
X161044762Y-92976354D01*
X161009598Y-93042140D01*
X160936370Y-93131370D01*
X160847140Y-93204598D01*
X160745338Y-93259013D01*
X160708517Y-93270182D01*
X160634876Y-93292521D01*
X160520000Y-93303835D01*
X160405125Y-93292521D01*
X160331484Y-93270182D01*
X160294663Y-93259013D01*
X160192861Y-93204598D01*
X160103631Y-93131370D01*
X160057625Y-93075310D01*
X160040298Y-93057983D01*
X160019924Y-93044369D01*
X159997285Y-93034992D01*
X159973252Y-93030211D01*
X159948748Y-93030211D01*
X159924714Y-93034991D01*
X159902076Y-93044368D01*
X159881701Y-93057982D01*
X159864374Y-93075309D01*
X159850760Y-93095683D01*
X159841383Y-93118322D01*
X159836602Y-93142355D01*
X159836000Y-93154608D01*
X159836000Y-93301000D01*
X158664000Y-93301000D01*
X158664000Y-91399000D01*
X159836000Y-91399000D01*
X159836000Y-91545392D01*
X159838402Y-91569778D01*
X159845515Y-91593227D01*
X159857066Y-91614838D01*
X159872611Y-91633780D01*
X159891553Y-91649325D01*
X159913164Y-91660876D01*
X159936613Y-91667989D01*
X159960999Y-91670391D01*
X159985385Y-91667989D01*
X160008834Y-91660876D01*
X160030445Y-91649325D01*
X160049387Y-91633780D01*
X160057625Y-91624690D01*
X160103629Y-91568634D01*
X160103631Y-91568631D01*
X160192861Y-91495402D01*
X160204507Y-91489177D01*
X160294662Y-91440987D01*
X160331483Y-91429818D01*
X160405124Y-91407479D01*
X160520000Y-91396165D01*
X160634875Y-91407479D01*
X160708516Y-91429818D01*
X160745337Y-91440987D01*
X160847139Y-91495402D01*
X160904227Y-91542253D01*
X160936369Y-91568631D01*
X161009598Y-91657861D01*
X161009601Y-91657865D01*
X161044761Y-91723645D01*
X161058374Y-91744020D01*
X161075701Y-91761347D01*
X161096076Y-91774960D01*
X161118715Y-91784338D01*
X161142748Y-91789118D01*
X161167252Y-91789118D01*
X161191285Y-91784338D01*
X161213924Y-91774960D01*
X161234299Y-91761347D01*
X161251626Y-91744020D01*
X161265239Y-91723646D01*
X161300402Y-91657861D01*
X161373629Y-91568634D01*
X161373631Y-91568631D01*
X161462861Y-91495402D01*
X161474507Y-91489177D01*
X161564662Y-91440987D01*
X161601483Y-91429818D01*
X161675124Y-91407479D01*
X161790000Y-91396165D01*
X161904875Y-91407479D01*
X161978516Y-91429818D01*
X162015337Y-91440987D01*
X162117139Y-91495402D01*
X162174227Y-91542253D01*
X162206369Y-91568631D01*
X162279598Y-91657861D01*
X162279601Y-91657865D01*
X162314761Y-91723645D01*
X162328374Y-91744020D01*
X162345701Y-91761347D01*
X162366076Y-91774960D01*
X162388715Y-91784338D01*
X162412748Y-91789118D01*
X162437252Y-91789118D01*
X162461285Y-91784338D01*
X162483924Y-91774960D01*
X162504299Y-91761347D01*
X162521626Y-91744020D01*
X162535239Y-91723646D01*
X162570402Y-91657861D01*
X162643629Y-91568634D01*
X162643631Y-91568631D01*
X162732861Y-91495402D01*
X162744507Y-91489177D01*
X162834662Y-91440987D01*
X162871483Y-91429818D01*
X162945124Y-91407479D01*
X163060000Y-91396165D01*
X163174875Y-91407479D01*
X163174875Y-91407479D01*
G37*
G36*
X148359295Y-87040896D02*
G01*
X148522084Y-87090278D01*
X148522087Y-87090279D01*
X148672107Y-87170466D01*
X148672108Y-87170467D01*
X148672112Y-87170469D01*
X148803612Y-87278388D01*
X148911531Y-87409888D01*
X148911533Y-87409892D01*
X148911534Y-87409893D01*
X148991721Y-87559913D01*
X148991722Y-87559916D01*
X149041104Y-87722705D01*
X149053600Y-87849580D01*
X149053600Y-89458420D01*
X149041104Y-89585295D01*
X148991722Y-89748083D01*
X148991721Y-89748087D01*
X148919325Y-89883531D01*
X148911531Y-89898112D01*
X148803612Y-90029612D01*
X148672111Y-90137531D01*
X148672107Y-90137534D01*
X148522087Y-90217721D01*
X148479726Y-90230571D01*
X148359294Y-90267104D01*
X148190000Y-90283778D01*
X148020705Y-90267104D01*
X147857916Y-90217722D01*
X147857913Y-90217721D01*
X147707893Y-90137534D01*
X147707892Y-90137533D01*
X147707888Y-90137531D01*
X147576388Y-90029612D01*
X147468469Y-89898111D01*
X147468468Y-89898110D01*
X147468466Y-89898107D01*
X147388279Y-89748087D01*
X147375429Y-89705726D01*
X147338896Y-89585294D01*
X147326400Y-89458419D01*
X147326401Y-87849580D01*
X147338897Y-87722705D01*
X147388279Y-87559916D01*
X147388280Y-87559913D01*
X147468467Y-87409893D01*
X147468468Y-87409892D01*
X147468470Y-87409888D01*
X147576389Y-87278388D01*
X147707889Y-87170469D01*
X147707893Y-87170467D01*
X147707894Y-87170466D01*
X147857914Y-87090279D01*
X147857917Y-87090278D01*
X148020706Y-87040896D01*
X148190000Y-87024222D01*
X148359295Y-87040896D01*
X148359295Y-87040896D01*
G37*
G36*
X153439295Y-87040896D02*
G01*
X153602084Y-87090278D01*
X153602087Y-87090279D01*
X153752107Y-87170466D01*
X153752108Y-87170467D01*
X153752112Y-87170469D01*
X153883612Y-87278388D01*
X153991531Y-87409888D01*
X153991533Y-87409892D01*
X153991534Y-87409893D01*
X154071721Y-87559913D01*
X154071722Y-87559916D01*
X154121104Y-87722705D01*
X154133600Y-87849580D01*
X154133600Y-89458420D01*
X154121104Y-89585295D01*
X154071722Y-89748083D01*
X154071721Y-89748087D01*
X153999325Y-89883531D01*
X153991531Y-89898112D01*
X153883612Y-90029612D01*
X153752111Y-90137531D01*
X153752107Y-90137534D01*
X153602087Y-90217721D01*
X153559726Y-90230571D01*
X153439294Y-90267104D01*
X153270000Y-90283778D01*
X153100705Y-90267104D01*
X152937916Y-90217722D01*
X152937913Y-90217721D01*
X152787893Y-90137534D01*
X152787892Y-90137533D01*
X152787888Y-90137531D01*
X152656388Y-90029612D01*
X152548469Y-89898111D01*
X152548468Y-89898110D01*
X152548466Y-89898107D01*
X152468279Y-89748087D01*
X152455429Y-89705726D01*
X152418896Y-89585294D01*
X152406400Y-89458419D01*
X152406401Y-87849580D01*
X152418897Y-87722705D01*
X152468279Y-87559916D01*
X152468280Y-87559913D01*
X152548467Y-87409893D01*
X152548468Y-87409892D01*
X152548470Y-87409888D01*
X152656389Y-87278388D01*
X152787889Y-87170469D01*
X152787893Y-87170467D01*
X152787894Y-87170466D01*
X152937914Y-87090279D01*
X152937917Y-87090278D01*
X153100706Y-87040896D01*
X153270000Y-87024222D01*
X153439295Y-87040896D01*
X153439295Y-87040896D01*
G37*
G36*
X145819295Y-86786896D02*
G01*
X145982084Y-86836278D01*
X145982087Y-86836279D01*
X146132107Y-86916466D01*
X146132108Y-86916467D01*
X146132112Y-86916469D01*
X146263612Y-87024388D01*
X146371531Y-87155888D01*
X146371533Y-87155892D01*
X146371534Y-87155893D01*
X146451721Y-87305913D01*
X146451722Y-87305916D01*
X146501104Y-87468705D01*
X146513600Y-87595580D01*
X146513600Y-89204420D01*
X146501104Y-89331295D01*
X146462540Y-89458421D01*
X146451721Y-89494087D01*
X146371534Y-89644107D01*
X146371531Y-89644112D01*
X146263612Y-89775612D01*
X146132111Y-89883531D01*
X146132107Y-89883534D01*
X145982087Y-89963721D01*
X145939726Y-89976571D01*
X145819294Y-90013104D01*
X145650000Y-90029778D01*
X145480705Y-90013104D01*
X145317916Y-89963722D01*
X145317913Y-89963721D01*
X145167893Y-89883534D01*
X145167892Y-89883533D01*
X145167888Y-89883531D01*
X145036388Y-89775612D01*
X144928469Y-89644111D01*
X144928468Y-89644110D01*
X144928466Y-89644107D01*
X144848279Y-89494087D01*
X144835429Y-89451726D01*
X144798896Y-89331294D01*
X144786400Y-89204419D01*
X144786401Y-87595580D01*
X144798897Y-87468705D01*
X144848279Y-87305916D01*
X144848280Y-87305913D01*
X144928467Y-87155893D01*
X144928468Y-87155892D01*
X144928470Y-87155888D01*
X145036389Y-87024388D01*
X145167889Y-86916469D01*
X145167893Y-86916467D01*
X145167894Y-86916466D01*
X145317914Y-86836279D01*
X145317917Y-86836278D01*
X145480706Y-86786896D01*
X145650000Y-86770222D01*
X145819295Y-86786896D01*
X145819295Y-86786896D01*
G37*
G36*
X150899295Y-86786896D02*
G01*
X151062084Y-86836278D01*
X151062087Y-86836279D01*
X151212107Y-86916466D01*
X151212108Y-86916467D01*
X151212112Y-86916469D01*
X151343612Y-87024388D01*
X151451531Y-87155888D01*
X151451533Y-87155892D01*
X151451534Y-87155893D01*
X151531721Y-87305913D01*
X151531722Y-87305916D01*
X151581104Y-87468705D01*
X151593600Y-87595580D01*
X151593600Y-89204420D01*
X151581104Y-89331295D01*
X151542540Y-89458421D01*
X151531721Y-89494087D01*
X151451534Y-89644107D01*
X151451531Y-89644112D01*
X151343612Y-89775612D01*
X151212111Y-89883531D01*
X151212107Y-89883534D01*
X151062087Y-89963721D01*
X151019726Y-89976571D01*
X150899294Y-90013104D01*
X150730000Y-90029778D01*
X150560705Y-90013104D01*
X150397916Y-89963722D01*
X150397913Y-89963721D01*
X150247893Y-89883534D01*
X150247892Y-89883533D01*
X150247888Y-89883531D01*
X150116388Y-89775612D01*
X150008469Y-89644111D01*
X150008468Y-89644110D01*
X150008466Y-89644107D01*
X149928279Y-89494087D01*
X149915429Y-89451726D01*
X149878896Y-89331294D01*
X149866400Y-89204419D01*
X149866401Y-87595580D01*
X149878897Y-87468705D01*
X149928279Y-87305916D01*
X149928280Y-87305913D01*
X150008467Y-87155893D01*
X150008468Y-87155892D01*
X150008470Y-87155888D01*
X150116389Y-87024388D01*
X150247889Y-86916469D01*
X150247893Y-86916467D01*
X150247894Y-86916466D01*
X150397914Y-86836279D01*
X150397917Y-86836278D01*
X150560706Y-86786896D01*
X150730000Y-86770222D01*
X150899295Y-86786896D01*
X150899295Y-86786896D01*
G37*
M02*
