G04 #@! TF.GenerationSoftware,KiCad,Pcbnew,(5.1.2)-2*
G04 #@! TF.CreationDate,2019-12-19T20:04:36-08:00*
G04 #@! TF.ProjectId,led_daughterboard,6c65645f-6461-4756-9768-746572626f61,rev?*
G04 #@! TF.SameCoordinates,Original*
G04 #@! TF.FileFunction,Copper,L1,Top*
G04 #@! TF.FilePolarity,Positive*
%FSLAX46Y46*%
G04 Gerber Fmt 4.6, Leading zero omitted, Abs format (unit mm)*
G04 Created by KiCad (PCBNEW (5.1.2)-2) date 2019-12-19 20:04:36*
%MOMM*%
%LPD*%
G04 APERTURE LIST*
%ADD10O,1.524000X3.048000*%
%ADD11O,1.070000X1.800000*%
%ADD12R,1.070000X1.800000*%
%ADD13C,0.800000*%
%ADD14C,0.250000*%
%ADD15C,0.200000*%
G04 APERTURE END LIST*
D10*
X153270000Y-88654000D03*
X150730000Y-88400000D03*
X148190000Y-88654000D03*
X145650000Y-88400000D03*
D11*
X163060000Y-92350000D03*
X161790000Y-92350000D03*
X160520000Y-92350000D03*
D12*
X159250000Y-92350000D03*
D11*
X138060000Y-92350000D03*
X136790000Y-92350000D03*
X135520000Y-92350000D03*
D12*
X134250000Y-92350000D03*
D11*
X113060000Y-92350000D03*
X111790000Y-92350000D03*
X110520000Y-92350000D03*
D12*
X109250000Y-92350000D03*
D13*
X136875000Y-90625000D03*
X130525000Y-92150000D03*
X121275000Y-92000000D03*
X168900000Y-92250000D03*
X155500000Y-90825000D03*
D14*
X113060000Y-91985000D02*
X113060000Y-92350000D01*
X148190000Y-88654000D02*
X148190000Y-89416000D01*
X148190000Y-89416000D02*
X146631000Y-90975000D01*
X146631000Y-90975000D02*
X144275000Y-90975000D01*
X144275000Y-90975000D02*
X140625000Y-87325000D01*
X140625000Y-87325000D02*
X117720000Y-87325000D01*
X117720000Y-87325000D02*
X113060000Y-91985000D01*
X154282000Y-88654000D02*
X154286000Y-88650000D01*
X153270000Y-88654000D02*
X154282000Y-88654000D01*
X158455000Y-88650000D02*
X161790000Y-91985000D01*
X154286000Y-88650000D02*
X158455000Y-88650000D01*
X111790000Y-93500000D02*
X114265000Y-95975000D01*
X111790000Y-92350000D02*
X111790000Y-93500000D01*
X136790000Y-92715000D02*
X136790000Y-92350000D01*
X133530000Y-95975000D02*
X136790000Y-92715000D01*
X114265000Y-95975000D02*
X133530000Y-95975000D01*
X153270000Y-89416000D02*
X153270000Y-88654000D01*
X161790000Y-91985000D02*
X161790000Y-92350000D01*
X161790000Y-90985000D02*
X161790000Y-92350000D01*
X164150000Y-90100000D02*
X162675000Y-90100000D01*
X162675000Y-90100000D02*
X161790000Y-90985000D01*
X164600000Y-90550000D02*
X164150000Y-90100000D01*
X136790000Y-91985000D02*
X138800000Y-89975000D01*
X136790000Y-92350000D02*
X136790000Y-91985000D01*
X141425000Y-89975000D02*
X146375000Y-94925000D01*
X164600000Y-93450000D02*
X164600000Y-90550000D01*
X146375000Y-94925000D02*
X163125000Y-94925000D01*
X138800000Y-89975000D02*
X141425000Y-89975000D01*
X163125000Y-94925000D02*
X164600000Y-93450000D01*
X109250000Y-92715000D02*
X113710000Y-97175000D01*
X109250000Y-92350000D02*
X109250000Y-92715000D01*
X138060000Y-92715000D02*
X138060000Y-92350000D01*
X133600000Y-97175000D02*
X138060000Y-92715000D01*
X113710000Y-97175000D02*
X133600000Y-97175000D01*
X163060000Y-93500000D02*
X162260000Y-94300000D01*
X163060000Y-92350000D02*
X163060000Y-93500000D01*
X162260000Y-94300000D02*
X146700000Y-94300000D01*
X146700000Y-94300000D02*
X141275000Y-88875000D01*
X134250000Y-91985000D02*
X134250000Y-92350000D01*
X137360000Y-88875000D02*
X134250000Y-91985000D01*
X141275000Y-88875000D02*
X137360000Y-88875000D01*
D15*
G36*
X171925001Y-98275000D02*
G01*
X107475000Y-98275000D01*
X107475000Y-91450000D01*
X108413549Y-91450000D01*
X108413549Y-93250000D01*
X108419341Y-93308810D01*
X108436496Y-93365360D01*
X108464353Y-93417477D01*
X108501842Y-93463158D01*
X108547523Y-93500647D01*
X108599640Y-93528504D01*
X108656190Y-93545659D01*
X108715000Y-93551451D01*
X109485411Y-93551451D01*
X113394721Y-97460762D01*
X113408026Y-97476974D01*
X113472740Y-97530084D01*
X113546573Y-97569548D01*
X113602383Y-97586478D01*
X113626685Y-97593850D01*
X113635098Y-97594679D01*
X113689126Y-97600000D01*
X113689132Y-97600000D01*
X113709999Y-97602055D01*
X113730866Y-97600000D01*
X133579133Y-97600000D01*
X133600000Y-97602055D01*
X133620867Y-97600000D01*
X133620874Y-97600000D01*
X133683314Y-97593850D01*
X133763427Y-97569548D01*
X133837260Y-97530084D01*
X133901974Y-97476974D01*
X133915284Y-97460756D01*
X137851666Y-93524375D01*
X137896312Y-93537918D01*
X138060000Y-93554040D01*
X138223689Y-93537918D01*
X138381087Y-93490172D01*
X138526146Y-93412636D01*
X138653291Y-93308291D01*
X138757636Y-93181146D01*
X138835172Y-93036087D01*
X138882918Y-92878689D01*
X138895000Y-92756019D01*
X138895000Y-91943981D01*
X138882918Y-91821311D01*
X138835172Y-91663913D01*
X138757636Y-91518854D01*
X138653291Y-91391709D01*
X138526145Y-91287364D01*
X138381086Y-91209828D01*
X138223688Y-91162082D01*
X138214831Y-91161210D01*
X138976041Y-90400000D01*
X141248960Y-90400000D01*
X146059721Y-95210762D01*
X146073026Y-95226974D01*
X146137740Y-95280084D01*
X146211573Y-95319548D01*
X146267383Y-95336478D01*
X146291685Y-95343850D01*
X146300098Y-95344679D01*
X146354126Y-95350000D01*
X146354132Y-95350000D01*
X146374999Y-95352055D01*
X146395866Y-95350000D01*
X163104133Y-95350000D01*
X163125000Y-95352055D01*
X163145867Y-95350000D01*
X163145874Y-95350000D01*
X163208314Y-95343850D01*
X163288427Y-95319548D01*
X163362260Y-95280084D01*
X163426974Y-95226974D01*
X163440283Y-95210757D01*
X164885763Y-93765278D01*
X164901974Y-93751974D01*
X164955084Y-93687260D01*
X164994548Y-93613427D01*
X165015105Y-93545659D01*
X165018850Y-93533315D01*
X165020075Y-93520874D01*
X165025000Y-93470874D01*
X165025000Y-93470868D01*
X165027055Y-93450001D01*
X165025000Y-93429134D01*
X165025000Y-90570866D01*
X165027055Y-90549999D01*
X165025000Y-90529132D01*
X165025000Y-90529126D01*
X165018850Y-90466686D01*
X164994548Y-90386573D01*
X164955084Y-90312740D01*
X164901974Y-90248026D01*
X164885762Y-90234721D01*
X164465283Y-89814243D01*
X164451974Y-89798026D01*
X164387260Y-89744916D01*
X164313427Y-89705452D01*
X164233314Y-89681150D01*
X164170874Y-89675000D01*
X164170867Y-89675000D01*
X164150000Y-89672945D01*
X164129133Y-89675000D01*
X162695866Y-89675000D01*
X162674999Y-89672945D01*
X162654132Y-89675000D01*
X162654126Y-89675000D01*
X162600098Y-89680321D01*
X162591685Y-89681150D01*
X162567383Y-89688522D01*
X162511573Y-89705452D01*
X162437740Y-89744916D01*
X162373026Y-89798026D01*
X162359721Y-89814238D01*
X161504243Y-90669717D01*
X161488026Y-90683026D01*
X161434916Y-90747741D01*
X161395452Y-90821574D01*
X161382194Y-90865280D01*
X161371150Y-90901686D01*
X161370321Y-90910099D01*
X161365463Y-90959423D01*
X158770283Y-88364243D01*
X158756974Y-88348026D01*
X158692260Y-88294916D01*
X158618427Y-88255452D01*
X158538314Y-88231150D01*
X158475874Y-88225000D01*
X158475867Y-88225000D01*
X158455000Y-88222945D01*
X158434133Y-88225000D01*
X154332000Y-88225000D01*
X154332000Y-87839834D01*
X154316633Y-87683812D01*
X154255907Y-87483624D01*
X154157293Y-87299130D01*
X154024581Y-87137419D01*
X153862870Y-87004707D01*
X153678376Y-86906093D01*
X153478188Y-86845367D01*
X153270000Y-86824862D01*
X153061813Y-86845367D01*
X152861625Y-86906093D01*
X152677131Y-87004707D01*
X152515420Y-87137419D01*
X152382708Y-87299130D01*
X152284094Y-87483624D01*
X152223368Y-87683812D01*
X152208000Y-87839834D01*
X152208000Y-89468165D01*
X152223367Y-89624187D01*
X152284093Y-89824375D01*
X152382707Y-90008870D01*
X152515419Y-90170581D01*
X152677130Y-90303293D01*
X152861624Y-90401907D01*
X153061812Y-90462633D01*
X153270000Y-90483138D01*
X153478187Y-90462633D01*
X153678375Y-90401907D01*
X153862870Y-90303293D01*
X154024581Y-90170581D01*
X154157293Y-90008870D01*
X154255907Y-89824376D01*
X154316633Y-89624188D01*
X154332000Y-89468166D01*
X154332000Y-89076131D01*
X154343485Y-89075000D01*
X158278960Y-89075000D01*
X160118305Y-90914345D01*
X160013029Y-90949073D01*
X159820671Y-91067883D01*
X159734021Y-91148549D01*
X158715000Y-91148549D01*
X158656190Y-91154341D01*
X158599640Y-91171496D01*
X158547523Y-91199353D01*
X158501842Y-91236842D01*
X158464353Y-91282523D01*
X158436496Y-91334640D01*
X158419341Y-91391190D01*
X158413549Y-91450000D01*
X158413549Y-93250000D01*
X158419341Y-93308810D01*
X158436496Y-93365360D01*
X158464353Y-93417477D01*
X158501842Y-93463158D01*
X158547523Y-93500647D01*
X158599640Y-93528504D01*
X158656190Y-93545659D01*
X158715000Y-93551451D01*
X159734021Y-93551451D01*
X159820671Y-93632117D01*
X160013029Y-93750927D01*
X160190722Y-93809543D01*
X160366000Y-93693961D01*
X160366000Y-92504000D01*
X160346000Y-92504000D01*
X160346000Y-92196000D01*
X160366000Y-92196000D01*
X160366000Y-92176000D01*
X160674000Y-92176000D01*
X160674000Y-92196000D01*
X160694000Y-92196000D01*
X160694000Y-92504000D01*
X160674000Y-92504000D01*
X160674000Y-93693961D01*
X160849278Y-93809543D01*
X161026971Y-93750927D01*
X161219329Y-93632117D01*
X161384812Y-93478063D01*
X161401909Y-93454357D01*
X161468914Y-93490172D01*
X161626312Y-93537918D01*
X161790000Y-93554040D01*
X161953689Y-93537918D01*
X162111087Y-93490172D01*
X162256146Y-93412636D01*
X162383291Y-93308291D01*
X162425001Y-93257468D01*
X162466710Y-93308291D01*
X162567748Y-93391211D01*
X162083960Y-93875000D01*
X146876040Y-93875000D01*
X144401040Y-91400000D01*
X146610133Y-91400000D01*
X146631000Y-91402055D01*
X146651867Y-91400000D01*
X146651874Y-91400000D01*
X146714314Y-91393850D01*
X146794427Y-91369548D01*
X146868260Y-91330084D01*
X146932974Y-91276974D01*
X146946283Y-91260757D01*
X147799662Y-90407379D01*
X147981812Y-90462633D01*
X148190000Y-90483138D01*
X148398187Y-90462633D01*
X148598375Y-90401907D01*
X148782870Y-90303293D01*
X148944581Y-90170581D01*
X149077293Y-90008870D01*
X149175907Y-89824376D01*
X149236633Y-89624188D01*
X149252000Y-89468166D01*
X149252000Y-88554000D01*
X149360000Y-88554000D01*
X149360000Y-89316000D01*
X149416368Y-89580315D01*
X149523218Y-89828554D01*
X149676444Y-90051178D01*
X149870158Y-90239631D01*
X150096915Y-90386671D01*
X150364939Y-90482466D01*
X150576000Y-90370225D01*
X150576000Y-88554000D01*
X150884000Y-88554000D01*
X150884000Y-90370225D01*
X151095061Y-90482466D01*
X151363085Y-90386671D01*
X151589842Y-90239631D01*
X151783556Y-90051178D01*
X151936782Y-89828554D01*
X152043632Y-89580315D01*
X152100000Y-89316000D01*
X152100000Y-88554000D01*
X150884000Y-88554000D01*
X150576000Y-88554000D01*
X149360000Y-88554000D01*
X149252000Y-88554000D01*
X149252000Y-87839834D01*
X149236633Y-87683812D01*
X149176022Y-87484000D01*
X149360000Y-87484000D01*
X149360000Y-88246000D01*
X150576000Y-88246000D01*
X150576000Y-86429775D01*
X150884000Y-86429775D01*
X150884000Y-88246000D01*
X152100000Y-88246000D01*
X152100000Y-87484000D01*
X152043632Y-87219685D01*
X151936782Y-86971446D01*
X151783556Y-86748822D01*
X151589842Y-86560369D01*
X151363085Y-86413329D01*
X151095061Y-86317534D01*
X150884000Y-86429775D01*
X150576000Y-86429775D01*
X150364939Y-86317534D01*
X150096915Y-86413329D01*
X149870158Y-86560369D01*
X149676444Y-86748822D01*
X149523218Y-86971446D01*
X149416368Y-87219685D01*
X149360000Y-87484000D01*
X149176022Y-87484000D01*
X149175907Y-87483624D01*
X149077293Y-87299130D01*
X148944581Y-87137419D01*
X148782870Y-87004707D01*
X148598376Y-86906093D01*
X148398188Y-86845367D01*
X148190000Y-86824862D01*
X147981813Y-86845367D01*
X147781625Y-86906093D01*
X147597131Y-87004707D01*
X147435420Y-87137419D01*
X147302708Y-87299130D01*
X147204094Y-87483624D01*
X147143368Y-87683812D01*
X147128000Y-87839834D01*
X147128000Y-89468165D01*
X147143367Y-89624187D01*
X147198622Y-89806338D01*
X146454960Y-90550000D01*
X144451040Y-90550000D01*
X142455040Y-88554000D01*
X144280000Y-88554000D01*
X144280000Y-89316000D01*
X144336368Y-89580315D01*
X144443218Y-89828554D01*
X144596444Y-90051178D01*
X144790158Y-90239631D01*
X145016915Y-90386671D01*
X145284939Y-90482466D01*
X145496000Y-90370225D01*
X145496000Y-88554000D01*
X145804000Y-88554000D01*
X145804000Y-90370225D01*
X146015061Y-90482466D01*
X146283085Y-90386671D01*
X146509842Y-90239631D01*
X146703556Y-90051178D01*
X146856782Y-89828554D01*
X146963632Y-89580315D01*
X147020000Y-89316000D01*
X147020000Y-88554000D01*
X145804000Y-88554000D01*
X145496000Y-88554000D01*
X144280000Y-88554000D01*
X142455040Y-88554000D01*
X141385040Y-87484000D01*
X144280000Y-87484000D01*
X144280000Y-88246000D01*
X145496000Y-88246000D01*
X145496000Y-86429775D01*
X145804000Y-86429775D01*
X145804000Y-88246000D01*
X147020000Y-88246000D01*
X147020000Y-87484000D01*
X146963632Y-87219685D01*
X146856782Y-86971446D01*
X146703556Y-86748822D01*
X146509842Y-86560369D01*
X146283085Y-86413329D01*
X146015061Y-86317534D01*
X145804000Y-86429775D01*
X145496000Y-86429775D01*
X145284939Y-86317534D01*
X145016915Y-86413329D01*
X144790158Y-86560369D01*
X144596444Y-86748822D01*
X144443218Y-86971446D01*
X144336368Y-87219685D01*
X144280000Y-87484000D01*
X141385040Y-87484000D01*
X140940284Y-87039244D01*
X140926974Y-87023026D01*
X140862260Y-86969916D01*
X140788427Y-86930452D01*
X140708314Y-86906150D01*
X140645874Y-86900000D01*
X140645867Y-86900000D01*
X140625000Y-86897945D01*
X140604133Y-86900000D01*
X117740866Y-86900000D01*
X117719999Y-86897945D01*
X117699132Y-86900000D01*
X117699126Y-86900000D01*
X117645098Y-86905321D01*
X117636685Y-86906150D01*
X117612383Y-86913522D01*
X117556573Y-86930452D01*
X117482740Y-86969916D01*
X117441855Y-87003470D01*
X117440348Y-87004707D01*
X117418026Y-87023026D01*
X117404721Y-87039238D01*
X113268335Y-91175625D01*
X113223688Y-91162082D01*
X113060000Y-91145960D01*
X112896311Y-91162082D01*
X112738913Y-91209828D01*
X112593854Y-91287364D01*
X112466709Y-91391709D01*
X112425000Y-91442532D01*
X112383291Y-91391709D01*
X112256145Y-91287364D01*
X112111086Y-91209828D01*
X111953688Y-91162082D01*
X111790000Y-91145960D01*
X111626311Y-91162082D01*
X111468913Y-91209828D01*
X111401908Y-91245643D01*
X111384812Y-91221937D01*
X111219329Y-91067883D01*
X111026971Y-90949073D01*
X110849278Y-90890457D01*
X110674000Y-91006039D01*
X110674000Y-92196000D01*
X110694000Y-92196000D01*
X110694000Y-92504000D01*
X110674000Y-92504000D01*
X110674000Y-92524000D01*
X110366000Y-92524000D01*
X110366000Y-92504000D01*
X110346000Y-92504000D01*
X110346000Y-92196000D01*
X110366000Y-92196000D01*
X110366000Y-91006039D01*
X110190722Y-90890457D01*
X110013029Y-90949073D01*
X109820671Y-91067883D01*
X109734021Y-91148549D01*
X108715000Y-91148549D01*
X108656190Y-91154341D01*
X108599640Y-91171496D01*
X108547523Y-91199353D01*
X108501842Y-91236842D01*
X108464353Y-91282523D01*
X108436496Y-91334640D01*
X108419341Y-91391190D01*
X108413549Y-91450000D01*
X107475000Y-91450000D01*
X107475000Y-85900000D01*
X171925000Y-85900000D01*
X171925001Y-98275000D01*
X171925001Y-98275000D01*
G37*
X171925001Y-98275000D02*
X107475000Y-98275000D01*
X107475000Y-91450000D01*
X108413549Y-91450000D01*
X108413549Y-93250000D01*
X108419341Y-93308810D01*
X108436496Y-93365360D01*
X108464353Y-93417477D01*
X108501842Y-93463158D01*
X108547523Y-93500647D01*
X108599640Y-93528504D01*
X108656190Y-93545659D01*
X108715000Y-93551451D01*
X109485411Y-93551451D01*
X113394721Y-97460762D01*
X113408026Y-97476974D01*
X113472740Y-97530084D01*
X113546573Y-97569548D01*
X113602383Y-97586478D01*
X113626685Y-97593850D01*
X113635098Y-97594679D01*
X113689126Y-97600000D01*
X113689132Y-97600000D01*
X113709999Y-97602055D01*
X113730866Y-97600000D01*
X133579133Y-97600000D01*
X133600000Y-97602055D01*
X133620867Y-97600000D01*
X133620874Y-97600000D01*
X133683314Y-97593850D01*
X133763427Y-97569548D01*
X133837260Y-97530084D01*
X133901974Y-97476974D01*
X133915284Y-97460756D01*
X137851666Y-93524375D01*
X137896312Y-93537918D01*
X138060000Y-93554040D01*
X138223689Y-93537918D01*
X138381087Y-93490172D01*
X138526146Y-93412636D01*
X138653291Y-93308291D01*
X138757636Y-93181146D01*
X138835172Y-93036087D01*
X138882918Y-92878689D01*
X138895000Y-92756019D01*
X138895000Y-91943981D01*
X138882918Y-91821311D01*
X138835172Y-91663913D01*
X138757636Y-91518854D01*
X138653291Y-91391709D01*
X138526145Y-91287364D01*
X138381086Y-91209828D01*
X138223688Y-91162082D01*
X138214831Y-91161210D01*
X138976041Y-90400000D01*
X141248960Y-90400000D01*
X146059721Y-95210762D01*
X146073026Y-95226974D01*
X146137740Y-95280084D01*
X146211573Y-95319548D01*
X146267383Y-95336478D01*
X146291685Y-95343850D01*
X146300098Y-95344679D01*
X146354126Y-95350000D01*
X146354132Y-95350000D01*
X146374999Y-95352055D01*
X146395866Y-95350000D01*
X163104133Y-95350000D01*
X163125000Y-95352055D01*
X163145867Y-95350000D01*
X163145874Y-95350000D01*
X163208314Y-95343850D01*
X163288427Y-95319548D01*
X163362260Y-95280084D01*
X163426974Y-95226974D01*
X163440283Y-95210757D01*
X164885763Y-93765278D01*
X164901974Y-93751974D01*
X164955084Y-93687260D01*
X164994548Y-93613427D01*
X165015105Y-93545659D01*
X165018850Y-93533315D01*
X165020075Y-93520874D01*
X165025000Y-93470874D01*
X165025000Y-93470868D01*
X165027055Y-93450001D01*
X165025000Y-93429134D01*
X165025000Y-90570866D01*
X165027055Y-90549999D01*
X165025000Y-90529132D01*
X165025000Y-90529126D01*
X165018850Y-90466686D01*
X164994548Y-90386573D01*
X164955084Y-90312740D01*
X164901974Y-90248026D01*
X164885762Y-90234721D01*
X164465283Y-89814243D01*
X164451974Y-89798026D01*
X164387260Y-89744916D01*
X164313427Y-89705452D01*
X164233314Y-89681150D01*
X164170874Y-89675000D01*
X164170867Y-89675000D01*
X164150000Y-89672945D01*
X164129133Y-89675000D01*
X162695866Y-89675000D01*
X162674999Y-89672945D01*
X162654132Y-89675000D01*
X162654126Y-89675000D01*
X162600098Y-89680321D01*
X162591685Y-89681150D01*
X162567383Y-89688522D01*
X162511573Y-89705452D01*
X162437740Y-89744916D01*
X162373026Y-89798026D01*
X162359721Y-89814238D01*
X161504243Y-90669717D01*
X161488026Y-90683026D01*
X161434916Y-90747741D01*
X161395452Y-90821574D01*
X161382194Y-90865280D01*
X161371150Y-90901686D01*
X161370321Y-90910099D01*
X161365463Y-90959423D01*
X158770283Y-88364243D01*
X158756974Y-88348026D01*
X158692260Y-88294916D01*
X158618427Y-88255452D01*
X158538314Y-88231150D01*
X158475874Y-88225000D01*
X158475867Y-88225000D01*
X158455000Y-88222945D01*
X158434133Y-88225000D01*
X154332000Y-88225000D01*
X154332000Y-87839834D01*
X154316633Y-87683812D01*
X154255907Y-87483624D01*
X154157293Y-87299130D01*
X154024581Y-87137419D01*
X153862870Y-87004707D01*
X153678376Y-86906093D01*
X153478188Y-86845367D01*
X153270000Y-86824862D01*
X153061813Y-86845367D01*
X152861625Y-86906093D01*
X152677131Y-87004707D01*
X152515420Y-87137419D01*
X152382708Y-87299130D01*
X152284094Y-87483624D01*
X152223368Y-87683812D01*
X152208000Y-87839834D01*
X152208000Y-89468165D01*
X152223367Y-89624187D01*
X152284093Y-89824375D01*
X152382707Y-90008870D01*
X152515419Y-90170581D01*
X152677130Y-90303293D01*
X152861624Y-90401907D01*
X153061812Y-90462633D01*
X153270000Y-90483138D01*
X153478187Y-90462633D01*
X153678375Y-90401907D01*
X153862870Y-90303293D01*
X154024581Y-90170581D01*
X154157293Y-90008870D01*
X154255907Y-89824376D01*
X154316633Y-89624188D01*
X154332000Y-89468166D01*
X154332000Y-89076131D01*
X154343485Y-89075000D01*
X158278960Y-89075000D01*
X160118305Y-90914345D01*
X160013029Y-90949073D01*
X159820671Y-91067883D01*
X159734021Y-91148549D01*
X158715000Y-91148549D01*
X158656190Y-91154341D01*
X158599640Y-91171496D01*
X158547523Y-91199353D01*
X158501842Y-91236842D01*
X158464353Y-91282523D01*
X158436496Y-91334640D01*
X158419341Y-91391190D01*
X158413549Y-91450000D01*
X158413549Y-93250000D01*
X158419341Y-93308810D01*
X158436496Y-93365360D01*
X158464353Y-93417477D01*
X158501842Y-93463158D01*
X158547523Y-93500647D01*
X158599640Y-93528504D01*
X158656190Y-93545659D01*
X158715000Y-93551451D01*
X159734021Y-93551451D01*
X159820671Y-93632117D01*
X160013029Y-93750927D01*
X160190722Y-93809543D01*
X160366000Y-93693961D01*
X160366000Y-92504000D01*
X160346000Y-92504000D01*
X160346000Y-92196000D01*
X160366000Y-92196000D01*
X160366000Y-92176000D01*
X160674000Y-92176000D01*
X160674000Y-92196000D01*
X160694000Y-92196000D01*
X160694000Y-92504000D01*
X160674000Y-92504000D01*
X160674000Y-93693961D01*
X160849278Y-93809543D01*
X161026971Y-93750927D01*
X161219329Y-93632117D01*
X161384812Y-93478063D01*
X161401909Y-93454357D01*
X161468914Y-93490172D01*
X161626312Y-93537918D01*
X161790000Y-93554040D01*
X161953689Y-93537918D01*
X162111087Y-93490172D01*
X162256146Y-93412636D01*
X162383291Y-93308291D01*
X162425001Y-93257468D01*
X162466710Y-93308291D01*
X162567748Y-93391211D01*
X162083960Y-93875000D01*
X146876040Y-93875000D01*
X144401040Y-91400000D01*
X146610133Y-91400000D01*
X146631000Y-91402055D01*
X146651867Y-91400000D01*
X146651874Y-91400000D01*
X146714314Y-91393850D01*
X146794427Y-91369548D01*
X146868260Y-91330084D01*
X146932974Y-91276974D01*
X146946283Y-91260757D01*
X147799662Y-90407379D01*
X147981812Y-90462633D01*
X148190000Y-90483138D01*
X148398187Y-90462633D01*
X148598375Y-90401907D01*
X148782870Y-90303293D01*
X148944581Y-90170581D01*
X149077293Y-90008870D01*
X149175907Y-89824376D01*
X149236633Y-89624188D01*
X149252000Y-89468166D01*
X149252000Y-88554000D01*
X149360000Y-88554000D01*
X149360000Y-89316000D01*
X149416368Y-89580315D01*
X149523218Y-89828554D01*
X149676444Y-90051178D01*
X149870158Y-90239631D01*
X150096915Y-90386671D01*
X150364939Y-90482466D01*
X150576000Y-90370225D01*
X150576000Y-88554000D01*
X150884000Y-88554000D01*
X150884000Y-90370225D01*
X151095061Y-90482466D01*
X151363085Y-90386671D01*
X151589842Y-90239631D01*
X151783556Y-90051178D01*
X151936782Y-89828554D01*
X152043632Y-89580315D01*
X152100000Y-89316000D01*
X152100000Y-88554000D01*
X150884000Y-88554000D01*
X150576000Y-88554000D01*
X149360000Y-88554000D01*
X149252000Y-88554000D01*
X149252000Y-87839834D01*
X149236633Y-87683812D01*
X149176022Y-87484000D01*
X149360000Y-87484000D01*
X149360000Y-88246000D01*
X150576000Y-88246000D01*
X150576000Y-86429775D01*
X150884000Y-86429775D01*
X150884000Y-88246000D01*
X152100000Y-88246000D01*
X152100000Y-87484000D01*
X152043632Y-87219685D01*
X151936782Y-86971446D01*
X151783556Y-86748822D01*
X151589842Y-86560369D01*
X151363085Y-86413329D01*
X151095061Y-86317534D01*
X150884000Y-86429775D01*
X150576000Y-86429775D01*
X150364939Y-86317534D01*
X150096915Y-86413329D01*
X149870158Y-86560369D01*
X149676444Y-86748822D01*
X149523218Y-86971446D01*
X149416368Y-87219685D01*
X149360000Y-87484000D01*
X149176022Y-87484000D01*
X149175907Y-87483624D01*
X149077293Y-87299130D01*
X148944581Y-87137419D01*
X148782870Y-87004707D01*
X148598376Y-86906093D01*
X148398188Y-86845367D01*
X148190000Y-86824862D01*
X147981813Y-86845367D01*
X147781625Y-86906093D01*
X147597131Y-87004707D01*
X147435420Y-87137419D01*
X147302708Y-87299130D01*
X147204094Y-87483624D01*
X147143368Y-87683812D01*
X147128000Y-87839834D01*
X147128000Y-89468165D01*
X147143367Y-89624187D01*
X147198622Y-89806338D01*
X146454960Y-90550000D01*
X144451040Y-90550000D01*
X142455040Y-88554000D01*
X144280000Y-88554000D01*
X144280000Y-89316000D01*
X144336368Y-89580315D01*
X144443218Y-89828554D01*
X144596444Y-90051178D01*
X144790158Y-90239631D01*
X145016915Y-90386671D01*
X145284939Y-90482466D01*
X145496000Y-90370225D01*
X145496000Y-88554000D01*
X145804000Y-88554000D01*
X145804000Y-90370225D01*
X146015061Y-90482466D01*
X146283085Y-90386671D01*
X146509842Y-90239631D01*
X146703556Y-90051178D01*
X146856782Y-89828554D01*
X146963632Y-89580315D01*
X147020000Y-89316000D01*
X147020000Y-88554000D01*
X145804000Y-88554000D01*
X145496000Y-88554000D01*
X144280000Y-88554000D01*
X142455040Y-88554000D01*
X141385040Y-87484000D01*
X144280000Y-87484000D01*
X144280000Y-88246000D01*
X145496000Y-88246000D01*
X145496000Y-86429775D01*
X145804000Y-86429775D01*
X145804000Y-88246000D01*
X147020000Y-88246000D01*
X147020000Y-87484000D01*
X146963632Y-87219685D01*
X146856782Y-86971446D01*
X146703556Y-86748822D01*
X146509842Y-86560369D01*
X146283085Y-86413329D01*
X146015061Y-86317534D01*
X145804000Y-86429775D01*
X145496000Y-86429775D01*
X145284939Y-86317534D01*
X145016915Y-86413329D01*
X144790158Y-86560369D01*
X144596444Y-86748822D01*
X144443218Y-86971446D01*
X144336368Y-87219685D01*
X144280000Y-87484000D01*
X141385040Y-87484000D01*
X140940284Y-87039244D01*
X140926974Y-87023026D01*
X140862260Y-86969916D01*
X140788427Y-86930452D01*
X140708314Y-86906150D01*
X140645874Y-86900000D01*
X140645867Y-86900000D01*
X140625000Y-86897945D01*
X140604133Y-86900000D01*
X117740866Y-86900000D01*
X117719999Y-86897945D01*
X117699132Y-86900000D01*
X117699126Y-86900000D01*
X117645098Y-86905321D01*
X117636685Y-86906150D01*
X117612383Y-86913522D01*
X117556573Y-86930452D01*
X117482740Y-86969916D01*
X117441855Y-87003470D01*
X117440348Y-87004707D01*
X117418026Y-87023026D01*
X117404721Y-87039238D01*
X113268335Y-91175625D01*
X113223688Y-91162082D01*
X113060000Y-91145960D01*
X112896311Y-91162082D01*
X112738913Y-91209828D01*
X112593854Y-91287364D01*
X112466709Y-91391709D01*
X112425000Y-91442532D01*
X112383291Y-91391709D01*
X112256145Y-91287364D01*
X112111086Y-91209828D01*
X111953688Y-91162082D01*
X111790000Y-91145960D01*
X111626311Y-91162082D01*
X111468913Y-91209828D01*
X111401908Y-91245643D01*
X111384812Y-91221937D01*
X111219329Y-91067883D01*
X111026971Y-90949073D01*
X110849278Y-90890457D01*
X110674000Y-91006039D01*
X110674000Y-92196000D01*
X110694000Y-92196000D01*
X110694000Y-92504000D01*
X110674000Y-92504000D01*
X110674000Y-92524000D01*
X110366000Y-92524000D01*
X110366000Y-92504000D01*
X110346000Y-92504000D01*
X110346000Y-92196000D01*
X110366000Y-92196000D01*
X110366000Y-91006039D01*
X110190722Y-90890457D01*
X110013029Y-90949073D01*
X109820671Y-91067883D01*
X109734021Y-91148549D01*
X108715000Y-91148549D01*
X108656190Y-91154341D01*
X108599640Y-91171496D01*
X108547523Y-91199353D01*
X108501842Y-91236842D01*
X108464353Y-91282523D01*
X108436496Y-91334640D01*
X108419341Y-91391190D01*
X108413549Y-91450000D01*
X107475000Y-91450000D01*
X107475000Y-85900000D01*
X171925000Y-85900000D01*
X171925001Y-98275000D01*
G36*
X141148960Y-88450000D02*
G01*
X137380866Y-88450000D01*
X137359999Y-88447945D01*
X137339132Y-88450000D01*
X137339126Y-88450000D01*
X137285098Y-88455321D01*
X137276685Y-88456150D01*
X137252383Y-88463522D01*
X137196573Y-88480452D01*
X137122740Y-88519916D01*
X137058026Y-88573026D01*
X137044721Y-88589238D01*
X134485411Y-91148549D01*
X133715000Y-91148549D01*
X133656190Y-91154341D01*
X133599640Y-91171496D01*
X133547523Y-91199353D01*
X133501842Y-91236842D01*
X133464353Y-91282523D01*
X133436496Y-91334640D01*
X133419341Y-91391190D01*
X133413549Y-91450000D01*
X133413549Y-93250000D01*
X133419341Y-93308810D01*
X133436496Y-93365360D01*
X133464353Y-93417477D01*
X133501842Y-93463158D01*
X133547523Y-93500647D01*
X133599640Y-93528504D01*
X133656190Y-93545659D01*
X133715000Y-93551451D01*
X134734021Y-93551451D01*
X134820671Y-93632117D01*
X135013029Y-93750927D01*
X135118305Y-93785655D01*
X133353960Y-95550000D01*
X114441040Y-95550000D01*
X112282252Y-93391212D01*
X112383291Y-93308291D01*
X112425001Y-93257468D01*
X112466710Y-93308291D01*
X112593855Y-93412636D01*
X112738914Y-93490172D01*
X112896312Y-93537918D01*
X113060000Y-93554040D01*
X113223689Y-93537918D01*
X113381087Y-93490172D01*
X113526146Y-93412636D01*
X113653291Y-93308291D01*
X113757636Y-93181146D01*
X113835172Y-93036087D01*
X113882918Y-92878689D01*
X113895000Y-92756019D01*
X113895000Y-91943981D01*
X113882918Y-91821311D01*
X113869375Y-91776665D01*
X117896041Y-87750000D01*
X140448960Y-87750000D01*
X141148960Y-88450000D01*
X141148960Y-88450000D01*
G37*
X141148960Y-88450000D02*
X137380866Y-88450000D01*
X137359999Y-88447945D01*
X137339132Y-88450000D01*
X137339126Y-88450000D01*
X137285098Y-88455321D01*
X137276685Y-88456150D01*
X137252383Y-88463522D01*
X137196573Y-88480452D01*
X137122740Y-88519916D01*
X137058026Y-88573026D01*
X137044721Y-88589238D01*
X134485411Y-91148549D01*
X133715000Y-91148549D01*
X133656190Y-91154341D01*
X133599640Y-91171496D01*
X133547523Y-91199353D01*
X133501842Y-91236842D01*
X133464353Y-91282523D01*
X133436496Y-91334640D01*
X133419341Y-91391190D01*
X133413549Y-91450000D01*
X133413549Y-93250000D01*
X133419341Y-93308810D01*
X133436496Y-93365360D01*
X133464353Y-93417477D01*
X133501842Y-93463158D01*
X133547523Y-93500647D01*
X133599640Y-93528504D01*
X133656190Y-93545659D01*
X133715000Y-93551451D01*
X134734021Y-93551451D01*
X134820671Y-93632117D01*
X135013029Y-93750927D01*
X135118305Y-93785655D01*
X133353960Y-95550000D01*
X114441040Y-95550000D01*
X112282252Y-93391212D01*
X112383291Y-93308291D01*
X112425001Y-93257468D01*
X112466710Y-93308291D01*
X112593855Y-93412636D01*
X112738914Y-93490172D01*
X112896312Y-93537918D01*
X113060000Y-93554040D01*
X113223689Y-93537918D01*
X113381087Y-93490172D01*
X113526146Y-93412636D01*
X113653291Y-93308291D01*
X113757636Y-93181146D01*
X113835172Y-93036087D01*
X113882918Y-92878689D01*
X113895000Y-92756019D01*
X113895000Y-91943981D01*
X113882918Y-91821311D01*
X113869375Y-91776665D01*
X117896041Y-87750000D01*
X140448960Y-87750000D01*
X141148960Y-88450000D01*
G36*
X135674000Y-92196000D02*
G01*
X135694000Y-92196000D01*
X135694000Y-92504000D01*
X135674000Y-92504000D01*
X135674000Y-92524000D01*
X135366000Y-92524000D01*
X135366000Y-92504000D01*
X135346000Y-92504000D01*
X135346000Y-92196000D01*
X135366000Y-92196000D01*
X135366000Y-92176000D01*
X135674000Y-92176000D01*
X135674000Y-92196000D01*
X135674000Y-92196000D01*
G37*
X135674000Y-92196000D02*
X135694000Y-92196000D01*
X135694000Y-92504000D01*
X135674000Y-92504000D01*
X135674000Y-92524000D01*
X135366000Y-92524000D01*
X135366000Y-92504000D01*
X135346000Y-92504000D01*
X135346000Y-92196000D01*
X135366000Y-92196000D01*
X135366000Y-92176000D01*
X135674000Y-92176000D01*
X135674000Y-92196000D01*
G36*
X141348960Y-89550000D02*
G01*
X138820866Y-89550000D01*
X138799999Y-89547945D01*
X138779132Y-89550000D01*
X138779126Y-89550000D01*
X138725098Y-89555321D01*
X138716685Y-89556150D01*
X138692383Y-89563522D01*
X138636573Y-89580452D01*
X138562740Y-89619916D01*
X138498026Y-89673026D01*
X138484721Y-89689238D01*
X136998334Y-91175625D01*
X136953688Y-91162082D01*
X136790000Y-91145960D01*
X136626311Y-91162082D01*
X136468913Y-91209828D01*
X136401908Y-91245643D01*
X136384812Y-91221937D01*
X136219329Y-91067883D01*
X136026971Y-90949073D01*
X135921695Y-90914345D01*
X137536041Y-89300000D01*
X141098960Y-89300000D01*
X141348960Y-89550000D01*
X141348960Y-89550000D01*
G37*
X141348960Y-89550000D02*
X138820866Y-89550000D01*
X138799999Y-89547945D01*
X138779132Y-89550000D01*
X138779126Y-89550000D01*
X138725098Y-89555321D01*
X138716685Y-89556150D01*
X138692383Y-89563522D01*
X138636573Y-89580452D01*
X138562740Y-89619916D01*
X138498026Y-89673026D01*
X138484721Y-89689238D01*
X136998334Y-91175625D01*
X136953688Y-91162082D01*
X136790000Y-91145960D01*
X136626311Y-91162082D01*
X136468913Y-91209828D01*
X136401908Y-91245643D01*
X136384812Y-91221937D01*
X136219329Y-91067883D01*
X136026971Y-90949073D01*
X135921695Y-90914345D01*
X137536041Y-89300000D01*
X141098960Y-89300000D01*
X141348960Y-89550000D01*
M02*
