G04 #@! TF.GenerationSoftware,KiCad,Pcbnew,(5.1.2)-2*
G04 #@! TF.CreationDate,2019-12-19T20:01:48-08:00*
G04 #@! TF.ProjectId,motherboard,6d6f7468-6572-4626-9f61-72642e6b6963,rev?*
G04 #@! TF.SameCoordinates,Original*
G04 #@! TF.FileFunction,Copper,L1,Top*
G04 #@! TF.FilePolarity,Positive*
%FSLAX46Y46*%
G04 Gerber Fmt 4.6, Leading zero omitted, Abs format (unit mm)*
G04 Created by KiCad (PCBNEW (5.1.2)-2) date 2019-12-19 20:01:48*
%MOMM*%
%LPD*%
G04 APERTURE LIST*
%ADD10O,1.879600X3.759200*%
%ADD11O,3.759200X1.879600*%
%ADD12C,1.600000*%
%ADD13R,1.600000X1.600000*%
%ADD14C,0.800000*%
%ADD15C,0.150000*%
%ADD16C,0.254000*%
G04 APERTURE END LIST*
D10*
X181100000Y-128000000D03*
X178560000Y-128000000D03*
X176020000Y-128000000D03*
X173480000Y-128000000D03*
X170940000Y-128000000D03*
X168400000Y-128000000D03*
X165860000Y-128000000D03*
X163320000Y-128000000D03*
X160780000Y-128000000D03*
X158240000Y-128000000D03*
X155700000Y-128000000D03*
X153160000Y-128000000D03*
X150620000Y-128000000D03*
X148080000Y-128000000D03*
X145540000Y-128000000D03*
X143000000Y-128000000D03*
X85900000Y-128000000D03*
X88440000Y-128000000D03*
X90980000Y-128000000D03*
X93520000Y-128000000D03*
X96060000Y-128000000D03*
X98600000Y-128000000D03*
X101140000Y-128000000D03*
X103680000Y-128000000D03*
X106220000Y-128000000D03*
X108760000Y-128000000D03*
X111300000Y-128000000D03*
X113840000Y-128000000D03*
X116380000Y-128000000D03*
X118920000Y-128000000D03*
X121460000Y-128000000D03*
X124000000Y-128000000D03*
D11*
X87000000Y-97000000D03*
X87000000Y-99540000D03*
X87000000Y-102080000D03*
X87000000Y-104620000D03*
X87000000Y-107160000D03*
X87000000Y-109700000D03*
D12*
X111570000Y-103380000D03*
X109030000Y-103380000D03*
X106490000Y-103380000D03*
X103950000Y-103380000D03*
X114110000Y-103380000D03*
X116650000Y-103380000D03*
X119190000Y-103380000D03*
X101410000Y-103380000D03*
X98870000Y-103380000D03*
X96330000Y-103380000D03*
X93790000Y-103380000D03*
X106490000Y-105920000D03*
X106490000Y-108460000D03*
X106490000Y-111000000D03*
X106490000Y-113540000D03*
X106490000Y-116080000D03*
X93790000Y-118620000D03*
X96330000Y-118620000D03*
X98870000Y-118620000D03*
X101410000Y-118620000D03*
X103950000Y-118620000D03*
X106490000Y-118620000D03*
X109030000Y-118620000D03*
X111570000Y-118620000D03*
X121730000Y-103380000D03*
X124270000Y-103380000D03*
X126810000Y-103380000D03*
X129350000Y-103380000D03*
X131890000Y-103380000D03*
X134430000Y-103380000D03*
X136970000Y-103380000D03*
X139510000Y-103380000D03*
X142050000Y-103380000D03*
X144590000Y-103380000D03*
X147130000Y-103380000D03*
X149670000Y-103380000D03*
D13*
X152210000Y-103380000D03*
D12*
X114110000Y-118620000D03*
X116650000Y-118620000D03*
X119190000Y-118620000D03*
X121730000Y-118620000D03*
X124270000Y-118620000D03*
X126810000Y-118620000D03*
X129350000Y-118620000D03*
X131890000Y-118620000D03*
X134430000Y-118620000D03*
X136970000Y-118620000D03*
X139510000Y-118620000D03*
X142050000Y-118620000D03*
X144590000Y-118620000D03*
X147130000Y-118620000D03*
X149670000Y-118620000D03*
X152210000Y-118620000D03*
X149670000Y-116080000D03*
X144590000Y-116080000D03*
X142050000Y-116080000D03*
X139510000Y-116080000D03*
X145860000Y-106380000D03*
X143320000Y-106380000D03*
X140780000Y-106380000D03*
X138240000Y-106380000D03*
X135700000Y-106380000D03*
D14*
X102200000Y-123400000D03*
D15*
X181100000Y-128000000D02*
X181100000Y-110100000D01*
X150469999Y-102580001D02*
X149670000Y-103380000D01*
X150695001Y-102354999D02*
X150469999Y-102580001D01*
X173354999Y-102354999D02*
X150695001Y-102354999D01*
X181100000Y-110100000D02*
X173354999Y-102354999D01*
X178560000Y-127060200D02*
X156499800Y-105000000D01*
X178560000Y-128000000D02*
X178560000Y-127060200D01*
X148750000Y-105000000D02*
X156499800Y-105000000D01*
X147130000Y-103380000D02*
X148750000Y-105000000D01*
X147210000Y-106000000D02*
X144590000Y-103380000D01*
X154959800Y-106000000D02*
X147210000Y-106000000D01*
X176020000Y-128000000D02*
X176020000Y-127060200D01*
X176020000Y-127060200D02*
X154959800Y-106000000D01*
X148200769Y-107405001D02*
X145367999Y-107405001D01*
X145367999Y-107405001D02*
X144834999Y-106872001D01*
X142849999Y-104179999D02*
X142050000Y-103380000D01*
X144834999Y-106164999D02*
X142849999Y-104179999D01*
X153019714Y-106599914D02*
X149005855Y-106599914D01*
X149005855Y-106599914D02*
X148200769Y-107405001D01*
X173480000Y-127060200D02*
X153019714Y-106599914D01*
X144834999Y-106872001D02*
X144834999Y-106164999D01*
X173480000Y-128000000D02*
X173480000Y-127060200D01*
X149130123Y-106899925D02*
X148325037Y-107705012D01*
X148325037Y-107705012D02*
X143128010Y-107705012D01*
X143128010Y-107705012D02*
X141805001Y-106382003D01*
X141805001Y-106382003D02*
X141805001Y-105675001D01*
X140309999Y-104179999D02*
X139510000Y-103380000D01*
X170940000Y-128000000D02*
X170940000Y-127060200D01*
X151021320Y-106899925D02*
X149130123Y-106899925D01*
X141805001Y-105675001D02*
X140309999Y-104179999D01*
X152994144Y-108599912D02*
X152721305Y-108599912D01*
X152721305Y-108599912D02*
X151021320Y-106899925D01*
X157400088Y-113005856D02*
X152994144Y-108599912D01*
X157400088Y-113278693D02*
X157400088Y-113005856D01*
X169850200Y-125728805D02*
X157400088Y-113278693D01*
X169850200Y-125970400D02*
X169850200Y-125728805D01*
X170940000Y-127060200D02*
X169850200Y-125970400D01*
X140005023Y-108005023D02*
X139754999Y-107754999D01*
X139754999Y-106164999D02*
X137769999Y-104179999D01*
X148449304Y-108005023D02*
X140005023Y-108005023D01*
X158000110Y-115181600D02*
X157100077Y-114281567D01*
X167310200Y-125764527D02*
X158000110Y-116454437D01*
X150745609Y-107199936D02*
X149254391Y-107199936D01*
X158000110Y-116454437D02*
X158000110Y-115181600D01*
X137769999Y-104179999D02*
X136970000Y-103380000D01*
X157100077Y-113130124D02*
X152869876Y-108899923D01*
X152869876Y-108899923D02*
X152445595Y-108899923D01*
X152445595Y-108899923D02*
X150745609Y-107199936D01*
X139754999Y-107754999D02*
X139754999Y-106164999D01*
X149254391Y-107199936D02*
X148449304Y-108005023D01*
X168400000Y-127060200D02*
X167310200Y-125970400D01*
X167310200Y-125970400D02*
X167310200Y-125764527D01*
X168400000Y-128000000D02*
X168400000Y-127060200D01*
X157100077Y-114281567D02*
X157100077Y-113130124D01*
X138648032Y-108305034D02*
X136725001Y-106382003D01*
X157700099Y-118427262D02*
X157700099Y-115305868D01*
X165860000Y-128000000D02*
X165860000Y-127060200D01*
X165860000Y-127060200D02*
X164770200Y-125970400D01*
X164770200Y-125497363D02*
X157700099Y-118427262D01*
X157700099Y-115305868D02*
X156800066Y-114405835D01*
X156800066Y-114405835D02*
X156800066Y-113254392D01*
X156800066Y-113254392D02*
X152745608Y-109199934D01*
X136725001Y-106382003D02*
X136725001Y-105675001D01*
X152745608Y-109199934D02*
X152321327Y-109199934D01*
X164770200Y-125970400D02*
X164770200Y-125497363D01*
X149378659Y-107499947D02*
X148573572Y-108305034D01*
X136725001Y-105675001D02*
X135229999Y-104179999D01*
X152321327Y-109199934D02*
X150621341Y-107499947D01*
X135229999Y-104179999D02*
X134430000Y-103380000D01*
X148573572Y-108305034D02*
X138648032Y-108305034D01*
X150621341Y-107499947D02*
X149378659Y-107499947D01*
X152621340Y-109499945D02*
X152197059Y-109499945D01*
X152197059Y-109499945D02*
X150497073Y-107799958D01*
X157400088Y-118551530D02*
X157400088Y-115430136D01*
X156500055Y-114530103D02*
X156500055Y-113378660D01*
X150497073Y-107799958D02*
X149502927Y-107799958D01*
X149502927Y-107799958D02*
X148697840Y-108605045D01*
X148697840Y-108605045D02*
X135983675Y-108605045D01*
X163320000Y-124471442D02*
X157400088Y-118551530D01*
X163320000Y-128000000D02*
X163320000Y-124471442D01*
X135983675Y-108605045D02*
X131890000Y-104511370D01*
X156500055Y-113378660D02*
X152621340Y-109499945D01*
X131890000Y-104511370D02*
X131890000Y-103380000D01*
X157400088Y-115430136D02*
X156500055Y-114530103D01*
X160780000Y-128000000D02*
X160780000Y-122355721D01*
X130149999Y-104179999D02*
X129350000Y-103380000D01*
X156200044Y-113502928D02*
X152497072Y-109799956D01*
X156200044Y-114654371D02*
X156200044Y-113502928D01*
X152072791Y-109799956D02*
X150372805Y-108099969D01*
X148822108Y-108905056D02*
X134875056Y-108905056D01*
X134875056Y-108905056D02*
X130149999Y-104179999D01*
X149627195Y-108099969D02*
X148822108Y-108905056D01*
X150372805Y-108099969D02*
X149627195Y-108099969D01*
X157100077Y-115554404D02*
X156200044Y-114654371D01*
X157100077Y-118675798D02*
X157100077Y-115554404D01*
X160780000Y-122355721D02*
X157100077Y-118675798D01*
X152497072Y-109799956D02*
X152072791Y-109799956D01*
X149751463Y-108399980D02*
X148946376Y-109205067D01*
X152372804Y-110099967D02*
X151948523Y-110099967D01*
X126810000Y-104511370D02*
X126810000Y-103380000D01*
X156800066Y-115678672D02*
X155900033Y-114778639D01*
X148946376Y-109205067D02*
X131205067Y-109205067D01*
X158240000Y-128000000D02*
X158240000Y-120240000D01*
X156800066Y-118800066D02*
X156800066Y-115678672D01*
X126810000Y-104810000D02*
X126810000Y-104511370D01*
X131205067Y-109205067D02*
X126810000Y-104810000D01*
X155900033Y-114778639D02*
X155900033Y-113627196D01*
X150248537Y-108399980D02*
X149751463Y-108399980D01*
X151948523Y-110099967D02*
X150248537Y-108399980D01*
X158240000Y-120240000D02*
X156800066Y-118800066D01*
X155900033Y-113627196D02*
X152372804Y-110099967D01*
X151824256Y-110399978D02*
X151124268Y-109699989D01*
X155700000Y-125970400D02*
X156500053Y-125170347D01*
X155700000Y-128000000D02*
X155700000Y-125970400D01*
X130589989Y-109699989D02*
X125069999Y-104179999D01*
X152248536Y-110399978D02*
X151824256Y-110399978D01*
X151124268Y-109699989D02*
X130589989Y-109699989D01*
X125069999Y-104179999D02*
X124270000Y-103380000D01*
X156500053Y-125170347D02*
X156500053Y-115802938D01*
X155600022Y-114902907D02*
X155600022Y-113751464D01*
X156500053Y-115802938D02*
X155600022Y-114902907D01*
X155600022Y-113751464D02*
X152248536Y-110399978D01*
X122529999Y-104179999D02*
X121730000Y-103380000D01*
X128350000Y-110000000D02*
X122529999Y-104179999D01*
X153160000Y-128000000D02*
X153160000Y-123112837D01*
X151699989Y-110699989D02*
X151000000Y-110000000D01*
X155300011Y-115027175D02*
X155300011Y-113875732D01*
X153160000Y-123112837D02*
X156200042Y-120072795D01*
X156200042Y-120072795D02*
X156200042Y-115927206D01*
X151000000Y-110000000D02*
X128350000Y-110000000D01*
X152124268Y-110699989D02*
X151699989Y-110699989D01*
X155300011Y-113875732D02*
X152124268Y-110699989D01*
X156200042Y-115927206D02*
X155300011Y-115027175D01*
X150620000Y-128000000D02*
X150620000Y-125228557D01*
X155900031Y-116051473D02*
X150248536Y-110399978D01*
X155900031Y-119948527D02*
X155900031Y-116051473D01*
X119989999Y-104179999D02*
X119190000Y-103380000D01*
X126209978Y-110399978D02*
X119989999Y-104179999D01*
X150620000Y-125228557D02*
X155900031Y-119948527D01*
X150248536Y-110399978D02*
X126209978Y-110399978D01*
X121429989Y-110699989D02*
X114909999Y-104179999D01*
X149169800Y-125970400D02*
X149453879Y-125970400D01*
X114909999Y-104179999D02*
X114110000Y-103380000D01*
X155600020Y-116175741D02*
X150124268Y-110699989D01*
X148080000Y-127060200D02*
X149169800Y-125970400D01*
X149453879Y-125970400D02*
X155600020Y-119824259D01*
X150124268Y-110699989D02*
X121429989Y-110699989D01*
X155600020Y-119824259D02*
X155600020Y-116175741D01*
X148080000Y-128000000D02*
X148080000Y-127060200D01*
X155300009Y-119699991D02*
X155300009Y-116300009D01*
X145540000Y-127060200D02*
X150600200Y-122000000D01*
X155300009Y-116300009D02*
X150000000Y-111000000D01*
X150000000Y-111000000D02*
X119190000Y-111000000D01*
X153000000Y-122000000D02*
X155300009Y-119699991D01*
X145540000Y-128000000D02*
X145540000Y-127060200D01*
X112369999Y-104179999D02*
X111570000Y-103380000D01*
X119190000Y-111000000D02*
X112369999Y-104179999D01*
X150600200Y-122000000D02*
X153000000Y-122000000D01*
X117650000Y-112000000D02*
X109030000Y-103380000D01*
X150000000Y-112000000D02*
X117650000Y-112000000D01*
X143000000Y-127060200D02*
X149060200Y-121000000D01*
X143000000Y-128000000D02*
X143000000Y-127060200D01*
X149060200Y-121000000D02*
X153000000Y-121000000D01*
X153000000Y-121000000D02*
X155000000Y-119000000D01*
X155000000Y-119000000D02*
X155000000Y-117000000D01*
X155000000Y-117000000D02*
X150000000Y-112000000D01*
X104442001Y-117594999D02*
X105467002Y-118620000D01*
X96060000Y-128000000D02*
X96060000Y-127060200D01*
X96060000Y-127060200D02*
X102924999Y-120195201D01*
X102924999Y-120195201D02*
X102924999Y-118127999D01*
X103457999Y-117594999D02*
X104442001Y-117594999D01*
X105467002Y-118620000D02*
X106490000Y-118620000D01*
X102924999Y-118127999D02*
X103457999Y-117594999D01*
X98600000Y-125970400D02*
X104000000Y-120570400D01*
X98600000Y-128000000D02*
X98600000Y-125970400D01*
X103950000Y-120520400D02*
X103950000Y-118620000D01*
X104000000Y-120570400D02*
X103950000Y-120520400D01*
X101140000Y-128000000D02*
X101140000Y-124460000D01*
X101140000Y-124460000D02*
X102200000Y-123400000D01*
X97129999Y-117820001D02*
X96330000Y-118620000D01*
X103333731Y-117294988D02*
X103033721Y-117594999D01*
X106220000Y-128000000D02*
X106220000Y-120407002D01*
X106220000Y-120407002D02*
X107600000Y-119027002D01*
X107600000Y-119027002D02*
X107600000Y-118212998D01*
X107600000Y-118212998D02*
X106982001Y-117594999D01*
X104866279Y-117594999D02*
X104566269Y-117294988D01*
X104566269Y-117294988D02*
X103333731Y-117294988D01*
X97355001Y-117594999D02*
X97129999Y-117820001D01*
X106982001Y-117594999D02*
X104866279Y-117594999D01*
X103033721Y-117594999D02*
X97355001Y-117594999D01*
X107800000Y-125010400D02*
X107800000Y-119251281D01*
X103209463Y-116994977D02*
X102909452Y-117294988D01*
X107106269Y-117294988D02*
X104990547Y-117294988D01*
X96930723Y-117594999D02*
X94815001Y-117594999D01*
X94589999Y-117820001D02*
X93790000Y-118620000D01*
X97230733Y-117294988D02*
X96930723Y-117594999D01*
X94815001Y-117594999D02*
X94589999Y-117820001D01*
X104690537Y-116994977D02*
X103209463Y-116994977D01*
X108760000Y-125970400D02*
X107800000Y-125010400D01*
X104990547Y-117294988D02*
X104690537Y-116994977D01*
X107900011Y-118088730D02*
X107106269Y-117294988D01*
X107900011Y-119151270D02*
X107900011Y-118088730D01*
X107800000Y-119251281D02*
X107900011Y-119151270D01*
X102909452Y-117294988D02*
X97230733Y-117294988D01*
X108760000Y-128000000D02*
X108760000Y-125970400D01*
X100195012Y-109785012D02*
X93790000Y-103380000D01*
X107785012Y-109785012D02*
X100195012Y-109785012D01*
X111300000Y-125970400D02*
X110055001Y-124725401D01*
X111300000Y-128000000D02*
X111300000Y-125970400D01*
X110055001Y-124725401D02*
X110055001Y-113744999D01*
X110055001Y-113744999D02*
X110000000Y-113689998D01*
X110000000Y-113689998D02*
X110000000Y-112000000D01*
X110000000Y-112000000D02*
X107785012Y-109785012D01*
X102435001Y-109485001D02*
X97129999Y-104179999D01*
X113840000Y-128000000D02*
X113840000Y-125970400D01*
X113840000Y-125970400D02*
X110400000Y-122530400D01*
X108085001Y-109485001D02*
X102435001Y-109485001D01*
X97129999Y-104179999D02*
X96330000Y-103380000D01*
X110500009Y-111900009D02*
X108085001Y-109485001D01*
X110500009Y-115524269D02*
X110500009Y-111900009D01*
X110400000Y-115624278D02*
X110500009Y-115524269D01*
X110400000Y-122530400D02*
X110400000Y-115624278D01*
X112595001Y-113047999D02*
X106547002Y-107000000D01*
X112595001Y-123275201D02*
X112595001Y-113047999D01*
X116380000Y-127060200D02*
X112595001Y-123275201D01*
X116380000Y-128000000D02*
X116380000Y-127060200D01*
X102490000Y-107000000D02*
X98870000Y-103380000D01*
X106547002Y-107000000D02*
X102490000Y-107000000D01*
X112895012Y-119945412D02*
X112895012Y-111792012D01*
X102924999Y-104894999D02*
X102209999Y-104179999D01*
X107515001Y-105427999D02*
X106982001Y-104894999D01*
X102209999Y-104179999D02*
X101410000Y-103380000D01*
X107515001Y-106412001D02*
X107515001Y-105427999D01*
X112895012Y-111792012D02*
X107515001Y-106412001D01*
X118920000Y-125970400D02*
X112895012Y-119945412D01*
X118920000Y-128000000D02*
X118920000Y-125970400D01*
X106982001Y-104894999D02*
X102924999Y-104894999D01*
X120215001Y-118127999D02*
X107815012Y-105728010D01*
X107815012Y-105303731D02*
X106916282Y-104405001D01*
X107815012Y-105728010D02*
X107815012Y-105303731D01*
X104975001Y-104405001D02*
X104749999Y-104179999D01*
X106916282Y-104405001D02*
X104975001Y-104405001D01*
X121460000Y-120460000D02*
X120215001Y-119215001D01*
X104749999Y-104179999D02*
X103950000Y-103380000D01*
X120215001Y-119215001D02*
X120215001Y-118127999D01*
X121460000Y-128000000D02*
X121460000Y-120460000D01*
X120515012Y-117405012D02*
X107289999Y-104179999D01*
X107289999Y-104179999D02*
X106490000Y-103380000D01*
X124000000Y-128000000D02*
X124000000Y-122575721D01*
X124000000Y-122575721D02*
X120515012Y-119090733D01*
X120515012Y-119090733D02*
X120515012Y-117405012D01*
D16*
G36*
X236340000Y-131340000D02*
G01*
X84660000Y-131340000D01*
X84660000Y-129911225D01*
X84781062Y-130058739D01*
X85020856Y-130255533D01*
X85294435Y-130401765D01*
X85591286Y-130491813D01*
X85900000Y-130522219D01*
X86208715Y-130491813D01*
X86505566Y-130401765D01*
X86779145Y-130255533D01*
X87018939Y-130058739D01*
X87170001Y-129874670D01*
X87321062Y-130058739D01*
X87560856Y-130255533D01*
X87834435Y-130401765D01*
X88131286Y-130491813D01*
X88440000Y-130522219D01*
X88748715Y-130491813D01*
X89045566Y-130401765D01*
X89319145Y-130255533D01*
X89558939Y-130058739D01*
X89710001Y-129874670D01*
X89861062Y-130058739D01*
X90100856Y-130255533D01*
X90374435Y-130401765D01*
X90671286Y-130491813D01*
X90980000Y-130522219D01*
X91288715Y-130491813D01*
X91585566Y-130401765D01*
X91859145Y-130255533D01*
X92098939Y-130058739D01*
X92250001Y-129874670D01*
X92401062Y-130058739D01*
X92640856Y-130255533D01*
X92914435Y-130401765D01*
X93211286Y-130491813D01*
X93520000Y-130522219D01*
X93828715Y-130491813D01*
X94125566Y-130401765D01*
X94399145Y-130255533D01*
X94638939Y-130058739D01*
X94790001Y-129874670D01*
X94941062Y-130058739D01*
X95180856Y-130255533D01*
X95454435Y-130401765D01*
X95751286Y-130491813D01*
X96060000Y-130522219D01*
X96368715Y-130491813D01*
X96665566Y-130401765D01*
X96939145Y-130255533D01*
X97178939Y-130058739D01*
X97330001Y-129874670D01*
X97481062Y-130058739D01*
X97720856Y-130255533D01*
X97994435Y-130401765D01*
X98291286Y-130491813D01*
X98600000Y-130522219D01*
X98908715Y-130491813D01*
X99205566Y-130401765D01*
X99479145Y-130255533D01*
X99718939Y-130058739D01*
X99870001Y-129874670D01*
X100021062Y-130058739D01*
X100260856Y-130255533D01*
X100534435Y-130401765D01*
X100831286Y-130491813D01*
X101140000Y-130522219D01*
X101448715Y-130491813D01*
X101745566Y-130401765D01*
X102019145Y-130255533D01*
X102258939Y-130058739D01*
X102410001Y-129874670D01*
X102561062Y-130058739D01*
X102800856Y-130255533D01*
X103074435Y-130401765D01*
X103371286Y-130491813D01*
X103680000Y-130522219D01*
X103988715Y-130491813D01*
X104285566Y-130401765D01*
X104559145Y-130255533D01*
X104798939Y-130058739D01*
X104950001Y-129874670D01*
X105101062Y-130058739D01*
X105340856Y-130255533D01*
X105614435Y-130401765D01*
X105911286Y-130491813D01*
X106220000Y-130522219D01*
X106528715Y-130491813D01*
X106825566Y-130401765D01*
X107099145Y-130255533D01*
X107338939Y-130058739D01*
X107490001Y-129874670D01*
X107641062Y-130058739D01*
X107880856Y-130255533D01*
X108154435Y-130401765D01*
X108451286Y-130491813D01*
X108760000Y-130522219D01*
X109068715Y-130491813D01*
X109365566Y-130401765D01*
X109639145Y-130255533D01*
X109878939Y-130058739D01*
X110030001Y-129874670D01*
X110181062Y-130058739D01*
X110420856Y-130255533D01*
X110694435Y-130401765D01*
X110991286Y-130491813D01*
X111300000Y-130522219D01*
X111608715Y-130491813D01*
X111905566Y-130401765D01*
X112179145Y-130255533D01*
X112418939Y-130058739D01*
X112570001Y-129874670D01*
X112721062Y-130058739D01*
X112960856Y-130255533D01*
X113234435Y-130401765D01*
X113531286Y-130491813D01*
X113840000Y-130522219D01*
X114148715Y-130491813D01*
X114445566Y-130401765D01*
X114719145Y-130255533D01*
X114958939Y-130058739D01*
X115110001Y-129874670D01*
X115261062Y-130058739D01*
X115500856Y-130255533D01*
X115774435Y-130401765D01*
X116071286Y-130491813D01*
X116380000Y-130522219D01*
X116688715Y-130491813D01*
X116985566Y-130401765D01*
X117259145Y-130255533D01*
X117498939Y-130058739D01*
X117650001Y-129874670D01*
X117801062Y-130058739D01*
X118040856Y-130255533D01*
X118314435Y-130401765D01*
X118611286Y-130491813D01*
X118920000Y-130522219D01*
X119228715Y-130491813D01*
X119525566Y-130401765D01*
X119799145Y-130255533D01*
X120038939Y-130058739D01*
X120190001Y-129874670D01*
X120341062Y-130058739D01*
X120580856Y-130255533D01*
X120854435Y-130401765D01*
X121151286Y-130491813D01*
X121460000Y-130522219D01*
X121768715Y-130491813D01*
X122065566Y-130401765D01*
X122339145Y-130255533D01*
X122578939Y-130058739D01*
X122730001Y-129874670D01*
X122881062Y-130058739D01*
X123120856Y-130255533D01*
X123394435Y-130401765D01*
X123691286Y-130491813D01*
X124000000Y-130522219D01*
X124308715Y-130491813D01*
X124605566Y-130401765D01*
X124879145Y-130255533D01*
X125118939Y-130058739D01*
X125315733Y-129818945D01*
X125461965Y-129545366D01*
X125552013Y-129248515D01*
X125574800Y-129017156D01*
X125574800Y-126982844D01*
X125552013Y-126751485D01*
X125461965Y-126454634D01*
X125315733Y-126181055D01*
X125118939Y-125941261D01*
X124879144Y-125744467D01*
X124710000Y-125654057D01*
X124710000Y-122610595D01*
X124713435Y-122575720D01*
X124708971Y-122530400D01*
X124699727Y-122436537D01*
X124659128Y-122302701D01*
X124593200Y-122179358D01*
X124504475Y-122071246D01*
X124477384Y-122049013D01*
X122346316Y-119917946D01*
X122409727Y-119891680D01*
X122644759Y-119734637D01*
X122844637Y-119534759D01*
X123000000Y-119302241D01*
X123155363Y-119534759D01*
X123355241Y-119734637D01*
X123590273Y-119891680D01*
X123851426Y-119999853D01*
X124128665Y-120055000D01*
X124411335Y-120055000D01*
X124688574Y-119999853D01*
X124949727Y-119891680D01*
X125184759Y-119734637D01*
X125384637Y-119534759D01*
X125540000Y-119302241D01*
X125695363Y-119534759D01*
X125895241Y-119734637D01*
X126130273Y-119891680D01*
X126391426Y-119999853D01*
X126668665Y-120055000D01*
X126951335Y-120055000D01*
X127228574Y-119999853D01*
X127489727Y-119891680D01*
X127724759Y-119734637D01*
X127924637Y-119534759D01*
X128080000Y-119302241D01*
X128235363Y-119534759D01*
X128435241Y-119734637D01*
X128670273Y-119891680D01*
X128931426Y-119999853D01*
X129208665Y-120055000D01*
X129491335Y-120055000D01*
X129768574Y-119999853D01*
X130029727Y-119891680D01*
X130264759Y-119734637D01*
X130464637Y-119534759D01*
X130620000Y-119302241D01*
X130775363Y-119534759D01*
X130975241Y-119734637D01*
X131210273Y-119891680D01*
X131471426Y-119999853D01*
X131748665Y-120055000D01*
X132031335Y-120055000D01*
X132308574Y-119999853D01*
X132569727Y-119891680D01*
X132804759Y-119734637D01*
X133004637Y-119534759D01*
X133160000Y-119302241D01*
X133315363Y-119534759D01*
X133515241Y-119734637D01*
X133750273Y-119891680D01*
X134011426Y-119999853D01*
X134288665Y-120055000D01*
X134571335Y-120055000D01*
X134848574Y-119999853D01*
X135109727Y-119891680D01*
X135344759Y-119734637D01*
X135544637Y-119534759D01*
X135700000Y-119302241D01*
X135855363Y-119534759D01*
X136055241Y-119734637D01*
X136290273Y-119891680D01*
X136551426Y-119999853D01*
X136828665Y-120055000D01*
X137111335Y-120055000D01*
X137388574Y-119999853D01*
X137649727Y-119891680D01*
X137884759Y-119734637D01*
X138084637Y-119534759D01*
X138240000Y-119302241D01*
X138395363Y-119534759D01*
X138595241Y-119734637D01*
X138830273Y-119891680D01*
X139091426Y-119999853D01*
X139368665Y-120055000D01*
X139651335Y-120055000D01*
X139928574Y-119999853D01*
X140189727Y-119891680D01*
X140424759Y-119734637D01*
X140624637Y-119534759D01*
X140780000Y-119302241D01*
X140935363Y-119534759D01*
X141135241Y-119734637D01*
X141370273Y-119891680D01*
X141631426Y-119999853D01*
X141908665Y-120055000D01*
X142191335Y-120055000D01*
X142468574Y-119999853D01*
X142729727Y-119891680D01*
X142964759Y-119734637D01*
X143164637Y-119534759D01*
X143320000Y-119302241D01*
X143475363Y-119534759D01*
X143675241Y-119734637D01*
X143910273Y-119891680D01*
X144171426Y-119999853D01*
X144448665Y-120055000D01*
X144731335Y-120055000D01*
X145008574Y-119999853D01*
X145269727Y-119891680D01*
X145504759Y-119734637D01*
X145704637Y-119534759D01*
X145860000Y-119302241D01*
X146015363Y-119534759D01*
X146215241Y-119734637D01*
X146450273Y-119891680D01*
X146711426Y-119999853D01*
X146988665Y-120055000D01*
X147271335Y-120055000D01*
X147548574Y-119999853D01*
X147809727Y-119891680D01*
X148044759Y-119734637D01*
X148244637Y-119534759D01*
X148400000Y-119302241D01*
X148555363Y-119534759D01*
X148755241Y-119734637D01*
X148990273Y-119891680D01*
X149251426Y-119999853D01*
X149528665Y-120055000D01*
X149811335Y-120055000D01*
X150088574Y-119999853D01*
X150349727Y-119891680D01*
X150584759Y-119734637D01*
X150784637Y-119534759D01*
X150940000Y-119302241D01*
X151095363Y-119534759D01*
X151295241Y-119734637D01*
X151530273Y-119891680D01*
X151791426Y-119999853D01*
X152068665Y-120055000D01*
X152351335Y-120055000D01*
X152628574Y-119999853D01*
X152889727Y-119891680D01*
X153124759Y-119734637D01*
X153324637Y-119534759D01*
X153481680Y-119299727D01*
X153589853Y-119038574D01*
X153645000Y-118761335D01*
X153645000Y-118478665D01*
X153589853Y-118201426D01*
X153481680Y-117940273D01*
X153324637Y-117705241D01*
X153124759Y-117505363D01*
X152889727Y-117348320D01*
X152628574Y-117240147D01*
X152351335Y-117185000D01*
X152068665Y-117185000D01*
X151791426Y-117240147D01*
X151530273Y-117348320D01*
X151295241Y-117505363D01*
X151095363Y-117705241D01*
X150940000Y-117937759D01*
X150784637Y-117705241D01*
X150584759Y-117505363D01*
X150352241Y-117350000D01*
X150584759Y-117194637D01*
X150784637Y-116994759D01*
X150941680Y-116759727D01*
X151049853Y-116498574D01*
X151105000Y-116221335D01*
X151105000Y-115938665D01*
X151049853Y-115661426D01*
X150941680Y-115400273D01*
X150784637Y-115165241D01*
X150584759Y-114965363D01*
X150349727Y-114808320D01*
X150088574Y-114700147D01*
X149811335Y-114645000D01*
X149528665Y-114645000D01*
X149251426Y-114700147D01*
X148990273Y-114808320D01*
X148755241Y-114965363D01*
X148555363Y-115165241D01*
X148398320Y-115400273D01*
X148290147Y-115661426D01*
X148235000Y-115938665D01*
X148235000Y-116221335D01*
X148290147Y-116498574D01*
X148398320Y-116759727D01*
X148555363Y-116994759D01*
X148755241Y-117194637D01*
X148987759Y-117350000D01*
X148755241Y-117505363D01*
X148555363Y-117705241D01*
X148400000Y-117937759D01*
X148244637Y-117705241D01*
X148044759Y-117505363D01*
X147809727Y-117348320D01*
X147548574Y-117240147D01*
X147271335Y-117185000D01*
X146988665Y-117185000D01*
X146711426Y-117240147D01*
X146450273Y-117348320D01*
X146215241Y-117505363D01*
X146015363Y-117705241D01*
X145860000Y-117937759D01*
X145704637Y-117705241D01*
X145504759Y-117505363D01*
X145272241Y-117350000D01*
X145504759Y-117194637D01*
X145704637Y-116994759D01*
X145861680Y-116759727D01*
X145969853Y-116498574D01*
X146025000Y-116221335D01*
X146025000Y-115938665D01*
X145969853Y-115661426D01*
X145861680Y-115400273D01*
X145704637Y-115165241D01*
X145504759Y-114965363D01*
X145269727Y-114808320D01*
X145008574Y-114700147D01*
X144731335Y-114645000D01*
X144448665Y-114645000D01*
X144171426Y-114700147D01*
X143910273Y-114808320D01*
X143675241Y-114965363D01*
X143475363Y-115165241D01*
X143320000Y-115397759D01*
X143164637Y-115165241D01*
X142964759Y-114965363D01*
X142729727Y-114808320D01*
X142468574Y-114700147D01*
X142191335Y-114645000D01*
X141908665Y-114645000D01*
X141631426Y-114700147D01*
X141370273Y-114808320D01*
X141135241Y-114965363D01*
X140935363Y-115165241D01*
X140780000Y-115397759D01*
X140624637Y-115165241D01*
X140424759Y-114965363D01*
X140189727Y-114808320D01*
X139928574Y-114700147D01*
X139651335Y-114645000D01*
X139368665Y-114645000D01*
X139091426Y-114700147D01*
X138830273Y-114808320D01*
X138595241Y-114965363D01*
X138395363Y-115165241D01*
X138238320Y-115400273D01*
X138130147Y-115661426D01*
X138075000Y-115938665D01*
X138075000Y-116221335D01*
X138130147Y-116498574D01*
X138238320Y-116759727D01*
X138395363Y-116994759D01*
X138595241Y-117194637D01*
X138827759Y-117350000D01*
X138595241Y-117505363D01*
X138395363Y-117705241D01*
X138240000Y-117937759D01*
X138084637Y-117705241D01*
X137884759Y-117505363D01*
X137649727Y-117348320D01*
X137388574Y-117240147D01*
X137111335Y-117185000D01*
X136828665Y-117185000D01*
X136551426Y-117240147D01*
X136290273Y-117348320D01*
X136055241Y-117505363D01*
X135855363Y-117705241D01*
X135700000Y-117937759D01*
X135544637Y-117705241D01*
X135344759Y-117505363D01*
X135109727Y-117348320D01*
X134848574Y-117240147D01*
X134571335Y-117185000D01*
X134288665Y-117185000D01*
X134011426Y-117240147D01*
X133750273Y-117348320D01*
X133515241Y-117505363D01*
X133315363Y-117705241D01*
X133160000Y-117937759D01*
X133004637Y-117705241D01*
X132804759Y-117505363D01*
X132569727Y-117348320D01*
X132308574Y-117240147D01*
X132031335Y-117185000D01*
X131748665Y-117185000D01*
X131471426Y-117240147D01*
X131210273Y-117348320D01*
X130975241Y-117505363D01*
X130775363Y-117705241D01*
X130620000Y-117937759D01*
X130464637Y-117705241D01*
X130264759Y-117505363D01*
X130029727Y-117348320D01*
X129768574Y-117240147D01*
X129491335Y-117185000D01*
X129208665Y-117185000D01*
X128931426Y-117240147D01*
X128670273Y-117348320D01*
X128435241Y-117505363D01*
X128235363Y-117705241D01*
X128080000Y-117937759D01*
X127924637Y-117705241D01*
X127724759Y-117505363D01*
X127489727Y-117348320D01*
X127228574Y-117240147D01*
X126951335Y-117185000D01*
X126668665Y-117185000D01*
X126391426Y-117240147D01*
X126130273Y-117348320D01*
X125895241Y-117505363D01*
X125695363Y-117705241D01*
X125540000Y-117937759D01*
X125384637Y-117705241D01*
X125184759Y-117505363D01*
X124949727Y-117348320D01*
X124688574Y-117240147D01*
X124411335Y-117185000D01*
X124128665Y-117185000D01*
X123851426Y-117240147D01*
X123590273Y-117348320D01*
X123355241Y-117505363D01*
X123155363Y-117705241D01*
X123000000Y-117937759D01*
X122844637Y-117705241D01*
X122644759Y-117505363D01*
X122409727Y-117348320D01*
X122148574Y-117240147D01*
X121871335Y-117185000D01*
X121588665Y-117185000D01*
X121311426Y-117240147D01*
X121216099Y-117279633D01*
X121214739Y-117265828D01*
X121174140Y-117131992D01*
X121108212Y-117008649D01*
X121019487Y-116900537D01*
X120992391Y-116878300D01*
X108929091Y-104815000D01*
X109171335Y-104815000D01*
X109412865Y-104766956D01*
X117123288Y-112477379D01*
X117145525Y-112504475D01*
X117253637Y-112593200D01*
X117376980Y-112659128D01*
X117510816Y-112699727D01*
X117615123Y-112710000D01*
X117615125Y-112710000D01*
X117650000Y-112713435D01*
X117684875Y-112710000D01*
X149705909Y-112710000D01*
X154290001Y-117294092D01*
X154290000Y-118705908D01*
X152705909Y-120290000D01*
X149095074Y-120290000D01*
X149060199Y-120286565D01*
X149025324Y-120290000D01*
X149025323Y-120290000D01*
X148921016Y-120300273D01*
X148787180Y-120340872D01*
X148663837Y-120406800D01*
X148555725Y-120495525D01*
X148533492Y-120522616D01*
X143492248Y-125563861D01*
X143308714Y-125508187D01*
X143000000Y-125477781D01*
X142691285Y-125508187D01*
X142394434Y-125598235D01*
X142120855Y-125744467D01*
X141881061Y-125941261D01*
X141684267Y-126181056D01*
X141538035Y-126454635D01*
X141447987Y-126751486D01*
X141425200Y-126982845D01*
X141425201Y-129017156D01*
X141447988Y-129248515D01*
X141538036Y-129545366D01*
X141684268Y-129818945D01*
X141881062Y-130058739D01*
X142120856Y-130255533D01*
X142394435Y-130401765D01*
X142691286Y-130491813D01*
X143000000Y-130522219D01*
X143308715Y-130491813D01*
X143605566Y-130401765D01*
X143879145Y-130255533D01*
X144118939Y-130058739D01*
X144270001Y-129874670D01*
X144421062Y-130058739D01*
X144660856Y-130255533D01*
X144934435Y-130401765D01*
X145231286Y-130491813D01*
X145540000Y-130522219D01*
X145848715Y-130491813D01*
X146145566Y-130401765D01*
X146419145Y-130255533D01*
X146658939Y-130058739D01*
X146810001Y-129874670D01*
X146961062Y-130058739D01*
X147200856Y-130255533D01*
X147474435Y-130401765D01*
X147771286Y-130491813D01*
X148080000Y-130522219D01*
X148388715Y-130491813D01*
X148685566Y-130401765D01*
X148959145Y-130255533D01*
X149198939Y-130058739D01*
X149350001Y-129874670D01*
X149501062Y-130058739D01*
X149740856Y-130255533D01*
X150014435Y-130401765D01*
X150311286Y-130491813D01*
X150620000Y-130522219D01*
X150928715Y-130491813D01*
X151225566Y-130401765D01*
X151499145Y-130255533D01*
X151738939Y-130058739D01*
X151890001Y-129874670D01*
X152041062Y-130058739D01*
X152280856Y-130255533D01*
X152554435Y-130401765D01*
X152851286Y-130491813D01*
X153160000Y-130522219D01*
X153468715Y-130491813D01*
X153765566Y-130401765D01*
X154039145Y-130255533D01*
X154278939Y-130058739D01*
X154430001Y-129874670D01*
X154581062Y-130058739D01*
X154820856Y-130255533D01*
X155094435Y-130401765D01*
X155391286Y-130491813D01*
X155700000Y-130522219D01*
X156008715Y-130491813D01*
X156305566Y-130401765D01*
X156579145Y-130255533D01*
X156818939Y-130058739D01*
X156970001Y-129874670D01*
X157121062Y-130058739D01*
X157360856Y-130255533D01*
X157634435Y-130401765D01*
X157931286Y-130491813D01*
X158240000Y-130522219D01*
X158548715Y-130491813D01*
X158845566Y-130401765D01*
X159119145Y-130255533D01*
X159358939Y-130058739D01*
X159510001Y-129874670D01*
X159661062Y-130058739D01*
X159900856Y-130255533D01*
X160174435Y-130401765D01*
X160471286Y-130491813D01*
X160780000Y-130522219D01*
X161088715Y-130491813D01*
X161385566Y-130401765D01*
X161659145Y-130255533D01*
X161898939Y-130058739D01*
X162050001Y-129874670D01*
X162201062Y-130058739D01*
X162440856Y-130255533D01*
X162714435Y-130401765D01*
X163011286Y-130491813D01*
X163320000Y-130522219D01*
X163628715Y-130491813D01*
X163925566Y-130401765D01*
X164199145Y-130255533D01*
X164438939Y-130058739D01*
X164590001Y-129874670D01*
X164741062Y-130058739D01*
X164980856Y-130255533D01*
X165254435Y-130401765D01*
X165551286Y-130491813D01*
X165860000Y-130522219D01*
X166168715Y-130491813D01*
X166465566Y-130401765D01*
X166739145Y-130255533D01*
X166978939Y-130058739D01*
X167130001Y-129874670D01*
X167281062Y-130058739D01*
X167520856Y-130255533D01*
X167794435Y-130401765D01*
X168091286Y-130491813D01*
X168400000Y-130522219D01*
X168708715Y-130491813D01*
X169005566Y-130401765D01*
X169279145Y-130255533D01*
X169518939Y-130058739D01*
X169670001Y-129874670D01*
X169821062Y-130058739D01*
X170060856Y-130255533D01*
X170334435Y-130401765D01*
X170631286Y-130491813D01*
X170940000Y-130522219D01*
X171248715Y-130491813D01*
X171545566Y-130401765D01*
X171819145Y-130255533D01*
X172058939Y-130058739D01*
X172210001Y-129874670D01*
X172361062Y-130058739D01*
X172600856Y-130255533D01*
X172874435Y-130401765D01*
X173171286Y-130491813D01*
X173480000Y-130522219D01*
X173788715Y-130491813D01*
X174085566Y-130401765D01*
X174359145Y-130255533D01*
X174598939Y-130058739D01*
X174750001Y-129874670D01*
X174901062Y-130058739D01*
X175140856Y-130255533D01*
X175414435Y-130401765D01*
X175711286Y-130491813D01*
X176020000Y-130522219D01*
X176328715Y-130491813D01*
X176625566Y-130401765D01*
X176899145Y-130255533D01*
X177138939Y-130058739D01*
X177290001Y-129874670D01*
X177441062Y-130058739D01*
X177680856Y-130255533D01*
X177954435Y-130401765D01*
X178251286Y-130491813D01*
X178560000Y-130522219D01*
X178868715Y-130491813D01*
X179165566Y-130401765D01*
X179439145Y-130255533D01*
X179678939Y-130058739D01*
X179830001Y-129874670D01*
X179981062Y-130058739D01*
X180220856Y-130255533D01*
X180494435Y-130401765D01*
X180791286Y-130491813D01*
X181100000Y-130522219D01*
X181408715Y-130491813D01*
X181705566Y-130401765D01*
X181979145Y-130255533D01*
X182218939Y-130058739D01*
X182415733Y-129818945D01*
X182561965Y-129545366D01*
X182652013Y-129248515D01*
X182674800Y-129017156D01*
X182674800Y-126982844D01*
X182653354Y-126765098D01*
X196815000Y-126765098D01*
X196815000Y-127234902D01*
X196906654Y-127695679D01*
X197086440Y-128129721D01*
X197347450Y-128520349D01*
X197679651Y-128852550D01*
X198070279Y-129113560D01*
X198504321Y-129293346D01*
X198965098Y-129385000D01*
X199434902Y-129385000D01*
X199895679Y-129293346D01*
X200329721Y-129113560D01*
X200720349Y-128852550D01*
X201052550Y-128520349D01*
X201313560Y-128129721D01*
X201493346Y-127695679D01*
X201585000Y-127234902D01*
X201585000Y-126765098D01*
X202865000Y-126765098D01*
X202865000Y-127234902D01*
X202956654Y-127695679D01*
X203136440Y-128129721D01*
X203397450Y-128520349D01*
X203729651Y-128852550D01*
X204120279Y-129113560D01*
X204554321Y-129293346D01*
X205015098Y-129385000D01*
X205484902Y-129385000D01*
X205945679Y-129293346D01*
X206379721Y-129113560D01*
X206770349Y-128852550D01*
X207102550Y-128520349D01*
X207363560Y-128129721D01*
X207543346Y-127695679D01*
X207635000Y-127234902D01*
X207635000Y-126765098D01*
X217115000Y-126765098D01*
X217115000Y-127234902D01*
X217206654Y-127695679D01*
X217386440Y-128129721D01*
X217647450Y-128520349D01*
X217979651Y-128852550D01*
X218370279Y-129113560D01*
X218804321Y-129293346D01*
X219265098Y-129385000D01*
X219734902Y-129385000D01*
X220195679Y-129293346D01*
X220629721Y-129113560D01*
X221020349Y-128852550D01*
X221352550Y-128520349D01*
X221613560Y-128129721D01*
X221793346Y-127695679D01*
X221885000Y-127234902D01*
X221885000Y-126765098D01*
X222415000Y-126765098D01*
X222415000Y-127234902D01*
X222506654Y-127695679D01*
X222686440Y-128129721D01*
X222947450Y-128520349D01*
X223279651Y-128852550D01*
X223670279Y-129113560D01*
X224104321Y-129293346D01*
X224565098Y-129385000D01*
X225034902Y-129385000D01*
X225495679Y-129293346D01*
X225929721Y-129113560D01*
X226320349Y-128852550D01*
X226652550Y-128520349D01*
X226913560Y-128129721D01*
X227093346Y-127695679D01*
X227185000Y-127234902D01*
X227185000Y-126765098D01*
X227093346Y-126304321D01*
X226913560Y-125870279D01*
X226652550Y-125479651D01*
X226320349Y-125147450D01*
X225929721Y-124886440D01*
X225495679Y-124706654D01*
X225034902Y-124615000D01*
X224565098Y-124615000D01*
X224104321Y-124706654D01*
X223670279Y-124886440D01*
X223279651Y-125147450D01*
X222947450Y-125479651D01*
X222686440Y-125870279D01*
X222506654Y-126304321D01*
X222415000Y-126765098D01*
X221885000Y-126765098D01*
X221793346Y-126304321D01*
X221613560Y-125870279D01*
X221352550Y-125479651D01*
X221020349Y-125147450D01*
X220629721Y-124886440D01*
X220195679Y-124706654D01*
X219734902Y-124615000D01*
X219265098Y-124615000D01*
X218804321Y-124706654D01*
X218370279Y-124886440D01*
X217979651Y-125147450D01*
X217647450Y-125479651D01*
X217386440Y-125870279D01*
X217206654Y-126304321D01*
X217115000Y-126765098D01*
X207635000Y-126765098D01*
X207543346Y-126304321D01*
X207363560Y-125870279D01*
X207102550Y-125479651D01*
X206770349Y-125147450D01*
X206379721Y-124886440D01*
X205945679Y-124706654D01*
X205484902Y-124615000D01*
X205015098Y-124615000D01*
X204554321Y-124706654D01*
X204120279Y-124886440D01*
X203729651Y-125147450D01*
X203397450Y-125479651D01*
X203136440Y-125870279D01*
X202956654Y-126304321D01*
X202865000Y-126765098D01*
X201585000Y-126765098D01*
X201493346Y-126304321D01*
X201313560Y-125870279D01*
X201052550Y-125479651D01*
X200720349Y-125147450D01*
X200329721Y-124886440D01*
X199895679Y-124706654D01*
X199434902Y-124615000D01*
X198965098Y-124615000D01*
X198504321Y-124706654D01*
X198070279Y-124886440D01*
X197679651Y-125147450D01*
X197347450Y-125479651D01*
X197086440Y-125870279D01*
X196906654Y-126304321D01*
X196815000Y-126765098D01*
X182653354Y-126765098D01*
X182652013Y-126751485D01*
X182561965Y-126454634D01*
X182415733Y-126181055D01*
X182218939Y-125941261D01*
X181979144Y-125744467D01*
X181810000Y-125654057D01*
X181810000Y-110134874D01*
X181813435Y-110099999D01*
X181810000Y-110065123D01*
X181799727Y-109960816D01*
X181759128Y-109826980D01*
X181693200Y-109703637D01*
X181693199Y-109703635D01*
X181638053Y-109636440D01*
X181604475Y-109595525D01*
X181577384Y-109573292D01*
X173881711Y-101877620D01*
X173859474Y-101850524D01*
X173751362Y-101761799D01*
X173628019Y-101695871D01*
X173494183Y-101655272D01*
X173389876Y-101644999D01*
X173389874Y-101644999D01*
X173354999Y-101641564D01*
X173320124Y-101644999D01*
X150729876Y-101644999D01*
X150695001Y-101641564D01*
X150660126Y-101644999D01*
X150660124Y-101644999D01*
X150555817Y-101655272D01*
X150421981Y-101695871D01*
X150298638Y-101761799D01*
X150190526Y-101850524D01*
X150168285Y-101877625D01*
X150052865Y-101993044D01*
X149811335Y-101945000D01*
X149528665Y-101945000D01*
X149251426Y-102000147D01*
X148990273Y-102108320D01*
X148755241Y-102265363D01*
X148555363Y-102465241D01*
X148400000Y-102697759D01*
X148244637Y-102465241D01*
X148044759Y-102265363D01*
X147809727Y-102108320D01*
X147548574Y-102000147D01*
X147271335Y-101945000D01*
X146988665Y-101945000D01*
X146711426Y-102000147D01*
X146450273Y-102108320D01*
X146215241Y-102265363D01*
X146015363Y-102465241D01*
X145860000Y-102697759D01*
X145704637Y-102465241D01*
X145504759Y-102265363D01*
X145269727Y-102108320D01*
X145008574Y-102000147D01*
X144731335Y-101945000D01*
X144448665Y-101945000D01*
X144171426Y-102000147D01*
X143910273Y-102108320D01*
X143675241Y-102265363D01*
X143475363Y-102465241D01*
X143320000Y-102697759D01*
X143164637Y-102465241D01*
X142964759Y-102265363D01*
X142729727Y-102108320D01*
X142468574Y-102000147D01*
X142191335Y-101945000D01*
X141908665Y-101945000D01*
X141631426Y-102000147D01*
X141370273Y-102108320D01*
X141135241Y-102265363D01*
X140935363Y-102465241D01*
X140780000Y-102697759D01*
X140624637Y-102465241D01*
X140424759Y-102265363D01*
X140189727Y-102108320D01*
X139928574Y-102000147D01*
X139651335Y-101945000D01*
X139368665Y-101945000D01*
X139091426Y-102000147D01*
X138830273Y-102108320D01*
X138595241Y-102265363D01*
X138395363Y-102465241D01*
X138240000Y-102697759D01*
X138084637Y-102465241D01*
X137884759Y-102265363D01*
X137649727Y-102108320D01*
X137388574Y-102000147D01*
X137111335Y-101945000D01*
X136828665Y-101945000D01*
X136551426Y-102000147D01*
X136290273Y-102108320D01*
X136055241Y-102265363D01*
X135855363Y-102465241D01*
X135700000Y-102697759D01*
X135544637Y-102465241D01*
X135344759Y-102265363D01*
X135109727Y-102108320D01*
X134848574Y-102000147D01*
X134571335Y-101945000D01*
X134288665Y-101945000D01*
X134011426Y-102000147D01*
X133750273Y-102108320D01*
X133515241Y-102265363D01*
X133315363Y-102465241D01*
X133160000Y-102697759D01*
X133004637Y-102465241D01*
X132804759Y-102265363D01*
X132569727Y-102108320D01*
X132308574Y-102000147D01*
X132031335Y-101945000D01*
X131748665Y-101945000D01*
X131471426Y-102000147D01*
X131210273Y-102108320D01*
X130975241Y-102265363D01*
X130775363Y-102465241D01*
X130620000Y-102697759D01*
X130464637Y-102465241D01*
X130264759Y-102265363D01*
X130029727Y-102108320D01*
X129768574Y-102000147D01*
X129491335Y-101945000D01*
X129208665Y-101945000D01*
X128931426Y-102000147D01*
X128670273Y-102108320D01*
X128435241Y-102265363D01*
X128235363Y-102465241D01*
X128080000Y-102697759D01*
X127924637Y-102465241D01*
X127724759Y-102265363D01*
X127489727Y-102108320D01*
X127228574Y-102000147D01*
X126951335Y-101945000D01*
X126668665Y-101945000D01*
X126391426Y-102000147D01*
X126130273Y-102108320D01*
X125895241Y-102265363D01*
X125695363Y-102465241D01*
X125540000Y-102697759D01*
X125384637Y-102465241D01*
X125184759Y-102265363D01*
X124949727Y-102108320D01*
X124688574Y-102000147D01*
X124411335Y-101945000D01*
X124128665Y-101945000D01*
X123851426Y-102000147D01*
X123590273Y-102108320D01*
X123355241Y-102265363D01*
X123155363Y-102465241D01*
X123000000Y-102697759D01*
X122844637Y-102465241D01*
X122644759Y-102265363D01*
X122409727Y-102108320D01*
X122148574Y-102000147D01*
X121871335Y-101945000D01*
X121588665Y-101945000D01*
X121311426Y-102000147D01*
X121050273Y-102108320D01*
X120815241Y-102265363D01*
X120615363Y-102465241D01*
X120460000Y-102697759D01*
X120304637Y-102465241D01*
X120104759Y-102265363D01*
X119869727Y-102108320D01*
X119608574Y-102000147D01*
X119331335Y-101945000D01*
X119048665Y-101945000D01*
X118771426Y-102000147D01*
X118510273Y-102108320D01*
X118275241Y-102265363D01*
X118075363Y-102465241D01*
X117920000Y-102697759D01*
X117764637Y-102465241D01*
X117564759Y-102265363D01*
X117329727Y-102108320D01*
X117068574Y-102000147D01*
X116791335Y-101945000D01*
X116508665Y-101945000D01*
X116231426Y-102000147D01*
X115970273Y-102108320D01*
X115735241Y-102265363D01*
X115535363Y-102465241D01*
X115380000Y-102697759D01*
X115224637Y-102465241D01*
X115024759Y-102265363D01*
X114789727Y-102108320D01*
X114528574Y-102000147D01*
X114251335Y-101945000D01*
X113968665Y-101945000D01*
X113691426Y-102000147D01*
X113430273Y-102108320D01*
X113195241Y-102265363D01*
X112995363Y-102465241D01*
X112840000Y-102697759D01*
X112684637Y-102465241D01*
X112484759Y-102265363D01*
X112249727Y-102108320D01*
X111988574Y-102000147D01*
X111711335Y-101945000D01*
X111428665Y-101945000D01*
X111151426Y-102000147D01*
X110890273Y-102108320D01*
X110655241Y-102265363D01*
X110455363Y-102465241D01*
X110300000Y-102697759D01*
X110144637Y-102465241D01*
X109944759Y-102265363D01*
X109709727Y-102108320D01*
X109448574Y-102000147D01*
X109171335Y-101945000D01*
X108888665Y-101945000D01*
X108611426Y-102000147D01*
X108350273Y-102108320D01*
X108115241Y-102265363D01*
X107915363Y-102465241D01*
X107760000Y-102697759D01*
X107604637Y-102465241D01*
X107404759Y-102265363D01*
X107169727Y-102108320D01*
X106908574Y-102000147D01*
X106631335Y-101945000D01*
X106348665Y-101945000D01*
X106071426Y-102000147D01*
X105810273Y-102108320D01*
X105575241Y-102265363D01*
X105375363Y-102465241D01*
X105220000Y-102697759D01*
X105064637Y-102465241D01*
X104864759Y-102265363D01*
X104629727Y-102108320D01*
X104368574Y-102000147D01*
X104091335Y-101945000D01*
X103808665Y-101945000D01*
X103531426Y-102000147D01*
X103270273Y-102108320D01*
X103035241Y-102265363D01*
X102835363Y-102465241D01*
X102680000Y-102697759D01*
X102524637Y-102465241D01*
X102324759Y-102265363D01*
X102089727Y-102108320D01*
X101828574Y-102000147D01*
X101551335Y-101945000D01*
X101268665Y-101945000D01*
X100991426Y-102000147D01*
X100730273Y-102108320D01*
X100495241Y-102265363D01*
X100295363Y-102465241D01*
X100140000Y-102697759D01*
X99984637Y-102465241D01*
X99784759Y-102265363D01*
X99549727Y-102108320D01*
X99288574Y-102000147D01*
X99011335Y-101945000D01*
X98728665Y-101945000D01*
X98451426Y-102000147D01*
X98190273Y-102108320D01*
X97955241Y-102265363D01*
X97755363Y-102465241D01*
X97600000Y-102697759D01*
X97444637Y-102465241D01*
X97244759Y-102265363D01*
X97009727Y-102108320D01*
X96748574Y-102000147D01*
X96471335Y-101945000D01*
X96188665Y-101945000D01*
X95911426Y-102000147D01*
X95650273Y-102108320D01*
X95415241Y-102265363D01*
X95215363Y-102465241D01*
X95060000Y-102697759D01*
X94904637Y-102465241D01*
X94704759Y-102265363D01*
X94469727Y-102108320D01*
X94208574Y-102000147D01*
X93931335Y-101945000D01*
X93648665Y-101945000D01*
X93371426Y-102000147D01*
X93110273Y-102108320D01*
X92875241Y-102265363D01*
X92675363Y-102465241D01*
X92518320Y-102700273D01*
X92410147Y-102961426D01*
X92355000Y-103238665D01*
X92355000Y-103521335D01*
X92410147Y-103798574D01*
X92518320Y-104059727D01*
X92675363Y-104294759D01*
X92875241Y-104494637D01*
X93110273Y-104651680D01*
X93371426Y-104759853D01*
X93648665Y-104815000D01*
X93931335Y-104815000D01*
X94172865Y-104766956D01*
X99668300Y-110262391D01*
X99690537Y-110289487D01*
X99798649Y-110378212D01*
X99921992Y-110444140D01*
X100055828Y-110484739D01*
X100160135Y-110495012D01*
X100160137Y-110495012D01*
X100195012Y-110498447D01*
X100229887Y-110495012D01*
X105145941Y-110495012D01*
X105110147Y-110581426D01*
X105055000Y-110858665D01*
X105055000Y-111141335D01*
X105110147Y-111418574D01*
X105218320Y-111679727D01*
X105375363Y-111914759D01*
X105575241Y-112114637D01*
X105807759Y-112270000D01*
X105575241Y-112425363D01*
X105375363Y-112625241D01*
X105218320Y-112860273D01*
X105110147Y-113121426D01*
X105055000Y-113398665D01*
X105055000Y-113681335D01*
X105110147Y-113958574D01*
X105218320Y-114219727D01*
X105375363Y-114454759D01*
X105575241Y-114654637D01*
X105807759Y-114810000D01*
X105575241Y-114965363D01*
X105375363Y-115165241D01*
X105218320Y-115400273D01*
X105110147Y-115661426D01*
X105055000Y-115938665D01*
X105055000Y-116221335D01*
X105091672Y-116405693D01*
X105086900Y-116401777D01*
X104963557Y-116335849D01*
X104829721Y-116295250D01*
X104725414Y-116284977D01*
X104725413Y-116284977D01*
X104690538Y-116281542D01*
X104655663Y-116284977D01*
X103244338Y-116284977D01*
X103209463Y-116281542D01*
X103174588Y-116284977D01*
X103174586Y-116284977D01*
X103070279Y-116295250D01*
X102936443Y-116335849D01*
X102813100Y-116401777D01*
X102704988Y-116490502D01*
X102682747Y-116517603D01*
X102615362Y-116584988D01*
X97265606Y-116584988D01*
X97230731Y-116581553D01*
X97195856Y-116584988D01*
X97091549Y-116595261D01*
X96957713Y-116635860D01*
X96834370Y-116701788D01*
X96726258Y-116790513D01*
X96704016Y-116817615D01*
X96636632Y-116884999D01*
X94849876Y-116884999D01*
X94815001Y-116881564D01*
X94780126Y-116884999D01*
X94780124Y-116884999D01*
X94675817Y-116895272D01*
X94541981Y-116935871D01*
X94418638Y-117001799D01*
X94310526Y-117090524D01*
X94288285Y-117117625D01*
X94172865Y-117233044D01*
X93931335Y-117185000D01*
X93648665Y-117185000D01*
X93371426Y-117240147D01*
X93110273Y-117348320D01*
X92875241Y-117505363D01*
X92675363Y-117705241D01*
X92518320Y-117940273D01*
X92410147Y-118201426D01*
X92355000Y-118478665D01*
X92355000Y-118761335D01*
X92410147Y-119038574D01*
X92518320Y-119299727D01*
X92675363Y-119534759D01*
X92875241Y-119734637D01*
X93110273Y-119891680D01*
X93371426Y-119999853D01*
X93648665Y-120055000D01*
X93931335Y-120055000D01*
X94208574Y-119999853D01*
X94469727Y-119891680D01*
X94704759Y-119734637D01*
X94904637Y-119534759D01*
X95060000Y-119302241D01*
X95215363Y-119534759D01*
X95415241Y-119734637D01*
X95650273Y-119891680D01*
X95911426Y-119999853D01*
X96188665Y-120055000D01*
X96471335Y-120055000D01*
X96748574Y-119999853D01*
X97009727Y-119891680D01*
X97244759Y-119734637D01*
X97444637Y-119534759D01*
X97600000Y-119302241D01*
X97755363Y-119534759D01*
X97955241Y-119734637D01*
X98190273Y-119891680D01*
X98451426Y-119999853D01*
X98728665Y-120055000D01*
X99011335Y-120055000D01*
X99288574Y-119999853D01*
X99549727Y-119891680D01*
X99784759Y-119734637D01*
X99984637Y-119534759D01*
X100140000Y-119302241D01*
X100295363Y-119534759D01*
X100495241Y-119734637D01*
X100730273Y-119891680D01*
X100991426Y-119999853D01*
X101268665Y-120055000D01*
X101551335Y-120055000D01*
X101828574Y-119999853D01*
X102089727Y-119891680D01*
X102214999Y-119807976D01*
X102214999Y-119901110D01*
X96552248Y-125563861D01*
X96368714Y-125508187D01*
X96060000Y-125477781D01*
X95751285Y-125508187D01*
X95454434Y-125598235D01*
X95180855Y-125744467D01*
X94941061Y-125941261D01*
X94790000Y-126125330D01*
X94638939Y-125941261D01*
X94399144Y-125744467D01*
X94125565Y-125598235D01*
X93828714Y-125508187D01*
X93520000Y-125477781D01*
X93211285Y-125508187D01*
X92914434Y-125598235D01*
X92640855Y-125744467D01*
X92401061Y-125941261D01*
X92250000Y-126125330D01*
X92098939Y-125941261D01*
X91859144Y-125744467D01*
X91585565Y-125598235D01*
X91288714Y-125508187D01*
X90980000Y-125477781D01*
X90671285Y-125508187D01*
X90374434Y-125598235D01*
X90100855Y-125744467D01*
X89861061Y-125941261D01*
X89710000Y-126125330D01*
X89558939Y-125941261D01*
X89319144Y-125744467D01*
X89045565Y-125598235D01*
X88748714Y-125508187D01*
X88440000Y-125477781D01*
X88131285Y-125508187D01*
X87834434Y-125598235D01*
X87560855Y-125744467D01*
X87321061Y-125941261D01*
X87170000Y-126125330D01*
X87018939Y-125941261D01*
X86779144Y-125744467D01*
X86505565Y-125598235D01*
X86208714Y-125508187D01*
X85900000Y-125477781D01*
X85591285Y-125508187D01*
X85294434Y-125598235D01*
X85020855Y-125744467D01*
X84781061Y-125941261D01*
X84660000Y-126088775D01*
X84660000Y-110422789D01*
X84680244Y-110469315D01*
X84856845Y-110723749D01*
X85079691Y-110938841D01*
X85340217Y-111106325D01*
X85628412Y-111219764D01*
X85933200Y-111274800D01*
X86873000Y-111274800D01*
X86873000Y-109827000D01*
X87127000Y-109827000D01*
X87127000Y-111274800D01*
X88066800Y-111274800D01*
X88371588Y-111219764D01*
X88659783Y-111106325D01*
X88920309Y-110938841D01*
X89143155Y-110723749D01*
X89319756Y-110469315D01*
X89443326Y-110185317D01*
X89470279Y-110070987D01*
X89350143Y-109827000D01*
X87127000Y-109827000D01*
X86873000Y-109827000D01*
X86853000Y-109827000D01*
X86853000Y-109573000D01*
X86873000Y-109573000D01*
X86873000Y-109553000D01*
X87127000Y-109553000D01*
X87127000Y-109573000D01*
X89350143Y-109573000D01*
X89470279Y-109329013D01*
X89443326Y-109214683D01*
X89319756Y-108930685D01*
X89143155Y-108676251D01*
X88920309Y-108461159D01*
X88873427Y-108431020D01*
X89058739Y-108278939D01*
X89255533Y-108039145D01*
X89401765Y-107765566D01*
X89491813Y-107468715D01*
X89522219Y-107160000D01*
X89491813Y-106851285D01*
X89401765Y-106554434D01*
X89255533Y-106280855D01*
X89058739Y-106041061D01*
X88874671Y-105890000D01*
X89058739Y-105738939D01*
X89255533Y-105499145D01*
X89401765Y-105225566D01*
X89491813Y-104928715D01*
X89522219Y-104620000D01*
X89491813Y-104311285D01*
X89401765Y-104014434D01*
X89255533Y-103740855D01*
X89058739Y-103501061D01*
X88874671Y-103350000D01*
X89058739Y-103198939D01*
X89255533Y-102959145D01*
X89401765Y-102685566D01*
X89491813Y-102388715D01*
X89522219Y-102080000D01*
X89491813Y-101771285D01*
X89401765Y-101474434D01*
X89255533Y-101200855D01*
X89058739Y-100961061D01*
X88874671Y-100810000D01*
X89058739Y-100658939D01*
X89255533Y-100419145D01*
X89401765Y-100145566D01*
X89491813Y-99848715D01*
X89522219Y-99540000D01*
X89491813Y-99231285D01*
X89401765Y-98934434D01*
X89255533Y-98660855D01*
X89058739Y-98421061D01*
X88874671Y-98270000D01*
X89058739Y-98118939D01*
X89255533Y-97879145D01*
X89401765Y-97605566D01*
X89491813Y-97308715D01*
X89522219Y-97000000D01*
X89491813Y-96691285D01*
X89401765Y-96394434D01*
X89255533Y-96120855D01*
X89058739Y-95881061D01*
X88818945Y-95684267D01*
X88773545Y-95660000D01*
X236340001Y-95660000D01*
X236340000Y-131340000D01*
X236340000Y-131340000D01*
G37*
X236340000Y-131340000D02*
X84660000Y-131340000D01*
X84660000Y-129911225D01*
X84781062Y-130058739D01*
X85020856Y-130255533D01*
X85294435Y-130401765D01*
X85591286Y-130491813D01*
X85900000Y-130522219D01*
X86208715Y-130491813D01*
X86505566Y-130401765D01*
X86779145Y-130255533D01*
X87018939Y-130058739D01*
X87170001Y-129874670D01*
X87321062Y-130058739D01*
X87560856Y-130255533D01*
X87834435Y-130401765D01*
X88131286Y-130491813D01*
X88440000Y-130522219D01*
X88748715Y-130491813D01*
X89045566Y-130401765D01*
X89319145Y-130255533D01*
X89558939Y-130058739D01*
X89710001Y-129874670D01*
X89861062Y-130058739D01*
X90100856Y-130255533D01*
X90374435Y-130401765D01*
X90671286Y-130491813D01*
X90980000Y-130522219D01*
X91288715Y-130491813D01*
X91585566Y-130401765D01*
X91859145Y-130255533D01*
X92098939Y-130058739D01*
X92250001Y-129874670D01*
X92401062Y-130058739D01*
X92640856Y-130255533D01*
X92914435Y-130401765D01*
X93211286Y-130491813D01*
X93520000Y-130522219D01*
X93828715Y-130491813D01*
X94125566Y-130401765D01*
X94399145Y-130255533D01*
X94638939Y-130058739D01*
X94790001Y-129874670D01*
X94941062Y-130058739D01*
X95180856Y-130255533D01*
X95454435Y-130401765D01*
X95751286Y-130491813D01*
X96060000Y-130522219D01*
X96368715Y-130491813D01*
X96665566Y-130401765D01*
X96939145Y-130255533D01*
X97178939Y-130058739D01*
X97330001Y-129874670D01*
X97481062Y-130058739D01*
X97720856Y-130255533D01*
X97994435Y-130401765D01*
X98291286Y-130491813D01*
X98600000Y-130522219D01*
X98908715Y-130491813D01*
X99205566Y-130401765D01*
X99479145Y-130255533D01*
X99718939Y-130058739D01*
X99870001Y-129874670D01*
X100021062Y-130058739D01*
X100260856Y-130255533D01*
X100534435Y-130401765D01*
X100831286Y-130491813D01*
X101140000Y-130522219D01*
X101448715Y-130491813D01*
X101745566Y-130401765D01*
X102019145Y-130255533D01*
X102258939Y-130058739D01*
X102410001Y-129874670D01*
X102561062Y-130058739D01*
X102800856Y-130255533D01*
X103074435Y-130401765D01*
X103371286Y-130491813D01*
X103680000Y-130522219D01*
X103988715Y-130491813D01*
X104285566Y-130401765D01*
X104559145Y-130255533D01*
X104798939Y-130058739D01*
X104950001Y-129874670D01*
X105101062Y-130058739D01*
X105340856Y-130255533D01*
X105614435Y-130401765D01*
X105911286Y-130491813D01*
X106220000Y-130522219D01*
X106528715Y-130491813D01*
X106825566Y-130401765D01*
X107099145Y-130255533D01*
X107338939Y-130058739D01*
X107490001Y-129874670D01*
X107641062Y-130058739D01*
X107880856Y-130255533D01*
X108154435Y-130401765D01*
X108451286Y-130491813D01*
X108760000Y-130522219D01*
X109068715Y-130491813D01*
X109365566Y-130401765D01*
X109639145Y-130255533D01*
X109878939Y-130058739D01*
X110030001Y-129874670D01*
X110181062Y-130058739D01*
X110420856Y-130255533D01*
X110694435Y-130401765D01*
X110991286Y-130491813D01*
X111300000Y-130522219D01*
X111608715Y-130491813D01*
X111905566Y-130401765D01*
X112179145Y-130255533D01*
X112418939Y-130058739D01*
X112570001Y-129874670D01*
X112721062Y-130058739D01*
X112960856Y-130255533D01*
X113234435Y-130401765D01*
X113531286Y-130491813D01*
X113840000Y-130522219D01*
X114148715Y-130491813D01*
X114445566Y-130401765D01*
X114719145Y-130255533D01*
X114958939Y-130058739D01*
X115110001Y-129874670D01*
X115261062Y-130058739D01*
X115500856Y-130255533D01*
X115774435Y-130401765D01*
X116071286Y-130491813D01*
X116380000Y-130522219D01*
X116688715Y-130491813D01*
X116985566Y-130401765D01*
X117259145Y-130255533D01*
X117498939Y-130058739D01*
X117650001Y-129874670D01*
X117801062Y-130058739D01*
X118040856Y-130255533D01*
X118314435Y-130401765D01*
X118611286Y-130491813D01*
X118920000Y-130522219D01*
X119228715Y-130491813D01*
X119525566Y-130401765D01*
X119799145Y-130255533D01*
X120038939Y-130058739D01*
X120190001Y-129874670D01*
X120341062Y-130058739D01*
X120580856Y-130255533D01*
X120854435Y-130401765D01*
X121151286Y-130491813D01*
X121460000Y-130522219D01*
X121768715Y-130491813D01*
X122065566Y-130401765D01*
X122339145Y-130255533D01*
X122578939Y-130058739D01*
X122730001Y-129874670D01*
X122881062Y-130058739D01*
X123120856Y-130255533D01*
X123394435Y-130401765D01*
X123691286Y-130491813D01*
X124000000Y-130522219D01*
X124308715Y-130491813D01*
X124605566Y-130401765D01*
X124879145Y-130255533D01*
X125118939Y-130058739D01*
X125315733Y-129818945D01*
X125461965Y-129545366D01*
X125552013Y-129248515D01*
X125574800Y-129017156D01*
X125574800Y-126982844D01*
X125552013Y-126751485D01*
X125461965Y-126454634D01*
X125315733Y-126181055D01*
X125118939Y-125941261D01*
X124879144Y-125744467D01*
X124710000Y-125654057D01*
X124710000Y-122610595D01*
X124713435Y-122575720D01*
X124708971Y-122530400D01*
X124699727Y-122436537D01*
X124659128Y-122302701D01*
X124593200Y-122179358D01*
X124504475Y-122071246D01*
X124477384Y-122049013D01*
X122346316Y-119917946D01*
X122409727Y-119891680D01*
X122644759Y-119734637D01*
X122844637Y-119534759D01*
X123000000Y-119302241D01*
X123155363Y-119534759D01*
X123355241Y-119734637D01*
X123590273Y-119891680D01*
X123851426Y-119999853D01*
X124128665Y-120055000D01*
X124411335Y-120055000D01*
X124688574Y-119999853D01*
X124949727Y-119891680D01*
X125184759Y-119734637D01*
X125384637Y-119534759D01*
X125540000Y-119302241D01*
X125695363Y-119534759D01*
X125895241Y-119734637D01*
X126130273Y-119891680D01*
X126391426Y-119999853D01*
X126668665Y-120055000D01*
X126951335Y-120055000D01*
X127228574Y-119999853D01*
X127489727Y-119891680D01*
X127724759Y-119734637D01*
X127924637Y-119534759D01*
X128080000Y-119302241D01*
X128235363Y-119534759D01*
X128435241Y-119734637D01*
X128670273Y-119891680D01*
X128931426Y-119999853D01*
X129208665Y-120055000D01*
X129491335Y-120055000D01*
X129768574Y-119999853D01*
X130029727Y-119891680D01*
X130264759Y-119734637D01*
X130464637Y-119534759D01*
X130620000Y-119302241D01*
X130775363Y-119534759D01*
X130975241Y-119734637D01*
X131210273Y-119891680D01*
X131471426Y-119999853D01*
X131748665Y-120055000D01*
X132031335Y-120055000D01*
X132308574Y-119999853D01*
X132569727Y-119891680D01*
X132804759Y-119734637D01*
X133004637Y-119534759D01*
X133160000Y-119302241D01*
X133315363Y-119534759D01*
X133515241Y-119734637D01*
X133750273Y-119891680D01*
X134011426Y-119999853D01*
X134288665Y-120055000D01*
X134571335Y-120055000D01*
X134848574Y-119999853D01*
X135109727Y-119891680D01*
X135344759Y-119734637D01*
X135544637Y-119534759D01*
X135700000Y-119302241D01*
X135855363Y-119534759D01*
X136055241Y-119734637D01*
X136290273Y-119891680D01*
X136551426Y-119999853D01*
X136828665Y-120055000D01*
X137111335Y-120055000D01*
X137388574Y-119999853D01*
X137649727Y-119891680D01*
X137884759Y-119734637D01*
X138084637Y-119534759D01*
X138240000Y-119302241D01*
X138395363Y-119534759D01*
X138595241Y-119734637D01*
X138830273Y-119891680D01*
X139091426Y-119999853D01*
X139368665Y-120055000D01*
X139651335Y-120055000D01*
X139928574Y-119999853D01*
X140189727Y-119891680D01*
X140424759Y-119734637D01*
X140624637Y-119534759D01*
X140780000Y-119302241D01*
X140935363Y-119534759D01*
X141135241Y-119734637D01*
X141370273Y-119891680D01*
X141631426Y-119999853D01*
X141908665Y-120055000D01*
X142191335Y-120055000D01*
X142468574Y-119999853D01*
X142729727Y-119891680D01*
X142964759Y-119734637D01*
X143164637Y-119534759D01*
X143320000Y-119302241D01*
X143475363Y-119534759D01*
X143675241Y-119734637D01*
X143910273Y-119891680D01*
X144171426Y-119999853D01*
X144448665Y-120055000D01*
X144731335Y-120055000D01*
X145008574Y-119999853D01*
X145269727Y-119891680D01*
X145504759Y-119734637D01*
X145704637Y-119534759D01*
X145860000Y-119302241D01*
X146015363Y-119534759D01*
X146215241Y-119734637D01*
X146450273Y-119891680D01*
X146711426Y-119999853D01*
X146988665Y-120055000D01*
X147271335Y-120055000D01*
X147548574Y-119999853D01*
X147809727Y-119891680D01*
X148044759Y-119734637D01*
X148244637Y-119534759D01*
X148400000Y-119302241D01*
X148555363Y-119534759D01*
X148755241Y-119734637D01*
X148990273Y-119891680D01*
X149251426Y-119999853D01*
X149528665Y-120055000D01*
X149811335Y-120055000D01*
X150088574Y-119999853D01*
X150349727Y-119891680D01*
X150584759Y-119734637D01*
X150784637Y-119534759D01*
X150940000Y-119302241D01*
X151095363Y-119534759D01*
X151295241Y-119734637D01*
X151530273Y-119891680D01*
X151791426Y-119999853D01*
X152068665Y-120055000D01*
X152351335Y-120055000D01*
X152628574Y-119999853D01*
X152889727Y-119891680D01*
X153124759Y-119734637D01*
X153324637Y-119534759D01*
X153481680Y-119299727D01*
X153589853Y-119038574D01*
X153645000Y-118761335D01*
X153645000Y-118478665D01*
X153589853Y-118201426D01*
X153481680Y-117940273D01*
X153324637Y-117705241D01*
X153124759Y-117505363D01*
X152889727Y-117348320D01*
X152628574Y-117240147D01*
X152351335Y-117185000D01*
X152068665Y-117185000D01*
X151791426Y-117240147D01*
X151530273Y-117348320D01*
X151295241Y-117505363D01*
X151095363Y-117705241D01*
X150940000Y-117937759D01*
X150784637Y-117705241D01*
X150584759Y-117505363D01*
X150352241Y-117350000D01*
X150584759Y-117194637D01*
X150784637Y-116994759D01*
X150941680Y-116759727D01*
X151049853Y-116498574D01*
X151105000Y-116221335D01*
X151105000Y-115938665D01*
X151049853Y-115661426D01*
X150941680Y-115400273D01*
X150784637Y-115165241D01*
X150584759Y-114965363D01*
X150349727Y-114808320D01*
X150088574Y-114700147D01*
X149811335Y-114645000D01*
X149528665Y-114645000D01*
X149251426Y-114700147D01*
X148990273Y-114808320D01*
X148755241Y-114965363D01*
X148555363Y-115165241D01*
X148398320Y-115400273D01*
X148290147Y-115661426D01*
X148235000Y-115938665D01*
X148235000Y-116221335D01*
X148290147Y-116498574D01*
X148398320Y-116759727D01*
X148555363Y-116994759D01*
X148755241Y-117194637D01*
X148987759Y-117350000D01*
X148755241Y-117505363D01*
X148555363Y-117705241D01*
X148400000Y-117937759D01*
X148244637Y-117705241D01*
X148044759Y-117505363D01*
X147809727Y-117348320D01*
X147548574Y-117240147D01*
X147271335Y-117185000D01*
X146988665Y-117185000D01*
X146711426Y-117240147D01*
X146450273Y-117348320D01*
X146215241Y-117505363D01*
X146015363Y-117705241D01*
X145860000Y-117937759D01*
X145704637Y-117705241D01*
X145504759Y-117505363D01*
X145272241Y-117350000D01*
X145504759Y-117194637D01*
X145704637Y-116994759D01*
X145861680Y-116759727D01*
X145969853Y-116498574D01*
X146025000Y-116221335D01*
X146025000Y-115938665D01*
X145969853Y-115661426D01*
X145861680Y-115400273D01*
X145704637Y-115165241D01*
X145504759Y-114965363D01*
X145269727Y-114808320D01*
X145008574Y-114700147D01*
X144731335Y-114645000D01*
X144448665Y-114645000D01*
X144171426Y-114700147D01*
X143910273Y-114808320D01*
X143675241Y-114965363D01*
X143475363Y-115165241D01*
X143320000Y-115397759D01*
X143164637Y-115165241D01*
X142964759Y-114965363D01*
X142729727Y-114808320D01*
X142468574Y-114700147D01*
X142191335Y-114645000D01*
X141908665Y-114645000D01*
X141631426Y-114700147D01*
X141370273Y-114808320D01*
X141135241Y-114965363D01*
X140935363Y-115165241D01*
X140780000Y-115397759D01*
X140624637Y-115165241D01*
X140424759Y-114965363D01*
X140189727Y-114808320D01*
X139928574Y-114700147D01*
X139651335Y-114645000D01*
X139368665Y-114645000D01*
X139091426Y-114700147D01*
X138830273Y-114808320D01*
X138595241Y-114965363D01*
X138395363Y-115165241D01*
X138238320Y-115400273D01*
X138130147Y-115661426D01*
X138075000Y-115938665D01*
X138075000Y-116221335D01*
X138130147Y-116498574D01*
X138238320Y-116759727D01*
X138395363Y-116994759D01*
X138595241Y-117194637D01*
X138827759Y-117350000D01*
X138595241Y-117505363D01*
X138395363Y-117705241D01*
X138240000Y-117937759D01*
X138084637Y-117705241D01*
X137884759Y-117505363D01*
X137649727Y-117348320D01*
X137388574Y-117240147D01*
X137111335Y-117185000D01*
X136828665Y-117185000D01*
X136551426Y-117240147D01*
X136290273Y-117348320D01*
X136055241Y-117505363D01*
X135855363Y-117705241D01*
X135700000Y-117937759D01*
X135544637Y-117705241D01*
X135344759Y-117505363D01*
X135109727Y-117348320D01*
X134848574Y-117240147D01*
X134571335Y-117185000D01*
X134288665Y-117185000D01*
X134011426Y-117240147D01*
X133750273Y-117348320D01*
X133515241Y-117505363D01*
X133315363Y-117705241D01*
X133160000Y-117937759D01*
X133004637Y-117705241D01*
X132804759Y-117505363D01*
X132569727Y-117348320D01*
X132308574Y-117240147D01*
X132031335Y-117185000D01*
X131748665Y-117185000D01*
X131471426Y-117240147D01*
X131210273Y-117348320D01*
X130975241Y-117505363D01*
X130775363Y-117705241D01*
X130620000Y-117937759D01*
X130464637Y-117705241D01*
X130264759Y-117505363D01*
X130029727Y-117348320D01*
X129768574Y-117240147D01*
X129491335Y-117185000D01*
X129208665Y-117185000D01*
X128931426Y-117240147D01*
X128670273Y-117348320D01*
X128435241Y-117505363D01*
X128235363Y-117705241D01*
X128080000Y-117937759D01*
X127924637Y-117705241D01*
X127724759Y-117505363D01*
X127489727Y-117348320D01*
X127228574Y-117240147D01*
X126951335Y-117185000D01*
X126668665Y-117185000D01*
X126391426Y-117240147D01*
X126130273Y-117348320D01*
X125895241Y-117505363D01*
X125695363Y-117705241D01*
X125540000Y-117937759D01*
X125384637Y-117705241D01*
X125184759Y-117505363D01*
X124949727Y-117348320D01*
X124688574Y-117240147D01*
X124411335Y-117185000D01*
X124128665Y-117185000D01*
X123851426Y-117240147D01*
X123590273Y-117348320D01*
X123355241Y-117505363D01*
X123155363Y-117705241D01*
X123000000Y-117937759D01*
X122844637Y-117705241D01*
X122644759Y-117505363D01*
X122409727Y-117348320D01*
X122148574Y-117240147D01*
X121871335Y-117185000D01*
X121588665Y-117185000D01*
X121311426Y-117240147D01*
X121216099Y-117279633D01*
X121214739Y-117265828D01*
X121174140Y-117131992D01*
X121108212Y-117008649D01*
X121019487Y-116900537D01*
X120992391Y-116878300D01*
X108929091Y-104815000D01*
X109171335Y-104815000D01*
X109412865Y-104766956D01*
X117123288Y-112477379D01*
X117145525Y-112504475D01*
X117253637Y-112593200D01*
X117376980Y-112659128D01*
X117510816Y-112699727D01*
X117615123Y-112710000D01*
X117615125Y-112710000D01*
X117650000Y-112713435D01*
X117684875Y-112710000D01*
X149705909Y-112710000D01*
X154290001Y-117294092D01*
X154290000Y-118705908D01*
X152705909Y-120290000D01*
X149095074Y-120290000D01*
X149060199Y-120286565D01*
X149025324Y-120290000D01*
X149025323Y-120290000D01*
X148921016Y-120300273D01*
X148787180Y-120340872D01*
X148663837Y-120406800D01*
X148555725Y-120495525D01*
X148533492Y-120522616D01*
X143492248Y-125563861D01*
X143308714Y-125508187D01*
X143000000Y-125477781D01*
X142691285Y-125508187D01*
X142394434Y-125598235D01*
X142120855Y-125744467D01*
X141881061Y-125941261D01*
X141684267Y-126181056D01*
X141538035Y-126454635D01*
X141447987Y-126751486D01*
X141425200Y-126982845D01*
X141425201Y-129017156D01*
X141447988Y-129248515D01*
X141538036Y-129545366D01*
X141684268Y-129818945D01*
X141881062Y-130058739D01*
X142120856Y-130255533D01*
X142394435Y-130401765D01*
X142691286Y-130491813D01*
X143000000Y-130522219D01*
X143308715Y-130491813D01*
X143605566Y-130401765D01*
X143879145Y-130255533D01*
X144118939Y-130058739D01*
X144270001Y-129874670D01*
X144421062Y-130058739D01*
X144660856Y-130255533D01*
X144934435Y-130401765D01*
X145231286Y-130491813D01*
X145540000Y-130522219D01*
X145848715Y-130491813D01*
X146145566Y-130401765D01*
X146419145Y-130255533D01*
X146658939Y-130058739D01*
X146810001Y-129874670D01*
X146961062Y-130058739D01*
X147200856Y-130255533D01*
X147474435Y-130401765D01*
X147771286Y-130491813D01*
X148080000Y-130522219D01*
X148388715Y-130491813D01*
X148685566Y-130401765D01*
X148959145Y-130255533D01*
X149198939Y-130058739D01*
X149350001Y-129874670D01*
X149501062Y-130058739D01*
X149740856Y-130255533D01*
X150014435Y-130401765D01*
X150311286Y-130491813D01*
X150620000Y-130522219D01*
X150928715Y-130491813D01*
X151225566Y-130401765D01*
X151499145Y-130255533D01*
X151738939Y-130058739D01*
X151890001Y-129874670D01*
X152041062Y-130058739D01*
X152280856Y-130255533D01*
X152554435Y-130401765D01*
X152851286Y-130491813D01*
X153160000Y-130522219D01*
X153468715Y-130491813D01*
X153765566Y-130401765D01*
X154039145Y-130255533D01*
X154278939Y-130058739D01*
X154430001Y-129874670D01*
X154581062Y-130058739D01*
X154820856Y-130255533D01*
X155094435Y-130401765D01*
X155391286Y-130491813D01*
X155700000Y-130522219D01*
X156008715Y-130491813D01*
X156305566Y-130401765D01*
X156579145Y-130255533D01*
X156818939Y-130058739D01*
X156970001Y-129874670D01*
X157121062Y-130058739D01*
X157360856Y-130255533D01*
X157634435Y-130401765D01*
X157931286Y-130491813D01*
X158240000Y-130522219D01*
X158548715Y-130491813D01*
X158845566Y-130401765D01*
X159119145Y-130255533D01*
X159358939Y-130058739D01*
X159510001Y-129874670D01*
X159661062Y-130058739D01*
X159900856Y-130255533D01*
X160174435Y-130401765D01*
X160471286Y-130491813D01*
X160780000Y-130522219D01*
X161088715Y-130491813D01*
X161385566Y-130401765D01*
X161659145Y-130255533D01*
X161898939Y-130058739D01*
X162050001Y-129874670D01*
X162201062Y-130058739D01*
X162440856Y-130255533D01*
X162714435Y-130401765D01*
X163011286Y-130491813D01*
X163320000Y-130522219D01*
X163628715Y-130491813D01*
X163925566Y-130401765D01*
X164199145Y-130255533D01*
X164438939Y-130058739D01*
X164590001Y-129874670D01*
X164741062Y-130058739D01*
X164980856Y-130255533D01*
X165254435Y-130401765D01*
X165551286Y-130491813D01*
X165860000Y-130522219D01*
X166168715Y-130491813D01*
X166465566Y-130401765D01*
X166739145Y-130255533D01*
X166978939Y-130058739D01*
X167130001Y-129874670D01*
X167281062Y-130058739D01*
X167520856Y-130255533D01*
X167794435Y-130401765D01*
X168091286Y-130491813D01*
X168400000Y-130522219D01*
X168708715Y-130491813D01*
X169005566Y-130401765D01*
X169279145Y-130255533D01*
X169518939Y-130058739D01*
X169670001Y-129874670D01*
X169821062Y-130058739D01*
X170060856Y-130255533D01*
X170334435Y-130401765D01*
X170631286Y-130491813D01*
X170940000Y-130522219D01*
X171248715Y-130491813D01*
X171545566Y-130401765D01*
X171819145Y-130255533D01*
X172058939Y-130058739D01*
X172210001Y-129874670D01*
X172361062Y-130058739D01*
X172600856Y-130255533D01*
X172874435Y-130401765D01*
X173171286Y-130491813D01*
X173480000Y-130522219D01*
X173788715Y-130491813D01*
X174085566Y-130401765D01*
X174359145Y-130255533D01*
X174598939Y-130058739D01*
X174750001Y-129874670D01*
X174901062Y-130058739D01*
X175140856Y-130255533D01*
X175414435Y-130401765D01*
X175711286Y-130491813D01*
X176020000Y-130522219D01*
X176328715Y-130491813D01*
X176625566Y-130401765D01*
X176899145Y-130255533D01*
X177138939Y-130058739D01*
X177290001Y-129874670D01*
X177441062Y-130058739D01*
X177680856Y-130255533D01*
X177954435Y-130401765D01*
X178251286Y-130491813D01*
X178560000Y-130522219D01*
X178868715Y-130491813D01*
X179165566Y-130401765D01*
X179439145Y-130255533D01*
X179678939Y-130058739D01*
X179830001Y-129874670D01*
X179981062Y-130058739D01*
X180220856Y-130255533D01*
X180494435Y-130401765D01*
X180791286Y-130491813D01*
X181100000Y-130522219D01*
X181408715Y-130491813D01*
X181705566Y-130401765D01*
X181979145Y-130255533D01*
X182218939Y-130058739D01*
X182415733Y-129818945D01*
X182561965Y-129545366D01*
X182652013Y-129248515D01*
X182674800Y-129017156D01*
X182674800Y-126982844D01*
X182653354Y-126765098D01*
X196815000Y-126765098D01*
X196815000Y-127234902D01*
X196906654Y-127695679D01*
X197086440Y-128129721D01*
X197347450Y-128520349D01*
X197679651Y-128852550D01*
X198070279Y-129113560D01*
X198504321Y-129293346D01*
X198965098Y-129385000D01*
X199434902Y-129385000D01*
X199895679Y-129293346D01*
X200329721Y-129113560D01*
X200720349Y-128852550D01*
X201052550Y-128520349D01*
X201313560Y-128129721D01*
X201493346Y-127695679D01*
X201585000Y-127234902D01*
X201585000Y-126765098D01*
X202865000Y-126765098D01*
X202865000Y-127234902D01*
X202956654Y-127695679D01*
X203136440Y-128129721D01*
X203397450Y-128520349D01*
X203729651Y-128852550D01*
X204120279Y-129113560D01*
X204554321Y-129293346D01*
X205015098Y-129385000D01*
X205484902Y-129385000D01*
X205945679Y-129293346D01*
X206379721Y-129113560D01*
X206770349Y-128852550D01*
X207102550Y-128520349D01*
X207363560Y-128129721D01*
X207543346Y-127695679D01*
X207635000Y-127234902D01*
X207635000Y-126765098D01*
X217115000Y-126765098D01*
X217115000Y-127234902D01*
X217206654Y-127695679D01*
X217386440Y-128129721D01*
X217647450Y-128520349D01*
X217979651Y-128852550D01*
X218370279Y-129113560D01*
X218804321Y-129293346D01*
X219265098Y-129385000D01*
X219734902Y-129385000D01*
X220195679Y-129293346D01*
X220629721Y-129113560D01*
X221020349Y-128852550D01*
X221352550Y-128520349D01*
X221613560Y-128129721D01*
X221793346Y-127695679D01*
X221885000Y-127234902D01*
X221885000Y-126765098D01*
X222415000Y-126765098D01*
X222415000Y-127234902D01*
X222506654Y-127695679D01*
X222686440Y-128129721D01*
X222947450Y-128520349D01*
X223279651Y-128852550D01*
X223670279Y-129113560D01*
X224104321Y-129293346D01*
X224565098Y-129385000D01*
X225034902Y-129385000D01*
X225495679Y-129293346D01*
X225929721Y-129113560D01*
X226320349Y-128852550D01*
X226652550Y-128520349D01*
X226913560Y-128129721D01*
X227093346Y-127695679D01*
X227185000Y-127234902D01*
X227185000Y-126765098D01*
X227093346Y-126304321D01*
X226913560Y-125870279D01*
X226652550Y-125479651D01*
X226320349Y-125147450D01*
X225929721Y-124886440D01*
X225495679Y-124706654D01*
X225034902Y-124615000D01*
X224565098Y-124615000D01*
X224104321Y-124706654D01*
X223670279Y-124886440D01*
X223279651Y-125147450D01*
X222947450Y-125479651D01*
X222686440Y-125870279D01*
X222506654Y-126304321D01*
X222415000Y-126765098D01*
X221885000Y-126765098D01*
X221793346Y-126304321D01*
X221613560Y-125870279D01*
X221352550Y-125479651D01*
X221020349Y-125147450D01*
X220629721Y-124886440D01*
X220195679Y-124706654D01*
X219734902Y-124615000D01*
X219265098Y-124615000D01*
X218804321Y-124706654D01*
X218370279Y-124886440D01*
X217979651Y-125147450D01*
X217647450Y-125479651D01*
X217386440Y-125870279D01*
X217206654Y-126304321D01*
X217115000Y-126765098D01*
X207635000Y-126765098D01*
X207543346Y-126304321D01*
X207363560Y-125870279D01*
X207102550Y-125479651D01*
X206770349Y-125147450D01*
X206379721Y-124886440D01*
X205945679Y-124706654D01*
X205484902Y-124615000D01*
X205015098Y-124615000D01*
X204554321Y-124706654D01*
X204120279Y-124886440D01*
X203729651Y-125147450D01*
X203397450Y-125479651D01*
X203136440Y-125870279D01*
X202956654Y-126304321D01*
X202865000Y-126765098D01*
X201585000Y-126765098D01*
X201493346Y-126304321D01*
X201313560Y-125870279D01*
X201052550Y-125479651D01*
X200720349Y-125147450D01*
X200329721Y-124886440D01*
X199895679Y-124706654D01*
X199434902Y-124615000D01*
X198965098Y-124615000D01*
X198504321Y-124706654D01*
X198070279Y-124886440D01*
X197679651Y-125147450D01*
X197347450Y-125479651D01*
X197086440Y-125870279D01*
X196906654Y-126304321D01*
X196815000Y-126765098D01*
X182653354Y-126765098D01*
X182652013Y-126751485D01*
X182561965Y-126454634D01*
X182415733Y-126181055D01*
X182218939Y-125941261D01*
X181979144Y-125744467D01*
X181810000Y-125654057D01*
X181810000Y-110134874D01*
X181813435Y-110099999D01*
X181810000Y-110065123D01*
X181799727Y-109960816D01*
X181759128Y-109826980D01*
X181693200Y-109703637D01*
X181693199Y-109703635D01*
X181638053Y-109636440D01*
X181604475Y-109595525D01*
X181577384Y-109573292D01*
X173881711Y-101877620D01*
X173859474Y-101850524D01*
X173751362Y-101761799D01*
X173628019Y-101695871D01*
X173494183Y-101655272D01*
X173389876Y-101644999D01*
X173389874Y-101644999D01*
X173354999Y-101641564D01*
X173320124Y-101644999D01*
X150729876Y-101644999D01*
X150695001Y-101641564D01*
X150660126Y-101644999D01*
X150660124Y-101644999D01*
X150555817Y-101655272D01*
X150421981Y-101695871D01*
X150298638Y-101761799D01*
X150190526Y-101850524D01*
X150168285Y-101877625D01*
X150052865Y-101993044D01*
X149811335Y-101945000D01*
X149528665Y-101945000D01*
X149251426Y-102000147D01*
X148990273Y-102108320D01*
X148755241Y-102265363D01*
X148555363Y-102465241D01*
X148400000Y-102697759D01*
X148244637Y-102465241D01*
X148044759Y-102265363D01*
X147809727Y-102108320D01*
X147548574Y-102000147D01*
X147271335Y-101945000D01*
X146988665Y-101945000D01*
X146711426Y-102000147D01*
X146450273Y-102108320D01*
X146215241Y-102265363D01*
X146015363Y-102465241D01*
X145860000Y-102697759D01*
X145704637Y-102465241D01*
X145504759Y-102265363D01*
X145269727Y-102108320D01*
X145008574Y-102000147D01*
X144731335Y-101945000D01*
X144448665Y-101945000D01*
X144171426Y-102000147D01*
X143910273Y-102108320D01*
X143675241Y-102265363D01*
X143475363Y-102465241D01*
X143320000Y-102697759D01*
X143164637Y-102465241D01*
X142964759Y-102265363D01*
X142729727Y-102108320D01*
X142468574Y-102000147D01*
X142191335Y-101945000D01*
X141908665Y-101945000D01*
X141631426Y-102000147D01*
X141370273Y-102108320D01*
X141135241Y-102265363D01*
X140935363Y-102465241D01*
X140780000Y-102697759D01*
X140624637Y-102465241D01*
X140424759Y-102265363D01*
X140189727Y-102108320D01*
X139928574Y-102000147D01*
X139651335Y-101945000D01*
X139368665Y-101945000D01*
X139091426Y-102000147D01*
X138830273Y-102108320D01*
X138595241Y-102265363D01*
X138395363Y-102465241D01*
X138240000Y-102697759D01*
X138084637Y-102465241D01*
X137884759Y-102265363D01*
X137649727Y-102108320D01*
X137388574Y-102000147D01*
X137111335Y-101945000D01*
X136828665Y-101945000D01*
X136551426Y-102000147D01*
X136290273Y-102108320D01*
X136055241Y-102265363D01*
X135855363Y-102465241D01*
X135700000Y-102697759D01*
X135544637Y-102465241D01*
X135344759Y-102265363D01*
X135109727Y-102108320D01*
X134848574Y-102000147D01*
X134571335Y-101945000D01*
X134288665Y-101945000D01*
X134011426Y-102000147D01*
X133750273Y-102108320D01*
X133515241Y-102265363D01*
X133315363Y-102465241D01*
X133160000Y-102697759D01*
X133004637Y-102465241D01*
X132804759Y-102265363D01*
X132569727Y-102108320D01*
X132308574Y-102000147D01*
X132031335Y-101945000D01*
X131748665Y-101945000D01*
X131471426Y-102000147D01*
X131210273Y-102108320D01*
X130975241Y-102265363D01*
X130775363Y-102465241D01*
X130620000Y-102697759D01*
X130464637Y-102465241D01*
X130264759Y-102265363D01*
X130029727Y-102108320D01*
X129768574Y-102000147D01*
X129491335Y-101945000D01*
X129208665Y-101945000D01*
X128931426Y-102000147D01*
X128670273Y-102108320D01*
X128435241Y-102265363D01*
X128235363Y-102465241D01*
X128080000Y-102697759D01*
X127924637Y-102465241D01*
X127724759Y-102265363D01*
X127489727Y-102108320D01*
X127228574Y-102000147D01*
X126951335Y-101945000D01*
X126668665Y-101945000D01*
X126391426Y-102000147D01*
X126130273Y-102108320D01*
X125895241Y-102265363D01*
X125695363Y-102465241D01*
X125540000Y-102697759D01*
X125384637Y-102465241D01*
X125184759Y-102265363D01*
X124949727Y-102108320D01*
X124688574Y-102000147D01*
X124411335Y-101945000D01*
X124128665Y-101945000D01*
X123851426Y-102000147D01*
X123590273Y-102108320D01*
X123355241Y-102265363D01*
X123155363Y-102465241D01*
X123000000Y-102697759D01*
X122844637Y-102465241D01*
X122644759Y-102265363D01*
X122409727Y-102108320D01*
X122148574Y-102000147D01*
X121871335Y-101945000D01*
X121588665Y-101945000D01*
X121311426Y-102000147D01*
X121050273Y-102108320D01*
X120815241Y-102265363D01*
X120615363Y-102465241D01*
X120460000Y-102697759D01*
X120304637Y-102465241D01*
X120104759Y-102265363D01*
X119869727Y-102108320D01*
X119608574Y-102000147D01*
X119331335Y-101945000D01*
X119048665Y-101945000D01*
X118771426Y-102000147D01*
X118510273Y-102108320D01*
X118275241Y-102265363D01*
X118075363Y-102465241D01*
X117920000Y-102697759D01*
X117764637Y-102465241D01*
X117564759Y-102265363D01*
X117329727Y-102108320D01*
X117068574Y-102000147D01*
X116791335Y-101945000D01*
X116508665Y-101945000D01*
X116231426Y-102000147D01*
X115970273Y-102108320D01*
X115735241Y-102265363D01*
X115535363Y-102465241D01*
X115380000Y-102697759D01*
X115224637Y-102465241D01*
X115024759Y-102265363D01*
X114789727Y-102108320D01*
X114528574Y-102000147D01*
X114251335Y-101945000D01*
X113968665Y-101945000D01*
X113691426Y-102000147D01*
X113430273Y-102108320D01*
X113195241Y-102265363D01*
X112995363Y-102465241D01*
X112840000Y-102697759D01*
X112684637Y-102465241D01*
X112484759Y-102265363D01*
X112249727Y-102108320D01*
X111988574Y-102000147D01*
X111711335Y-101945000D01*
X111428665Y-101945000D01*
X111151426Y-102000147D01*
X110890273Y-102108320D01*
X110655241Y-102265363D01*
X110455363Y-102465241D01*
X110300000Y-102697759D01*
X110144637Y-102465241D01*
X109944759Y-102265363D01*
X109709727Y-102108320D01*
X109448574Y-102000147D01*
X109171335Y-101945000D01*
X108888665Y-101945000D01*
X108611426Y-102000147D01*
X108350273Y-102108320D01*
X108115241Y-102265363D01*
X107915363Y-102465241D01*
X107760000Y-102697759D01*
X107604637Y-102465241D01*
X107404759Y-102265363D01*
X107169727Y-102108320D01*
X106908574Y-102000147D01*
X106631335Y-101945000D01*
X106348665Y-101945000D01*
X106071426Y-102000147D01*
X105810273Y-102108320D01*
X105575241Y-102265363D01*
X105375363Y-102465241D01*
X105220000Y-102697759D01*
X105064637Y-102465241D01*
X104864759Y-102265363D01*
X104629727Y-102108320D01*
X104368574Y-102000147D01*
X104091335Y-101945000D01*
X103808665Y-101945000D01*
X103531426Y-102000147D01*
X103270273Y-102108320D01*
X103035241Y-102265363D01*
X102835363Y-102465241D01*
X102680000Y-102697759D01*
X102524637Y-102465241D01*
X102324759Y-102265363D01*
X102089727Y-102108320D01*
X101828574Y-102000147D01*
X101551335Y-101945000D01*
X101268665Y-101945000D01*
X100991426Y-102000147D01*
X100730273Y-102108320D01*
X100495241Y-102265363D01*
X100295363Y-102465241D01*
X100140000Y-102697759D01*
X99984637Y-102465241D01*
X99784759Y-102265363D01*
X99549727Y-102108320D01*
X99288574Y-102000147D01*
X99011335Y-101945000D01*
X98728665Y-101945000D01*
X98451426Y-102000147D01*
X98190273Y-102108320D01*
X97955241Y-102265363D01*
X97755363Y-102465241D01*
X97600000Y-102697759D01*
X97444637Y-102465241D01*
X97244759Y-102265363D01*
X97009727Y-102108320D01*
X96748574Y-102000147D01*
X96471335Y-101945000D01*
X96188665Y-101945000D01*
X95911426Y-102000147D01*
X95650273Y-102108320D01*
X95415241Y-102265363D01*
X95215363Y-102465241D01*
X95060000Y-102697759D01*
X94904637Y-102465241D01*
X94704759Y-102265363D01*
X94469727Y-102108320D01*
X94208574Y-102000147D01*
X93931335Y-101945000D01*
X93648665Y-101945000D01*
X93371426Y-102000147D01*
X93110273Y-102108320D01*
X92875241Y-102265363D01*
X92675363Y-102465241D01*
X92518320Y-102700273D01*
X92410147Y-102961426D01*
X92355000Y-103238665D01*
X92355000Y-103521335D01*
X92410147Y-103798574D01*
X92518320Y-104059727D01*
X92675363Y-104294759D01*
X92875241Y-104494637D01*
X93110273Y-104651680D01*
X93371426Y-104759853D01*
X93648665Y-104815000D01*
X93931335Y-104815000D01*
X94172865Y-104766956D01*
X99668300Y-110262391D01*
X99690537Y-110289487D01*
X99798649Y-110378212D01*
X99921992Y-110444140D01*
X100055828Y-110484739D01*
X100160135Y-110495012D01*
X100160137Y-110495012D01*
X100195012Y-110498447D01*
X100229887Y-110495012D01*
X105145941Y-110495012D01*
X105110147Y-110581426D01*
X105055000Y-110858665D01*
X105055000Y-111141335D01*
X105110147Y-111418574D01*
X105218320Y-111679727D01*
X105375363Y-111914759D01*
X105575241Y-112114637D01*
X105807759Y-112270000D01*
X105575241Y-112425363D01*
X105375363Y-112625241D01*
X105218320Y-112860273D01*
X105110147Y-113121426D01*
X105055000Y-113398665D01*
X105055000Y-113681335D01*
X105110147Y-113958574D01*
X105218320Y-114219727D01*
X105375363Y-114454759D01*
X105575241Y-114654637D01*
X105807759Y-114810000D01*
X105575241Y-114965363D01*
X105375363Y-115165241D01*
X105218320Y-115400273D01*
X105110147Y-115661426D01*
X105055000Y-115938665D01*
X105055000Y-116221335D01*
X105091672Y-116405693D01*
X105086900Y-116401777D01*
X104963557Y-116335849D01*
X104829721Y-116295250D01*
X104725414Y-116284977D01*
X104725413Y-116284977D01*
X104690538Y-116281542D01*
X104655663Y-116284977D01*
X103244338Y-116284977D01*
X103209463Y-116281542D01*
X103174588Y-116284977D01*
X103174586Y-116284977D01*
X103070279Y-116295250D01*
X102936443Y-116335849D01*
X102813100Y-116401777D01*
X102704988Y-116490502D01*
X102682747Y-116517603D01*
X102615362Y-116584988D01*
X97265606Y-116584988D01*
X97230731Y-116581553D01*
X97195856Y-116584988D01*
X97091549Y-116595261D01*
X96957713Y-116635860D01*
X96834370Y-116701788D01*
X96726258Y-116790513D01*
X96704016Y-116817615D01*
X96636632Y-116884999D01*
X94849876Y-116884999D01*
X94815001Y-116881564D01*
X94780126Y-116884999D01*
X94780124Y-116884999D01*
X94675817Y-116895272D01*
X94541981Y-116935871D01*
X94418638Y-117001799D01*
X94310526Y-117090524D01*
X94288285Y-117117625D01*
X94172865Y-117233044D01*
X93931335Y-117185000D01*
X93648665Y-117185000D01*
X93371426Y-117240147D01*
X93110273Y-117348320D01*
X92875241Y-117505363D01*
X92675363Y-117705241D01*
X92518320Y-117940273D01*
X92410147Y-118201426D01*
X92355000Y-118478665D01*
X92355000Y-118761335D01*
X92410147Y-119038574D01*
X92518320Y-119299727D01*
X92675363Y-119534759D01*
X92875241Y-119734637D01*
X93110273Y-119891680D01*
X93371426Y-119999853D01*
X93648665Y-120055000D01*
X93931335Y-120055000D01*
X94208574Y-119999853D01*
X94469727Y-119891680D01*
X94704759Y-119734637D01*
X94904637Y-119534759D01*
X95060000Y-119302241D01*
X95215363Y-119534759D01*
X95415241Y-119734637D01*
X95650273Y-119891680D01*
X95911426Y-119999853D01*
X96188665Y-120055000D01*
X96471335Y-120055000D01*
X96748574Y-119999853D01*
X97009727Y-119891680D01*
X97244759Y-119734637D01*
X97444637Y-119534759D01*
X97600000Y-119302241D01*
X97755363Y-119534759D01*
X97955241Y-119734637D01*
X98190273Y-119891680D01*
X98451426Y-119999853D01*
X98728665Y-120055000D01*
X99011335Y-120055000D01*
X99288574Y-119999853D01*
X99549727Y-119891680D01*
X99784759Y-119734637D01*
X99984637Y-119534759D01*
X100140000Y-119302241D01*
X100295363Y-119534759D01*
X100495241Y-119734637D01*
X100730273Y-119891680D01*
X100991426Y-119999853D01*
X101268665Y-120055000D01*
X101551335Y-120055000D01*
X101828574Y-119999853D01*
X102089727Y-119891680D01*
X102214999Y-119807976D01*
X102214999Y-119901110D01*
X96552248Y-125563861D01*
X96368714Y-125508187D01*
X96060000Y-125477781D01*
X95751285Y-125508187D01*
X95454434Y-125598235D01*
X95180855Y-125744467D01*
X94941061Y-125941261D01*
X94790000Y-126125330D01*
X94638939Y-125941261D01*
X94399144Y-125744467D01*
X94125565Y-125598235D01*
X93828714Y-125508187D01*
X93520000Y-125477781D01*
X93211285Y-125508187D01*
X92914434Y-125598235D01*
X92640855Y-125744467D01*
X92401061Y-125941261D01*
X92250000Y-126125330D01*
X92098939Y-125941261D01*
X91859144Y-125744467D01*
X91585565Y-125598235D01*
X91288714Y-125508187D01*
X90980000Y-125477781D01*
X90671285Y-125508187D01*
X90374434Y-125598235D01*
X90100855Y-125744467D01*
X89861061Y-125941261D01*
X89710000Y-126125330D01*
X89558939Y-125941261D01*
X89319144Y-125744467D01*
X89045565Y-125598235D01*
X88748714Y-125508187D01*
X88440000Y-125477781D01*
X88131285Y-125508187D01*
X87834434Y-125598235D01*
X87560855Y-125744467D01*
X87321061Y-125941261D01*
X87170000Y-126125330D01*
X87018939Y-125941261D01*
X86779144Y-125744467D01*
X86505565Y-125598235D01*
X86208714Y-125508187D01*
X85900000Y-125477781D01*
X85591285Y-125508187D01*
X85294434Y-125598235D01*
X85020855Y-125744467D01*
X84781061Y-125941261D01*
X84660000Y-126088775D01*
X84660000Y-110422789D01*
X84680244Y-110469315D01*
X84856845Y-110723749D01*
X85079691Y-110938841D01*
X85340217Y-111106325D01*
X85628412Y-111219764D01*
X85933200Y-111274800D01*
X86873000Y-111274800D01*
X86873000Y-109827000D01*
X87127000Y-109827000D01*
X87127000Y-111274800D01*
X88066800Y-111274800D01*
X88371588Y-111219764D01*
X88659783Y-111106325D01*
X88920309Y-110938841D01*
X89143155Y-110723749D01*
X89319756Y-110469315D01*
X89443326Y-110185317D01*
X89470279Y-110070987D01*
X89350143Y-109827000D01*
X87127000Y-109827000D01*
X86873000Y-109827000D01*
X86853000Y-109827000D01*
X86853000Y-109573000D01*
X86873000Y-109573000D01*
X86873000Y-109553000D01*
X87127000Y-109553000D01*
X87127000Y-109573000D01*
X89350143Y-109573000D01*
X89470279Y-109329013D01*
X89443326Y-109214683D01*
X89319756Y-108930685D01*
X89143155Y-108676251D01*
X88920309Y-108461159D01*
X88873427Y-108431020D01*
X89058739Y-108278939D01*
X89255533Y-108039145D01*
X89401765Y-107765566D01*
X89491813Y-107468715D01*
X89522219Y-107160000D01*
X89491813Y-106851285D01*
X89401765Y-106554434D01*
X89255533Y-106280855D01*
X89058739Y-106041061D01*
X88874671Y-105890000D01*
X89058739Y-105738939D01*
X89255533Y-105499145D01*
X89401765Y-105225566D01*
X89491813Y-104928715D01*
X89522219Y-104620000D01*
X89491813Y-104311285D01*
X89401765Y-104014434D01*
X89255533Y-103740855D01*
X89058739Y-103501061D01*
X88874671Y-103350000D01*
X89058739Y-103198939D01*
X89255533Y-102959145D01*
X89401765Y-102685566D01*
X89491813Y-102388715D01*
X89522219Y-102080000D01*
X89491813Y-101771285D01*
X89401765Y-101474434D01*
X89255533Y-101200855D01*
X89058739Y-100961061D01*
X88874671Y-100810000D01*
X89058739Y-100658939D01*
X89255533Y-100419145D01*
X89401765Y-100145566D01*
X89491813Y-99848715D01*
X89522219Y-99540000D01*
X89491813Y-99231285D01*
X89401765Y-98934434D01*
X89255533Y-98660855D01*
X89058739Y-98421061D01*
X88874671Y-98270000D01*
X89058739Y-98118939D01*
X89255533Y-97879145D01*
X89401765Y-97605566D01*
X89491813Y-97308715D01*
X89522219Y-97000000D01*
X89491813Y-96691285D01*
X89401765Y-96394434D01*
X89255533Y-96120855D01*
X89058739Y-95881061D01*
X88818945Y-95684267D01*
X88773545Y-95660000D01*
X236340001Y-95660000D01*
X236340000Y-131340000D01*
G36*
X118462891Y-117379980D02*
G01*
X118275241Y-117505363D01*
X118075363Y-117705241D01*
X117919085Y-117939128D01*
X117886671Y-117878486D01*
X117642702Y-117806903D01*
X116829605Y-118620000D01*
X117642702Y-119433097D01*
X117886671Y-119361514D01*
X117917194Y-119297008D01*
X117918320Y-119299727D01*
X118075363Y-119534759D01*
X118275241Y-119734637D01*
X118510273Y-119891680D01*
X118771426Y-119999853D01*
X119048665Y-120055000D01*
X119331335Y-120055000D01*
X119608574Y-119999853D01*
X119869727Y-119891680D01*
X119880434Y-119884526D01*
X120750001Y-120754093D01*
X120750000Y-125654056D01*
X120580855Y-125744467D01*
X120341061Y-125941261D01*
X120190000Y-126125330D01*
X120038939Y-125941261D01*
X119799144Y-125744467D01*
X119526362Y-125598661D01*
X119513200Y-125574037D01*
X119424475Y-125465925D01*
X119397379Y-125443688D01*
X114008691Y-120055000D01*
X114251335Y-120055000D01*
X114528574Y-119999853D01*
X114789727Y-119891680D01*
X115024759Y-119734637D01*
X115146694Y-119612702D01*
X115836903Y-119612702D01*
X115908486Y-119856671D01*
X116163996Y-119977571D01*
X116438184Y-120046300D01*
X116720512Y-120060217D01*
X117000130Y-120018787D01*
X117266292Y-119923603D01*
X117391514Y-119856671D01*
X117463097Y-119612702D01*
X116650000Y-118799605D01*
X115836903Y-119612702D01*
X115146694Y-119612702D01*
X115224637Y-119534759D01*
X115380915Y-119300872D01*
X115413329Y-119361514D01*
X115657298Y-119433097D01*
X116470395Y-118620000D01*
X115657298Y-117806903D01*
X115413329Y-117878486D01*
X115382806Y-117942992D01*
X115381680Y-117940273D01*
X115224637Y-117705241D01*
X115146694Y-117627298D01*
X115836903Y-117627298D01*
X116650000Y-118440395D01*
X117463097Y-117627298D01*
X117391514Y-117383329D01*
X117136004Y-117262429D01*
X116861816Y-117193700D01*
X116579488Y-117179783D01*
X116299870Y-117221213D01*
X116033708Y-117316397D01*
X115908486Y-117383329D01*
X115836903Y-117627298D01*
X115146694Y-117627298D01*
X115024759Y-117505363D01*
X114789727Y-117348320D01*
X114528574Y-117240147D01*
X114251335Y-117185000D01*
X113968665Y-117185000D01*
X113691426Y-117240147D01*
X113605012Y-117275941D01*
X113605012Y-112522101D01*
X118462891Y-117379980D01*
X118462891Y-117379980D01*
G37*
X118462891Y-117379980D02*
X118275241Y-117505363D01*
X118075363Y-117705241D01*
X117919085Y-117939128D01*
X117886671Y-117878486D01*
X117642702Y-117806903D01*
X116829605Y-118620000D01*
X117642702Y-119433097D01*
X117886671Y-119361514D01*
X117917194Y-119297008D01*
X117918320Y-119299727D01*
X118075363Y-119534759D01*
X118275241Y-119734637D01*
X118510273Y-119891680D01*
X118771426Y-119999853D01*
X119048665Y-120055000D01*
X119331335Y-120055000D01*
X119608574Y-119999853D01*
X119869727Y-119891680D01*
X119880434Y-119884526D01*
X120750001Y-120754093D01*
X120750000Y-125654056D01*
X120580855Y-125744467D01*
X120341061Y-125941261D01*
X120190000Y-126125330D01*
X120038939Y-125941261D01*
X119799144Y-125744467D01*
X119526362Y-125598661D01*
X119513200Y-125574037D01*
X119424475Y-125465925D01*
X119397379Y-125443688D01*
X114008691Y-120055000D01*
X114251335Y-120055000D01*
X114528574Y-119999853D01*
X114789727Y-119891680D01*
X115024759Y-119734637D01*
X115146694Y-119612702D01*
X115836903Y-119612702D01*
X115908486Y-119856671D01*
X116163996Y-119977571D01*
X116438184Y-120046300D01*
X116720512Y-120060217D01*
X117000130Y-120018787D01*
X117266292Y-119923603D01*
X117391514Y-119856671D01*
X117463097Y-119612702D01*
X116650000Y-118799605D01*
X115836903Y-119612702D01*
X115146694Y-119612702D01*
X115224637Y-119534759D01*
X115380915Y-119300872D01*
X115413329Y-119361514D01*
X115657298Y-119433097D01*
X116470395Y-118620000D01*
X115657298Y-117806903D01*
X115413329Y-117878486D01*
X115382806Y-117942992D01*
X115381680Y-117940273D01*
X115224637Y-117705241D01*
X115146694Y-117627298D01*
X115836903Y-117627298D01*
X116650000Y-118440395D01*
X117463097Y-117627298D01*
X117391514Y-117383329D01*
X117136004Y-117262429D01*
X116861816Y-117193700D01*
X116579488Y-117179783D01*
X116299870Y-117221213D01*
X116033708Y-117316397D01*
X115908486Y-117383329D01*
X115836903Y-117627298D01*
X115146694Y-117627298D01*
X115024759Y-117505363D01*
X114789727Y-117348320D01*
X114528574Y-117240147D01*
X114251335Y-117185000D01*
X113968665Y-117185000D01*
X113691426Y-117240147D01*
X113605012Y-117275941D01*
X113605012Y-112522101D01*
X118462891Y-117379980D01*
M02*
