M48
INCH,TZ
T1C0.0157
T2C0.0433
T3C0.0440
T4C0.1378
%
G90
G05
T1
X40236Y-48583
T2
X36925Y-40701
X36925Y-46701
X37925Y-40701
X37925Y-46701
X38925Y-40701
X38925Y-46701
X39925Y-40701
X39925Y-46701
X40925Y-40701
X40925Y-46701
X41925Y-40701
X41925Y-41701
X41925Y-42701
X41925Y-43701
X41925Y-44701
X41925Y-45701
X41925Y-46701
X42925Y-40701
X42925Y-46701
X43925Y-40701
X43925Y-46701
X44925Y-40701
X44925Y-46701
X45925Y-40701
X45925Y-46701
X46925Y-40701
X46925Y-46701
X47925Y-40701
X47925Y-46701
X48925Y-40701
X48925Y-46701
X49925Y-40701
X49925Y-46701
X50925Y-40701
X50925Y-46701
X51925Y-40701
X51925Y-46701
X52925Y-40701
X52925Y-46701
X53425Y-41882
X53925Y-40701
X53925Y-46701
X54425Y-41882
X54925Y-40701
X54925Y-45701
X54925Y-46701
X55425Y-41882
X55925Y-40701
X55925Y-45701
X55925Y-46701
X56425Y-41882
X56925Y-40701
X56925Y-45701
X56925Y-46701
X57425Y-41882
X57925Y-40701
X57925Y-46701
X58925Y-40701
X58925Y-45701
X58925Y-46701
X59925Y-40701
X59925Y-46701
T3
X33819Y-50394
X34819Y-50394
X35819Y-50394
X36819Y-50394
X37819Y-50394
X38819Y-50394
X39819Y-50394
X40819Y-50394
X41819Y-50394
X42819Y-50394
X43819Y-50394
X44819Y-50394
X45819Y-50394
X46819Y-50394
X47819Y-50394
X48819Y-50394
X56299Y-50394
X57299Y-50394
X58299Y-50394
X59299Y-50394
X60299Y-50394
X61299Y-50394
X62299Y-50394
X63299Y-50394
X64299Y-50394
X65299Y-50394
X66299Y-50394
X67299Y-50394
X68299Y-50394
X69299Y-50394
X70299Y-50394
X71299Y-50394
X34252Y-38189
X34252Y-39189
X34252Y-40189
X34252Y-41189
X34252Y-42189
X34252Y-43189
T4
X86417Y-50000
X80807Y-50000
X88504Y-50000
X78425Y-50000
T0
M30
